<?xml version="1.0" encoding="iso-8859-1"?>
<!-- Generator: Adobe Illustrator 19.0.0, SVG Export Plug-In . SVG Version: 6.00 Build 0)  -->
<svg version="1.1" id="Capa_1" xmlns="http://www.w3.org/2000/svg" xmlns:xlink="http://www.w3.org/1999/xlink" x="0px" y="0px"
	 viewBox="0 0 59.481 59.481" style="enable-background:new 0 0 59.481 59.481;" xml:space="preserve">
<path d="M40.657,1.153l1.393,1.436L30.126,14.156l-1.393-1.436L40.657,1.153z M47.128,31.098l-1.451-1.377l10.949-11.54l1.451,1.377
	L47.128,31.098z M47.107,1.414l-14.85,14.85l-1.414-1.414L45.693,0L47.107,1.414z M51.35,1.415l-16.97,16.97l-1.414-1.414
	l16.97-16.97L51.35,1.415z M54.177,2.829L36.5,20.506l-1.414-1.414L52.763,1.415L54.177,2.829z M56.3,4.951L38.623,22.628
	l-1.414-1.414L54.885,3.537L56.3,4.951z M40.743,24.75l-1.414-1.414l16.97-16.97l1.414,1.414L40.743,24.75z M42.864,26.871
	l-1.414-1.414L57.713,9.194l1.414,1.414L42.864,26.871z M45,28.985l-1.432-1.397l14.069-14.421l1.432,1.397L45,28.985z
	 M24.795,14.811c-1.225,2.448-2.827,4.672-4.762,6.606L5.986,35.465l-5.541,2.523l-0.067,0.558
	c-0.147,1.237,0.372,2.629,1.428,3.818c0.914,1.03,2.057,1.703,3.148,1.873c0.104,0.939,0.495,1.786,1.129,2.421
	c0.631,0.634,1.471,1.026,2.415,1.134c0.105,0.935,0.496,1.775,1.126,2.408c0.631,0.634,1.473,1.027,2.417,1.135
	c0.105,0.935,0.496,1.776,1.126,2.408c0.634,0.637,1.479,1.031,2.43,1.137c0.15,0.977,0.706,1.997,1.576,2.869
	c1.083,1.085,2.465,1.732,3.695,1.732c0.142,0,0.282-0.008,0.421-0.024l0.56-0.067l2.493-5.512l14.076-14.076
	c1.936-1.936,4.158-3.537,6.606-4.761l3.063-1.531L26.325,11.748L24.795,14.811z M20.943,28.992l3.509-3.509
	c0.391-0.391,1.023-0.391,1.414,0s0.391,1.023,0,1.414l-3.509,3.509c-0.195,0.195-0.451,0.293-0.707,0.293s-0.512-0.098-0.707-0.293
	C20.553,30.016,20.553,29.383,20.943,28.992z M6.21,38.068l1.415-1.414l1.414,1.414l-1.415,1.414L6.21,38.068z M8.332,40.189
	l1.414-1.414l1.414,1.414l-1.414,1.414L8.332,40.189z M11.867,43.726l-1.414-1.414l1.414-1.414l1.414,1.414L11.867,43.726z
	 M12.574,44.433l1.414-1.414l1.414,1.414l-1.414,1.414L12.574,44.433z M14.695,46.554l1.414-1.414l1.414,1.414l-1.414,1.414
	L14.695,46.554z M16.817,48.675l1.414-1.414l1.414,1.414l-1.414,1.414L16.817,48.675z M20.353,52.211l-1.414-1.414l1.414-1.415
	l1.414,1.414L20.353,52.211z M22.474,54.332l-1.414-1.414l1.414-1.414l1.414,1.414L22.474,54.332z M28.85,42.925
	c-1.072,0.778-2.338,1.188-3.663,1.188c-1.326,0-2.592-0.41-3.664-1.188l-2.531-1.435l-0.545-0.548l-1.431-2.525
	c-1.596-2.199-1.596-5.128,0-7.327l1.836-3.238l1.836,3.238c0.636,0.876,1.007,1.869,1.136,2.884
	c0.755-0.524,1.63-0.894,2.588-1.046L28,31.937l-0.991,3.588c-0.154,0.97-0.529,1.856-1.064,2.617
	c1.035,0.122,2.043,0.484,2.906,1.111l3.238,1.836L28.85,42.925z M34.352,35.383l-3.509,3.509c-0.195,0.195-0.451,0.293-0.707,0.293
	s-0.512-0.098-0.707-0.293c-0.391-0.391-0.391-1.023,0-1.414l3.509-3.509c0.391-0.391,1.023-0.391,1.414,0
	S34.742,34.992,34.352,35.383z M34.674,30.818l-4.387,4.386c-0.195,0.195-0.451,0.293-0.707,0.293s-0.512-0.098-0.707-0.293
	c-0.391-0.391-0.391-1.023,0-1.414l4.387-4.386c0.391-0.391,1.023-0.391,1.414,0S35.065,30.428,34.674,30.818z M34.299,25.52
	c0.391,0.391,0.391,1.023,0,1.414l-3.948,3.947c-0.195,0.195-0.451,0.293-0.707,0.293s-0.512-0.098-0.707-0.293
	c-0.391-0.391-0.391-1.023,0-1.414l3.948-3.947C33.275,25.129,33.908,25.129,34.299,25.52z M30.089,25.504
	c0.391,0.391,0.391,1.023,0,1.414l-4.386,4.386c-0.195,0.195-0.451,0.293-0.707,0.293s-0.512-0.098-0.707-0.293
	c-0.391-0.391-0.391-1.023,0-1.414l4.386-4.386C29.066,25.113,29.698,25.113,30.089,25.504z"/>
<g>
</g>
<g>
</g>
<g>
</g>
<g>
</g>
<g>
</g>
<g>
</g>
<g>
</g>
<g>
</g>
<g>
</g>
<g>
</g>
<g>
</g>
<g>
</g>
<g>
</g>
<g>
</g>
<g>
</g>
</svg>
