<?xml version="1.0" encoding="UTF-8" standalone="no"?>
<!-- Created with Inkscape (http://www.inkscape.org/) -->

<svg
   xmlns:dc="http://purl.org/dc/elements/1.1/"
   xmlns:cc="http://creativecommons.org/ns#"
   xmlns:rdf="http://www.w3.org/1999/02/22-rdf-syntax-ns#"
   xmlns:svg="http://www.w3.org/2000/svg"
   xmlns="http://www.w3.org/2000/svg"
   xmlns:sodipodi="http://sodipodi.sourceforge.net/DTD/sodipodi-0.dtd"
   xmlns:inkscape="http://www.inkscape.org/namespaces/inkscape"
   width="610"
   height="610"
   id="svg2"
   version="1.1"
   inkscape:version="0.92.2 5c3e80d, 2017-08-06"
   sodipodi:docname="Spaghetti_open_data_logo2019__floppy.svg"
   inkscape:export-filename="/Users/lucacorsato/Documents/lavori/spaghetti open data 2019/png/Spaghetti_open_data_logo2019__floppy.png"
   inkscape:export-xdpi="300"
   inkscape:export-ydpi="300">
  <defs
     id="defs4">
    <linearGradient
       id="linearGradient3874">
      <stop
         style="stop-color:#0f0f0f;stop-opacity:1;"
         offset="0"
         id="stop3876" />
      <stop
         style="stop-color:#4b4b4b;stop-opacity:1;"
         offset="1"
         id="stop3878" />
    </linearGradient>
  </defs>
  <sodipodi:namedview
     id="base"
     pagecolor="#ffffff"
     bordercolor="#666666"
     borderopacity="1.0"
     inkscape:pageopacity="0.0"
     inkscape:pageshadow="2"
     inkscape:zoom="1.4142136"
     inkscape:cx="122.92036"
     inkscape:cy="453.95191"
     inkscape:document-units="mm"
     inkscape:current-layer="layer1"
     showgrid="false"
     inkscape:window-width="1920"
     inkscape:window-height="1097"
     inkscape:window-x="0"
     inkscape:window-y="1"
     inkscape:window-maximized="1"
     units="cm"
     inkscape:snap-bbox="true"
     inkscape:bbox-paths="true"
     inkscape:bbox-nodes="true"
     inkscape:snap-bbox-edge-midpoints="true"
     inkscape:snap-bbox-midpoints="true"
     inkscape:object-paths="true"
     inkscape:snap-intersection-paths="true"
     inkscape:snap-smooth-nodes="true"
     inkscape:snap-midpoints="true"
     inkscape:snap-object-midpoints="true"
     inkscape:snap-center="true"
     inkscape:snap-text-baseline="true"
     inkscape:snap-page="true"
     inkscape:snap-global="false" />
  <metadata
     id="metadata7">
    <rdf:RDF>
      <cc:Work
         rdf:about="">
        <dc:format>image/svg+xml</dc:format>
        <dc:type
           rdf:resource="http://purl.org/dc/dcmitype/StillImage" />
        <dc:title />
      </cc:Work>
    </rdf:RDF>
  </metadata>
  <g
     inkscape:label="Layer 1"
     inkscape:groupmode="layer"
     id="layer1"
     transform="translate(0,-442.36087)">
    <path
       style="fill:#4b4b4b;fill-opacity:1;stroke:none;stroke-width:1.30420244"
       d="M 304.97962,442.36087 C 136.53358,442.36087 3.5e-5,578.89442 3.5e-5,747.34046 c 0,168.44604 136.533555,305.02044 304.979585,305.02044 168.44604,0 305.02034,-136.5744 305.02034,-305.02044 0,-168.44604 -136.5743,-304.97959 -305.02034,-304.97959 z m 0,239.15812 c 36.36903,0 65.86222,29.45244 65.86222,65.82147 0,36.36903 -29.49319,65.86222 -65.86222,65.86222 -36.36903,0 -65.86221,-29.49319 -65.86221,-65.86222 0,-36.36903 29.49318,-65.82147 65.86221,-65.82147 z"
       id="path3861"
       inkscape:connector-curvature="0" />
    <path
       style="fill:#1a1a1a;fill-opacity:1;fill-rule:evenodd;stroke:none;stroke-width:1.2944026"
       d="M 6.8828125 0 L 0.005859375 6.8769531 L 0.005859375 603.12305 L 4.578125 603.12305 L 4.578125 610 L 233.92969 610 C 233.92969 606.2005 237.00709 603.12305 240.80664 603.12305 C 244.60619 603.12305 247.68164 606.2005 247.68164 610 L 352.4082 610 L 362.31836 610 C 362.31836 606.2005 365.4348 603.12305 369.23438 603.12305 C 373.03393 603.12305 376.11133 606.2005 376.11133 610 L 389.86523 610 L 419.7168 610 L 605.42188 610 L 605.42188 603.12305 L 609.99414 603.12305 L 609.99414 169.7207 L 591.66992 169.7207 L 591.66992 142.17578 L 609.99414 142.17578 L 609.99414 6.8769531 L 603.11719 0 L 6.8828125 0 z M 225.35742 133.6543 C 226.04542 133.6543 226.63681 133.82964 227.13281 134.18164 C 227.63681 134.52564 228.02116 135.03308 228.28516 135.70508 C 228.55716 136.37708 228.69336 137.18863 228.69336 138.14062 C 228.69336 139.56463 228.40041 140.66169 227.81641 141.42969 C 227.23241 142.18969 226.41342 142.57031 225.35742 142.57031 C 224.30142 142.57031 223.47677 142.18969 222.88477 141.42969 C 222.30077 140.66969 222.00977 139.5783 222.00977 138.1543 C 222.00977 137.2023 222.1403 136.3888 222.4043 135.7168 C 222.6763 135.0368 223.06436 134.52564 223.56836 134.18164 C 224.07236 133.82964 224.66942 133.6543 225.35742 133.6543 z M 237.87305 133.6543 C 238.56105 133.6543 239.15244 133.82964 239.64844 134.18164 C 240.15244 134.52564 240.53678 135.03308 240.80078 135.70508 C 241.07278 136.37708 241.20898 137.18863 241.20898 138.14062 C 241.20898 139.56463 240.91603 140.66169 240.33203 141.42969 C 239.74803 142.18969 238.92905 142.57031 237.87305 142.57031 C 236.81705 142.57031 235.99239 142.18969 235.40039 141.42969 C 234.81639 140.66969 234.52539 139.5783 234.52539 138.1543 C 234.52539 137.2023 234.65592 136.3888 234.91992 135.7168 C 235.19192 135.0368 235.57998 134.52564 236.08398 134.18164 C 236.58798 133.82964 237.18505 133.6543 237.87305 133.6543 z M 217.86719 133.66602 C 218.49119 133.66602 219.03972 133.77423 219.51172 133.99023 C 219.98372 134.20623 220.34752 134.51034 220.60352 134.90234 C 220.85952 135.29434 220.98633 135.75325 220.98633 136.28125 C 220.98633 136.85725 220.87067 137.32927 220.63867 137.69727 C 220.41467 138.05727 220.14227 138.33711 219.82227 138.53711 C 219.50227 138.73711 219.08622 138.94983 218.57422 139.17383 C 218.17422 139.34183 217.85895 139.49291 217.62695 139.62891 C 217.39495 139.75691 217.19906 139.92481 217.03906 140.13281 C 216.88706 140.34081 216.80683 140.59834 216.79883 140.90234 L 216.79883 140.98633 L 221.07031 140.98633 L 221.07031 142.46094 L 214.60352 142.46094 L 214.60352 141.1543 C 214.60352 140.6183 214.72661 140.16116 214.97461 139.78516 C 215.23061 139.40116 215.53472 139.09333 215.88672 138.86133 C 216.24672 138.62133 216.71502 138.35831 217.29102 138.07031 C 217.72302 137.84631 218.05883 137.66158 218.29883 137.51758 C 218.54683 137.36558 218.75016 137.19023 218.91016 136.99023 C 219.07016 136.78223 219.15039 136.54897 219.15039 136.29297 C 219.15039 135.92497 219.02358 135.63769 218.76758 135.42969 C 218.51158 135.22169 218.19436 135.11719 217.81836 135.11719 C 217.43436 135.11719 217.09111 135.22169 216.78711 135.42969 C 216.49111 135.62969 216.27095 135.94867 216.12695 136.38867 L 214.50781 136.28125 C 214.61181 135.48125 214.94762 134.84505 215.51562 134.37305 C 216.09162 133.90105 216.87519 133.66602 217.86719 133.66602 z M 56.763672 133.78516 C 57.995672 133.78516 58.859469 133.78887 59.355469 133.79688 C 60.891469 133.82888 62.023953 134.21694 62.751953 134.96094 C 63.487953 135.70494 63.855469 136.74603 63.855469 138.08203 C 63.855469 139.46603 63.474844 140.54059 62.714844 141.30859 C 61.954844 142.07659 60.814922 142.46094 59.294922 142.46094 L 56.763672 142.46094 L 56.763672 133.78516 z M 67.167969 133.78516 L 69.015625 133.78516 L 72.111328 142.46094 L 70.371094 142.46094 L 69.664062 140.44531 L 66.542969 140.44531 L 65.8125 142.46094 L 64.060547 142.46094 L 67.167969 133.78516 z M 72.142578 133.78516 L 79.091797 133.78516 L 79.091797 135.3457 L 76.523438 135.3457 L 76.523438 142.46094 L 74.771484 142.46094 L 74.771484 135.3457 L 72.142578 135.3457 L 72.142578 133.78516 z M 80.248047 133.78516 L 82 133.78516 L 82 142.46094 L 80.248047 142.46094 L 80.248047 133.78516 z M 89.058594 133.78516 L 90.90625 133.78516 L 94.001953 142.46094 L 92.261719 142.46094 L 91.554688 140.44531 L 88.433594 140.44531 L 87.703125 142.46094 L 85.951172 142.46094 L 89.058594 133.78516 z M 95.271484 133.78516 L 98.462891 133.78516 C 99.102891 133.78516 99.670016 133.89709 100.16602 134.12109 C 100.67002 134.33709 101.06747 134.66175 101.35547 135.09375 C 101.64347 135.51775 101.78711 136.02891 101.78711 136.62891 C 101.78711 137.48491 101.50727 138.15653 100.94727 138.64453 C 100.38727 139.12453 99.635406 139.36523 98.691406 139.36523 L 97.035156 139.36523 L 97.035156 142.46094 L 95.271484 142.46094 L 95.271484 133.78516 z M 103.12305 133.78516 L 109.08594 133.78516 L 109.07422 135.26172 L 104.88672 135.26172 L 104.88672 137.36133 L 108.52344 137.36133 L 108.52344 138.8125 L 104.875 138.8125 L 104.875 140.96094 L 109.14648 140.97266 L 109.14648 142.46094 L 103.12305 142.46094 L 103.12305 133.78516 z M 110.83398 133.78516 L 114.49414 133.78516 C 115.49414 133.78516 116.24228 134.01842 116.73828 134.48242 C 117.23428 134.94642 117.48047 135.57695 117.48047 136.37695 C 117.48047 137.00895 117.34055 137.51834 117.06055 137.90234 C 116.78855 138.28634 116.42103 138.59417 115.95703 138.82617 L 117.56445 142.46094 L 115.75391 142.46094 L 114.33789 139.11328 L 112.58594 139.11328 L 112.58594 142.46094 L 110.83398 142.46094 L 110.83398 133.78516 z M 118.31445 133.78516 L 125.26367 133.78516 L 125.26367 135.3457 L 122.69531 135.3457 L 122.69531 142.46094 L 120.94336 142.46094 L 120.94336 135.3457 L 118.31445 135.3457 L 118.31445 133.78516 z M 126.41992 133.78516 L 128.17188 133.78516 L 128.17188 142.46094 L 126.41992 142.46094 L 126.41992 133.78516 z M 132.79492 133.78516 L 134.54688 133.78516 L 134.54688 142.46094 L 132.79492 142.46094 L 132.79492 133.78516 z M 136.47461 133.78516 L 138.21484 133.78516 L 142.16211 139.5332 L 142.16211 133.78516 L 143.92578 133.78516 L 143.92578 142.46094 L 142.3418 142.46094 L 138.22656 136.49805 L 138.22656 142.46094 L 136.47461 142.46094 L 136.47461 133.78516 z M 148.54492 133.78516 L 150.29688 133.78516 L 150.29688 142.46094 L 148.54492 142.46094 L 148.54492 133.78516 z M 151.43164 133.78516 L 158.38086 133.78516 L 158.38086 135.3457 L 155.8125 135.3457 L 155.8125 142.46094 L 154.06055 142.46094 L 154.06055 135.3457 L 151.43164 135.3457 L 151.43164 133.78516 z M 160.87109 133.78516 L 162.71875 133.78516 L 165.81445 142.46094 L 164.07422 142.46094 L 163.36719 140.44531 L 160.24609 140.44531 L 159.51562 142.46094 L 157.76367 142.46094 L 160.87109 133.78516 z M 167.08398 133.78516 L 168.84766 133.78516 L 168.84766 140.98633 L 172.61523 140.98633 L 172.61523 142.46094 L 167.08398 142.46094 L 167.08398 133.78516 z M 173.92773 133.78516 L 175.67969 133.78516 L 175.67969 142.46094 L 173.92773 142.46094 L 173.92773 133.78516 z M 180.04297 133.78516 L 181.89062 133.78516 L 184.98633 142.46094 L 183.24609 142.46094 L 182.53906 140.44531 L 179.41797 140.44531 L 178.6875 142.46094 L 176.93555 142.46094 L 180.04297 133.78516 z M 188.95117 133.78516 C 190.18317 133.78516 191.04697 133.78887 191.54297 133.79688 C 193.07897 133.82888 194.21145 134.21694 194.93945 134.96094 C 195.67545 135.70494 196.04297 136.74603 196.04297 138.08203 C 196.04297 139.46603 195.66234 140.54059 194.90234 141.30859 C 194.14234 142.07659 193.00242 142.46094 191.48242 142.46094 L 188.95117 142.46094 L 188.95117 133.78516 z M 199.35547 133.78516 L 201.20312 133.78516 L 204.29883 142.46094 L 202.55859 142.46094 L 201.85156 140.44531 L 198.73047 140.44531 L 198 142.46094 L 196.24805 142.46094 L 199.35547 133.78516 z M 205.56836 133.78516 L 207.33203 133.78516 L 207.33203 140.98633 L 211.09961 140.98633 L 211.09961 142.46094 L 205.56836 142.46094 L 205.56836 133.78516 z M 231.66602 133.78516 L 232.83008 133.78516 L 232.83008 142.46094 L 231.05469 142.46094 L 231.05469 135.93359 L 229.50586 135.93359 L 229.50586 134.97266 C 230.22586 134.97266 230.75384 134.87383 231.08984 134.67383 C 231.43384 134.47383 231.62602 134.17716 231.66602 133.78516 z M 225.3457 135.04492 C 224.8417 135.04492 224.48162 135.28562 224.26562 135.76562 C 224.04962 136.24563 223.94141 137.0423 223.94141 138.1543 C 223.94141 138.8823 223.98427 139.46625 224.07227 139.90625 C 224.16827 140.33825 224.31758 140.65352 224.51758 140.85352 C 224.72558 141.05352 225.00542 141.1543 225.35742 141.1543 C 225.70942 141.1543 225.98555 141.05352 226.18555 140.85352 C 226.39355 140.65352 226.54091 140.33825 226.62891 139.90625 C 226.71691 139.47425 226.76172 138.8903 226.76172 138.1543 C 226.76172 137.4023 226.71319 136.80152 226.61719 136.35352 C 226.52919 135.89752 226.38183 135.56542 226.17383 135.35742 C 225.96583 135.14942 225.6897 135.04492 225.3457 135.04492 z M 237.86133 135.04492 C 237.35733 135.04492 236.99725 135.28562 236.78125 135.76562 C 236.56525 136.24563 236.45703 137.0423 236.45703 138.1543 C 236.45703 138.8823 236.49989 139.46625 236.58789 139.90625 C 236.68389 140.33825 236.8332 140.65352 237.0332 140.85352 C 237.2412 141.05352 237.52105 141.1543 237.87305 141.1543 C 238.22505 141.1543 238.50117 141.05352 238.70117 140.85352 C 238.90917 140.65352 239.05653 140.33825 239.14453 139.90625 C 239.23253 139.47425 239.27734 138.8903 239.27734 138.1543 C 239.27734 137.4023 239.22881 136.80152 239.13281 136.35352 C 239.04481 135.89752 238.89745 135.56542 238.68945 135.35742 C 238.48145 135.14942 238.20533 135.04492 237.86133 135.04492 z M 112.58594 135.11719 L 112.58594 137.76953 L 114.18164 137.76953 C 114.64564 137.76953 115.01316 137.64448 115.28516 137.39648 C 115.56516 137.14848 115.70508 136.82578 115.70508 136.42578 C 115.70508 136.02578 115.57259 135.70856 115.30859 135.47656 C 115.05259 135.23656 114.7205 135.11719 114.3125 135.11719 L 112.58594 135.11719 z M 97.023438 135.12891 L 97.023438 138.00977 L 98.642578 138.00977 C 99.074578 138.00977 99.430938 137.86984 99.710938 137.58984 C 99.998937 137.30984 100.14258 136.9572 100.14258 136.5332 C 100.14258 136.1092 99.998937 135.76967 99.710938 135.51367 C 99.422938 135.25767 99.059141 135.12891 98.619141 135.12891 L 97.023438 135.12891 z M 58.527344 135.20117 L 58.527344 141.04492 L 59.332031 141.04492 C 60.140031 141.04492 60.787391 140.80989 61.275391 140.33789 C 61.771391 139.85789 62.019531 139.10231 62.019531 138.07031 C 62.019531 137.08631 61.786266 136.36048 61.322266 135.89648 C 60.866266 135.43248 60.211469 135.20117 59.355469 135.20117 L 58.527344 135.20117 z M 190.71484 135.20117 L 190.71484 141.04492 L 191.51953 141.04492 C 192.32753 141.04492 192.97489 140.80989 193.46289 140.33789 C 193.95889 139.85789 194.20703 139.10231 194.20703 138.07031 C 194.20703 137.08631 193.97377 136.36048 193.50977 135.89648 C 193.05377 135.43248 192.39897 135.20117 191.54297 135.20117 L 190.71484 135.20117 z M 68.091797 135.47656 L 66.927734 138.92188 L 69.244141 138.92188 L 68.091797 135.47656 z M 89.982422 135.47656 L 88.818359 138.92188 L 91.134766 138.92188 L 89.982422 135.47656 z M 161.79492 135.47656 L 160.63086 138.92188 L 162.94727 138.92188 L 161.79492 135.47656 z M 180.9668 135.47656 L 179.80273 138.92188 L 182.11914 138.92188 L 180.9668 135.47656 z M 200.2793 135.47656 L 199.11523 138.92188 L 201.43164 138.92188 L 200.2793 135.47656 z M 305 213.2832 C 355.6607 213.2832 396.74023 254.32207 396.74023 304.98047 C 396.74023 355.63888 355.6607 396.7168 305 396.7168 C 254.3393 396.7168 213.25977 355.63888 213.25977 304.98047 C 213.25977 254.32207 254.3393 213.2832 305 213.2832 z M 417.37109 325.64844 C 424.97019 325.64844 431.12305 331.80163 431.12305 339.40039 C 431.12305 346.99914 424.97019 353.1543 417.37109 353.1543 C 409.77199 353.1543 403.61719 346.99914 403.61719 339.40039 C 403.61719 331.80163 409.77199 325.64844 417.37109 325.64844 z M 305 435.70898 C 321.51586 435.70898 334.8125 449.00442 334.8125 465.51953 L 334.8125 566.39648 C 334.8125 582.91158 321.51586 596.20703 305 596.20703 C 288.48413 596.20703 275.1875 582.91158 275.1875 566.39648 L 275.1875 465.51953 C 275.1875 449.00442 288.48413 435.70898 305 435.70898 z "
       transform="translate(0,442.36087)"
       id="rect2985" />
    <g
       id="g1318"
       transform="translate(1841.9101,587.52904)" />
    <g
       id="g1320"
       transform="translate(1841.9101,587.52904)" />
    <g
       id="g1322"
       transform="translate(1841.9101,587.52904)" />
    <g
       id="g1324"
       transform="translate(1841.9101,587.52904)" />
    <g
       id="g1326"
       transform="translate(1841.9101,587.52904)" />
    <g
       id="g1328"
       transform="translate(1841.9101,587.52904)" />
    <g
       id="g1330"
       transform="translate(1841.9101,587.52904)" />
    <g
       id="g1332"
       transform="translate(1841.9101,587.52904)" />
    <g
       id="g1334"
       transform="translate(1841.9101,587.52904)" />
    <g
       id="g1336"
       transform="translate(1841.9101,587.52904)" />
    <g
       id="g1338"
       transform="translate(1841.9101,587.52904)" />
    <g
       id="g1340"
       transform="translate(1841.9101,587.52904)" />
    <g
       id="g1342"
       transform="translate(1841.9101,587.52904)" />
    <g
       id="g1344"
       transform="translate(1841.9101,587.52904)" />
    <g
       id="g1346"
       transform="translate(1841.9101,587.52904)" />
    <path
       inkscape:connector-curvature="0"
       style="opacity:1;fill:#ffffff;fill-opacity:1;stroke:none;stroke-width:2.65960813;stroke-linecap:round;stroke-linejoin:round;stroke-miterlimit:4;stroke-dasharray:none;stroke-opacity:1"
       d="m 551.78506,495.81142 -75.408,0.002 c -21.3053,1.37746 -17.26087,13.82499 -54.8417,17.13859 H 78.774536 a 34.275944,27.420754 0 0 0 -3.421901,0.1388 34.275944,27.420754 0 0 0 -3.386714,0.40626 34.275944,27.420754 0 0 0 -3.318343,0.67967 34.275944,27.420754 0 0 0 -3.220662,0.93947 34.275944,27.420754 0 0 0 -3.085953,1.19336 34.275944,27.420754 0 0 0 -2.917964,1.43166 34.275944,27.420754 0 0 0 -2.728508,1.65817 34.275944,27.420754 0 0 0 -2.507803,1.87109 34.275944,27.420754 0 0 0 -2.259757,2.05662 34.275944,27.420754 0 0 0 -1.994118,2.22854 34.275944,27.420754 0 0 0 -0.839851,1.10546 34.275944,27.420754 0 0 0 -1.562491,2.4414 34.275944,27.420754 0 0 0 -1.250012,2.55077 34.275944,27.420754 0 0 0 -0.929688,2.63867 34.275944,27.420754 0 0 0 -0.591773,2.69923 34.275944,27.420754 0 0 0 -0.249854,2.73435 34.275944,27.420754 0 0 0 0.092,2.73829 34.275944,27.420754 0 0 0 0.431659,2.72066 34.275944,27.420754 0 0 0 0.769511,2.67192 34.275944,27.420754 0 0 0 1.097646,2.59567 34.275944,27.420754 0 0 0 1.416033,2.49412 34.275944,27.420754 0 0 0 0.777323,1.1387 34.275944,27.420754 0 0 0 1.859377,2.30076 34.275944,27.420754 0 0 0 2.136703,2.14061 34.275944,27.420754 0 0 0 2.39453,1.9629 34.275944,27.420754 0 0 0 2.624982,1.75976 34.275944,27.420754 0 0 0 2.834002,1.54102 34.275944,27.420754 0 0 0 3.009738,1.30857 34.275944,27.420754 0 0 0 3.160167,1.05862 34.275944,27.420754 0 0 0 3.277347,0.8047 34.275944,27.420754 0 0 0 3.35934,0.53315 34.275944,27.420754 0 0 0 3.41015,0.2676 34.275944,27.420754 0 0 0 1.615238,0.0291 h 342.76083 c 37.58083,3.31366 33.53639,15.76113 54.8417,17.13865 h 75.40609 a 13.710376,10.282783 0 0 0 0.64839,-0.0161 13.710376,10.282783 0 0 0 1.36328,-0.0975 13.710376,10.282783 0 0 0 1.34182,-0.20305 13.710376,10.282783 0 0 0 1.31054,-0.30085 13.710376,10.282783 0 0 0 1.26561,-0.39648 13.710376,10.282783 0 0 0 1.20507,-0.48828 13.710376,10.282783 0 0 0 1.13283,-0.57815 13.710376,10.282783 0 0 0 1.05272,-0.66208 13.710376,10.282783 0 0 0 0.95506,-0.73436 13.710376,10.282783 0 0 0 0.8555,-0.80279 13.710376,10.282783 0 0 0 0.74214,-0.86519 13.710376,10.282783 0 0 0 0.31248,-0.42582 13.710376,10.282783 0 0 0 0.5664,-0.93356 13.710376,10.282783 0 0 0 0.43944,-0.97459 13.710376,10.282783 0 0 0 0.30893,-1.00197 13.710376,10.282783 0 0 0 0.17012,-1.02146 13.710376,10.282783 0 0 0 0.0432,-1.02737 13.710376,10.282783 0 0 0 -0.10362,-1.0234 13.710376,10.282783 0 0 0 -0.23629,-1.01368 13.710376,10.282783 0 0 0 -0.36923,-0.98832 13.710376,10.282783 0 0 0 -0.5,-0.95502 13.710376,10.282783 0 0 0 -0.62696,-0.91407 13.710376,10.282783 0 0 0 -0.33601,-0.41604 13.710376,10.282783 0 0 0 -0.79685,-0.83594 13.710376,10.282783 0 0 0 -0.90429,-0.77148 13.710376,10.282783 0 0 0 -1.00196,-0.70117 13.710376,10.282783 0 0 0 -1.09177,-0.62302 13.710376,10.282783 0 0 0 -1.16799,-0.53519 13.710376,10.282783 0 0 0 -1.23239,-0.45116 13.710376,10.282783 0 0 0 -1.29107,-0.3496 13.710376,10.282783 0 0 0 -1.32807,-0.25598 13.710376,10.282783 0 0 0 -1.35353,-0.15237 13.710376,10.282783 0 0 0 -1.3711,-0.0526 h -75.40799 a 6.8551885,6.8551888 0 0 1 -5.93752,-3.42968 6.8551885,6.8551888 0 0 1 0,-6.85348 6.8551885,6.8551888 0 0 1 5.93752,-3.42968 v 0.006 h 75.40602 a 13.710376,10.282783 0 0 0 0.64846,-0.0161 13.710376,10.282783 0 0 0 1.36328,-0.0994 13.710376,10.282783 0 0 0 1.34179,-0.20111 13.710376,10.282783 0 0 0 1.31057,-0.30086 13.710376,10.282783 0 0 0 1.2656,-0.39647 13.710376,10.282783 0 0 0 1.20508,-0.49025 13.710376,10.282783 0 0 0 1.13277,-0.57615 13.710376,10.282783 0 0 0 1.05277,-0.66412 13.710376,10.282783 0 0 0 0.95507,-0.73238 13.710376,10.282783 0 0 0 0.85547,-0.8047 13.710376,10.282783 0 0 0 0.74217,-0.86329 13.710376,10.282783 0 0 0 0.31248,-0.42575 13.710376,10.282783 0 0 0 0.56643,-0.93553 13.710376,10.282783 0 0 0 0.43944,-0.97463 13.710376,10.282783 0 0 0 0.30893,-1.00196 13.710376,10.282783 0 0 0 0.17012,-1.01953 13.710376,10.282783 0 0 0 0.0432,-1.02734 13.710376,10.282783 0 0 0 -0.10362,-1.02343 13.710376,10.282783 0 0 0 -0.23629,-1.01365 13.710376,10.282783 0 0 0 -0.36926,-0.98831 13.710376,10.282783 0 0 0 -0.50003,-0.95703 13.710376,10.282783 0 0 0 -0.62696,-0.91407 13.710376,10.282783 0 0 0 -0.33601,-0.41403 13.710376,10.282783 0 0 0 -0.79686,-0.83598 13.710376,10.282783 0 0 0 -0.90428,-0.77338 13.710376,10.282783 0 0 0 -1.00197,-0.70118 13.710376,10.282783 0 0 0 -1.0918,-0.62305 13.710376,10.282783 0 0 0 -1.16795,-0.53515 13.710376,10.282783 0 0 0 -1.23245,-0.44922 13.710376,10.282783 0 0 0 -1.29101,-0.35151 13.710376,10.282783 0 0 0 -1.3281,-0.25405 13.710376,10.282783 0 0 0 -1.35354,-0.15236 13.710376,10.282783 0 0 0 -1.37106,-0.0568 l -75.40806,0.003 a 6.8551885,6.8551888 0 0 1 -5.93745,-3.42577 6.8551885,6.8551888 0 0 1 0,-6.85549 6.8551885,6.8551888 0 0 1 5.93745,-3.42965 h 75.40609 a 13.710376,10.282783 0 0 0 0.64842,-0.0161 13.710376,10.282783 0 0 0 1.36332,-0.0997 13.710376,10.282783 0 0 0 1.34175,-0.20111 13.710376,10.282783 0 0 0 1.31054,-0.30085 13.710376,10.282783 0 0 0 1.26567,-0.39841 13.710376,10.282783 0 0 0 1.20505,-0.48832 13.710376,10.282783 0 0 0 1.1328,-0.57811 13.710376,10.282783 0 0 0 1.05274,-0.66212 13.710376,10.282783 0 0 0 0.95509,-0.73242 13.710376,10.282783 0 0 0 0.85351,-0.80466 13.710376,10.282783 0 0 0 0.74414,-0.86329 13.710376,10.282783 0 0 0 0.31248,-0.42578 13.710376,10.282783 0 0 0 0.5664,-0.93557 13.710376,10.282783 0 0 0 0.43947,-0.97459 13.710376,10.282783 0 0 0 0.30828,-1.00193 13.710376,10.282783 0 0 0 0.17012,-1.01956 13.710376,10.282783 0 0 0 0.0429,-1.02731 13.710376,10.282783 0 0 0 -0.10362,-1.0254 13.710376,10.282783 0 0 0 -0.23629,-1.01175 13.710376,10.282783 0 0 0 -0.36927,-0.98824 13.710376,10.282783 0 0 0 -0.49999,-0.95707 13.710376,10.282783 0 0 0 -0.62696,-0.91403 13.710376,10.282783 0 0 0 -0.33598,-0.4141 13.710376,10.282783 0 0 0 -0.79689,-0.83591 13.710376,10.282783 0 0 0 -0.90428,-0.77342 13.710376,10.282783 0 0 0 -1.00197,-0.7012 13.710376,10.282783 0 0 0 -1.09177,-0.62305 13.710376,10.282783 0 0 0 -1.16798,-0.53512 13.710376,10.282783 0 0 0 -1.23242,-0.44923 13.710376,10.282783 0 0 0 -1.29101,-0.35147 13.710376,10.282783 0 0 0 -1.32813,-0.25405 13.710376,10.282783 0 0 0 -1.35354,-0.15237 13.710376,10.282783 0 0 0 -1.3711,-0.0549 z m -417.74895,32.46279 c 2.01894,0 3.81001,0.41333 5.37302,1.23827 1.56307,0.80324 2.76666,1.86715 3.61329,3.19141 0.84667,1.30253 1.28104,2.70323 1.30273,4.20116 h -6.60935 c -0.21692,-1.0203 -0.65149,-1.83552 -1.30272,-2.44337 -0.62958,-0.62957 -1.47727,-0.94334 -2.54102,-0.94334 -1.30253,0 -2.37603,0.53192 -3.22263,1.59567 -0.82497,1.06375 -1.2383,2.77825 -1.2383,5.14454 0,2.58337 0.45539,4.35143 1.36716,5.30662 0.9335,0.93346 2.05294,1.40041 3.35547,1.40041 0.84666,0 1.58334,-0.21629 2.21292,-0.6504 0.62954,-0.45587 1.03137,-0.97637 1.20504,-1.56249 l 0.29279,-0.84766 h -4.10154 v -4.2656 l 10.77732,0.0642 v 12.43943 h -4.16795 v -2.60545 c -0.56443,0.58612 -1.10791,1.07602 -1.62889,1.46678 -0.49932,0.39076 -1.17095,0.7371 -2.01758,1.04099 -0.84667,0.28246 -1.86658,0.42385 -3.06055,0.42385 -2.21431,0 -4.16995,-0.49942 -5.86327,-1.49806 -1.67157,-1.0203 -2.97275,-2.44205 -3.90621,-4.26559 -0.91181,-1.82355 -1.36723,-3.90737 -1.36723,-6.25193 0,-2.40971 0.48796,-4.53753 1.46488,-6.38283 0.97688,-1.84527 2.33355,-3.26702 4.07029,-4.2656 1.75844,-1.0203 3.75614,-1.53127 5.99214,-1.53127 z m 131.68131,0 c 2.25776,0 4.244,0.49942 5.95899,1.49803 1.71501,0.99861 3.03914,2.42035 3.97267,4.26563 0.95519,1.82354 1.43356,3.95137 1.43356,6.38279 0,2.4097 -0.46687,4.52604 -1.40037,6.34958 -0.93347,1.82358 -2.25763,3.23577 -3.97261,4.23438 -1.71505,0.97688 -3.71276,1.46484 -5.99224,1.46484 -2.3011,0 -4.31989,-0.48796 -6.0566,-1.46484 -1.71501,-0.99861 -3.03917,-2.39931 -3.97264,-4.20116 -0.9335,-1.82358 -1.40038,-3.9514 -1.40038,-6.3828 0,-2.43142 0.46688,-4.55925 1.40038,-6.38279 0.95519,-1.84528 2.29084,-3.26702 4.00583,-4.26563 1.73674,-0.99861 3.744,-1.49803 6.02341,-1.49803 z m -198.329571,0.0339 c 1.866964,0 3.548926,0.34621 5.046855,1.04102 1.519621,0.67296 2.72515,1.58574 3.61523,2.73629 0.911773,1.1289 1.44176,2.34395 1.593738,3.64648 h -6.414078 c -0.08684,-0.89005 -0.444604,-1.52914 -1.07421,-1.9199 -0.607816,-0.41246 -1.488083,-0.61912 -2.638637,-0.61912 -1.128862,0 -1.953573,0.18368 -2.474587,0.55271 -0.49932,0.36927 -0.748076,0.80344 -0.748076,1.30273 0,0.56443 0.183678,1.01029 0.552745,1.33594 0.368873,0.30377 1.042607,0.54313 2.019523,0.7168 l 3.679695,0.61718 c 2.995826,0.52101 4.949528,1.51032 5.861301,2.96483 0.933465,1.43279 1.400408,3.02672 1.400408,4.78516 0,1.32422 -0.455451,2.51829 -1.367224,3.58204 -0.89008,1.06372 -2.128115,1.89996 -3.71288,2.50777 -1.563007,0.60785 -3.310079,0.9121 -5.242153,0.9121 -1.736743,0 -3.39769,-0.2718 -4.982422,-0.81445 -1.563039,-0.54273 -2.866153,-1.36741 -3.908179,-2.47458 -1.042059,-1.12886 -1.627569,-2.52956 -1.757822,-4.20116 h 6.578097 c 0.173994,0.82493 0.606105,1.47749 1.300822,1.95506 0.716344,0.4559 1.62915,0.68361 2.736287,0.68361 1.128862,0 2.05119,-0.1627 2.767599,-0.48828 0.738102,-0.34735 1.107395,-0.90229 1.107395,-1.66211 0,-0.62958 -0.325423,-1.07347 -0.97656,-1.33398 -0.651267,-0.28245 -1.638641,-0.53292 -2.962867,-0.75001 l -3.679663,-0.61718 c -1.910413,-0.30376 -3.420222,-1.05406 -4.527358,-2.24804 -1.107169,-1.21573 -1.66014,-2.8116 -1.66014,-4.78712 0,-1.51962 0.434339,-2.83229 1.302726,-3.93943 0.89008,-1.12886 2.084085,-1.98611 3.581981,-2.57227 1.497961,-0.60784 3.158908,-0.91209 4.982454,-0.91209 z m 13.988233,0.29279 h 9.314417 c 1.758468,0 3.331352,0.31603 4.720688,0.94531 1.411094,0.62957 2.519037,1.55187 3.322282,2.76757 0.803212,1.19403 1.205045,2.61578 1.205045,4.26562 0,2.32287 -0.759634,4.14645 -2.279255,5.47067 -1.497961,1.32429 -3.551185,1.98634 -6.156251,1.98634 h -3.777313 v 8.1074 h -6.349613 z m 25.337828,0 h 6.48045 l 8.33592,23.54291 h -6.25193 l -1.56446,-4.55857 h -7.42379 l -1.59574,4.55857 h -6.316368 z m 42.14247,0 h 6.34958 v 8.92185 h 7.13285 v -8.92182 h 6.34958 v 23.54288 h -6.34958 v -9.44331 h -7.13285 v 9.44331 h -6.34958 z m 24.29487,0 h 17.39057 l -0.0339,5.24218 h -10.97458 v 3.90821 h 9.18358 v 5.11323 h -9.21486 v 4.00392 h 11.0703 v 5.27537 h -17.42185 z m 19.70895,0 h 19.76557 v 5.56835 h -6.74024 v 17.97456 h -6.34958 v -17.97456 h -6.67575 z m 22.45111,0 h 19.76557 v 5.56835 h -6.74021 v 17.97456 h -6.34958 v -17.97456 h -6.67578 z m 22.52336,0 h 6.34964 v 23.54291 h -6.34964 z m 42.92961,0 h 9.31248 c 1.75843,0 3.33328,0.31603 4.72265,0.94531 1.41106,0.62957 2.51707,1.55187 3.32028,2.76757 0.80325,1.19403 1.20508,2.61578 1.20508,4.26562 0,2.32287 -0.7597,4.14645 -2.27929,5.47067 -1.49789,1.32429 -3.54918,1.98634 -6.15425,1.98634 h -3.77737 v 8.1074 h -6.34958 z m 21.81443,0 h 17.38861 l -0.0291,5.24218 h -10.97459 v 3.90821 h 9.18359 v 5.11323 h -9.21677 v 4.00392 h 11.07221 v 5.27537 h -17.42182 z m 21.43353,0 h 6.38279 l 9.18359,13.12301 v -13.12298 h 6.34958 v 23.54288 h -5.73241 l -9.83394,-14.03513 v 14.03513 h -6.34961 z m 26.39447,0 h 3.71288 c 2.49651,0 4.08089,0.0129 4.75388,0.0339 4.10299,0.15204 7.15315,1.25792 9.15036,3.32028 2.01891,2.06236 3.02733,4.84078 3.02733,8.33592 0,2.34456 -0.44389,4.40734 -1.33397,6.1875 -0.89005,1.78013 -2.25824,3.1693 -4.10348,4.16794 -1.82358,0.99861 -4.08149,1.49806 -6.77343,1.49806 h -8.43357 z m 28.51743,0 h 6.48045 l 8.33595,23.54291 h -6.25193 l -1.56446,-4.55857 h -7.42382 l -1.59571,4.55857 h -6.31636 z m 14.40431,0 h 19.76557 v 5.56835 h -6.74025 v 17.97456 h -6.34961 v -17.97456 h -6.67571 z m 25.72645,0 h 6.48048 l 8.33592,23.54291 h -6.25196 l -1.56249,-4.55857 h -7.42383 l -1.5957,4.55857 h -6.31834 z m -331.393702,4.68947 v 6.02341 h 3.646479 c 0.781552,0 1.4436,-0.31377 1.986338,-0.94337 0.542738,-0.62954 0.814446,-1.33562 0.814446,-2.11717 0,-0.80322 -0.292787,-1.49787 -0.878879,-2.08399 -0.564431,-0.58613 -1.205496,-0.87888 -1.921905,-0.87888 z m 199.388222,0 v 6.02341 h 3.64648 c 0.78152,0 1.4436,-0.31377 1.98634,-0.94337 0.54274,-0.62954 0.81445,-1.33562 0.81445,-2.11717 0,-0.80322 -0.29279,-1.49787 -0.87891,-2.08399 -0.56444,-0.58613 -1.20547,-0.87888 -1.92188,-0.87888 z m -21.332,0.0646 c -1.38936,0 -2.49534,0.57599 -3.32028,1.72658 -0.80324,1.12886 -1.20507,2.94094 -1.20507,5.43745 0,2.40973 0.40183,4.15674 1.20507,5.24222 0.80322,1.08544 1.90922,1.62889 3.32028,1.62889 1.3894,0 2.48586,-0.54345 3.28907,-1.62889 0.80328,-1.08548 1.20511,-2.83249 1.20511,-5.24222 0,-2.49651 -0.40183,-4.30859 -1.20511,-5.43745 -0.80321,-1.15059 -1.89967,-1.72658 -3.28907,-1.72658 z m 91.03888,0.22855 v 13.5781 h 2.27928 c 0.86839,0 1.71609,-0.23726 2.54099,-0.71485 0.82497,-0.47763 1.50807,-1.2392 2.0508,-2.28126 0.54271,-1.042 0.81445,-2.36616 0.81445,-3.97265 0,-2.1275 -0.48793,-3.75394 -1.46481,-4.8828 -0.97695,-1.15055 -2.29152,-1.72654 -3.94143,-1.72654 z m -246.78654,1.07421 -2.34372,7.52147 h 4.65619 z m 272.21023,0 -2.34375,7.52147 h 4.65626 z m 40.1327,0 -2.34566,7.52147 h 4.65626 z"
       id="path1485" />
    <g
       style="fill:#ffffff;fill-opacity:1"
       transform="matrix(3.2280861,0,0,3.2280861,44.500364,-181.85793)"
       id="g1493">
      <path
         id="path1487"
         d="m 154.83544,207.65147 a 2.2784601,2.1383707 0 0 0 -1.08562,0.2862 2.2784601,2.1383707 0 0 0 -1.13995,1.85143 v 40.62945 a 2.2784601,2.1383707 0 0 0 1.13995,1.85092 2.2784601,2.1383707 0 0 0 2.27823,0 2.2784601,2.1383707 0 0 0 1.13882,-1.85092 V 209.7891 a 2.2784601,2.1383707 0 0 0 -1.13882,-1.85143 2.2784601,2.1383707 0 0 0 -1.19261,-0.2862 z"
         style="opacity:1;fill:#ffffff;fill-opacity:1;stroke:none;stroke-width:0.32198957;stroke-linecap:round;stroke-linejoin:round;stroke-miterlimit:4;stroke-dasharray:none;stroke-opacity:1"
         inkscape:connector-curvature="0" />
      <path
         style="opacity:1;fill:#ffffff;fill-opacity:1;stroke:none;stroke-width:0.32198957;stroke-linecap:round;stroke-linejoin:round;stroke-miterlimit:4;stroke-dasharray:none;stroke-opacity:1"
         d="m 149.52985,207.65147 a 2.2784601,2.1383707 0 0 0 -1.08574,0.28628 2.2784601,2.1383707 0 0 0 -1.13999,1.85105 v 27.60762 13.02194 27.60762 a 2.2784601,2.1383707 0 0 0 1.13999,1.85053 2.2784601,2.1383707 0 0 0 2.27843,0 2.2784601,2.1383707 0 0 0 1.13892,-1.85053 V 250.41836 237.39642 209.7888 a 2.2784601,2.1383707 0 0 0 -1.13892,-1.85105 2.2784601,2.1383707 0 0 0 -1.19269,-0.28628 z"
         id="path1489"
         inkscape:connector-curvature="0" />
      <path
         inkscape:connector-curvature="0"
         style="opacity:1;fill:#ffffff;fill-opacity:1;stroke:none;stroke-width:0.32198957;stroke-linecap:round;stroke-linejoin:round;stroke-miterlimit:4;stroke-dasharray:none;stroke-opacity:1"
         d="m 144.8396,207.72022 a 2.2784601,2.1383707 15 0 0 -1.1227,-0.005 2.2784601,2.1383707 15 0 0 -1.5803,1.4933 l -10.51567,39.24504 a 2.2784601,2.1383707 15 0 0 0.62205,2.08289 2.2784601,2.1383707 15 0 0 2.2006,0.58965 2.2784601,2.1383707 15 0 0 1.57907,-1.4931 l 10.51568,-39.24504 a 2.2784601,2.1383707 15 0 0 -0.62083,-2.08309 2.2784601,2.1383707 15 0 0 -1.0779,-0.58512 z"
         id="path1491" />
    </g>
  </g>
</svg>
