<?xml version="1.0" encoding="UTF-8" standalone="no"?>
<!-- Created with Inkscape (http://www.inkscape.org/) -->

<svg
   xmlns:dc="http://purl.org/dc/elements/1.1/"
   xmlns:cc="http://creativecommons.org/ns#"
   xmlns:rdf="http://www.w3.org/1999/02/22-rdf-syntax-ns#"
   xmlns:svg="http://www.w3.org/2000/svg"
   xmlns="http://www.w3.org/2000/svg"
   xmlns:sodipodi="http://sodipodi.sourceforge.net/DTD/sodipodi-0.dtd"
   xmlns:inkscape="http://www.inkscape.org/namespaces/inkscape"
   width="831.49603"
   height="831.49603"
   viewBox="0 0 219.99999 220"
   version="1.1"
   id="svg8"
   inkscape:version="0.92.2 5c3e80d, 2017-08-06"
   sodipodi:docname="Spaghetti_open_data_logo2019.svg"
   inkscape:export-filename="/Users/lucacorsato/Documents/lavori/spaghetti open data 2019/svg/Spaghetti_open_data_logo2019.png"
   inkscape:export-xdpi="300"
   inkscape:export-ydpi="300">
  <defs
     id="defs2">
    <linearGradient
       id="linearGradient3874">
      <stop
         id="stop3876"
         offset="0"
         style="stop-color:#0f0f0f;stop-opacity:1;" />
      <stop
         id="stop3878"
         offset="1"
         style="stop-color:#4b4b4b;stop-opacity:1;" />
    </linearGradient>
  </defs>
  <sodipodi:namedview
     id="base"
     pagecolor="#ffffff"
     bordercolor="#666666"
     borderopacity="1.0"
     inkscape:pageopacity="0.0"
     inkscape:pageshadow="2"
     inkscape:zoom="1.1624316"
     inkscape:cx="330.79857"
     inkscape:cy="420.44159"
     inkscape:document-units="mm"
     inkscape:current-layer="layer1"
     showgrid="true"
     inkscape:snap-bbox="true"
     inkscape:bbox-paths="true"
     inkscape:bbox-nodes="true"
     inkscape:snap-bbox-edge-midpoints="true"
     inkscape:snap-bbox-midpoints="true"
     inkscape:object-paths="true"
     inkscape:snap-intersection-paths="true"
     inkscape:snap-smooth-nodes="true"
     inkscape:snap-midpoints="true"
     inkscape:snap-object-midpoints="true"
     inkscape:snap-center="true"
     inkscape:snap-text-baseline="true"
     inkscape:snap-page="true"
     inkscape:snap-grids="false"
     inkscape:snap-to-guides="false"
     inkscape:window-width="1807"
     inkscape:window-height="1073"
     inkscape:window-x="61"
     inkscape:window-y="74"
     inkscape:window-maximized="0"
     inkscape:snap-global="true"
     units="px"
     fit-margin-top="0"
     fit-margin-left="0"
     fit-margin-right="0"
     fit-margin-bottom="0" />
  <metadata
     id="metadata5">
    <rdf:RDF>
      <cc:Work
         rdf:about="">
        <dc:format>image/svg+xml</dc:format>
        <dc:type
           rdf:resource="http://purl.org/dc/dcmitype/StillImage" />
        <dc:title></dc:title>
      </cc:Work>
    </rdf:RDF>
  </metadata>
  <g
     inkscape:label="Livello 1"
     inkscape:groupmode="layer"
     id="layer1"
     transform="translate(25.000427,-39.015244)">
    <circle
       style="opacity:1;fill:#f9f9f9;fill-opacity:1;stroke:none;stroke-width:3.83276796;stroke-linecap:round;stroke-linejoin:round;stroke-miterlimit:4;stroke-dasharray:none;stroke-opacity:1"
       id="path885"
       cx="84.999573"
       cy="149.01524"
       r="110" />
    <g
       id="g1318"
       transform="matrix(0.26458333,0,0,0.26458333,292.14197,258.23688)" />
    <g
       id="g1320"
       transform="matrix(0.26458333,0,0,0.26458333,292.14197,258.23688)" />
    <g
       id="g1322"
       transform="matrix(0.26458333,0,0,0.26458333,292.14197,258.23688)" />
    <g
       id="g1324"
       transform="matrix(0.26458333,0,0,0.26458333,292.14197,258.23688)" />
    <g
       id="g1326"
       transform="matrix(0.26458333,0,0,0.26458333,292.14197,258.23688)" />
    <g
       id="g1328"
       transform="matrix(0.26458333,0,0,0.26458333,292.14197,258.23688)" />
    <g
       id="g1330"
       transform="matrix(0.26458333,0,0,0.26458333,292.14197,258.23688)" />
    <g
       id="g1332"
       transform="matrix(0.26458333,0,0,0.26458333,292.14197,258.23688)" />
    <g
       id="g1334"
       transform="matrix(0.26458333,0,0,0.26458333,292.14197,258.23688)" />
    <g
       id="g1336"
       transform="matrix(0.26458333,0,0,0.26458333,292.14197,258.23688)" />
    <g
       id="g1338"
       transform="matrix(0.26458333,0,0,0.26458333,292.14197,258.23688)" />
    <g
       id="g1340"
       transform="matrix(0.26458333,0,0,0.26458333,292.14197,258.23688)" />
    <g
       id="g1342"
       transform="matrix(0.26458333,0,0,0.26458333,292.14197,258.23688)" />
    <g
       id="g1344"
       transform="matrix(0.26458333,0,0,0.26458333,292.14197,258.23688)" />
    <g
       id="g1346"
       transform="matrix(0.26458333,0,0,0.26458333,292.14197,258.23688)" />
    <g
       id="g1464"
       transform="matrix(1.2391868,0,0,1.2391868,-16.587399,-0.95069948)">
      <path
         inkscape:connector-curvature="0"
         style="opacity:1;fill:#009246;fill-opacity:1;stroke:none;stroke-width:0.82389629;stroke-linecap:round;stroke-linejoin:round;stroke-miterlimit:4;stroke-dasharray:none;stroke-opacity:1"
         d="m 157.14733,96.006973 -5.2e-4,0.003 v 6.370157 a 4.2472152,3.1854116 0 0 0 0.20102,-0.005 4.2472152,3.1854116 0 0 0 0.4222,-0.031 4.2472152,3.1854116 0 0 0 0.41548,-0.062 4.2472152,3.1854116 0 0 0 0.40617,-0.0935 4.2472152,3.1854116 0 0 0 0.39223,-0.12299 4.2472152,3.1854116 0 0 0 0.3731,-0.15141 4.2472152,3.1854116 0 0 0 0.35088,-0.17932 4.2472152,3.1854116 0 0 0 0.32609,-0.20516 4.2472152,3.1854116 0 0 0 0.2961,-0.22685 4.2472152,3.1854116 0 0 0 0.26407,-0.24909 4.2472152,3.1854116 0 0 0 0.23047,-0.26768 4.2472152,3.1854116 0 0 0 0.0971,-0.13177 4.2472152,3.1854116 0 0 0 0.17519,-0.28991 4.2472152,3.1854116 0 0 0 0.13642,-0.30179 4.2472152,3.1854116 0 0 0 0.0956,-0.310577 4.2472152,3.1854116 0 0 0 0.0522,-0.31574 4.2472152,3.1854116 0 0 0 0.0134,-0.31832 4.2472152,3.1854116 0 0 0 -0.032,-0.3173 4.2472152,3.1854116 0 0 0 -0.0734,-0.31367 4.2472152,3.1854116 0 0 0 -0.11421,-0.30593 4.2472152,3.1854116 0 0 0 -0.15503,-0.29662 4.2472152,3.1854116 0 0 0 -0.19378,-0.28319 4.2472152,3.1854116 0 0 0 -0.10439,-0.12816 4.2472152,3.1854116 0 0 0 -0.24702,-0.2589 4.2472152,3.1854116 0 0 0 -0.28008,-0.23977 4.2472152,3.1854116 0 0 0 -0.31006,-0.21704 4.2472152,3.1854116 0 0 0 -0.33848,-0.19327 4.2472152,3.1854116 0 0 0 -0.36173,-0.16537 4.2472152,3.1854116 0 0 0 -0.38189,-0.13952 4.2472152,3.1854116 0 0 0 -0.39998,-0.10853 4.2472152,3.1854116 0 0 0 -0.41134,-0.0791 4.2472152,3.1854116 0 0 0 -0.4191,-0.047 4.2472152,3.1854116 0 0 0 -0.42478,-0.017 z m -10.56318,0.003 a 2.1236077,2.1236074 15 0 1 -0.0698,0.54932 l -1.55959,5.820837 h 2.63911 v -6.369637 a 2.1236077,2.1236075 0 0 1 0,-5.2e-4 z m 5.25704,0 a 2.1236077,2.1236075 0 0 1 0,5.2e-4 v 6.369637 h 1.05834 v -6.370157 z m -18.05419,5.2e-4 c -6.59998,0.42671 -5.34732,4.282747 -16.98914,5.309237 H 10.61726 a 10.618038,8.4944306 0 0 0 -1.05989,0.0429 10.618038,8.4944306 0 0 0 -1.04955,0.12609 10.618038,8.4944306 0 0 0 -1.02784,0.21032 10.618038,8.4944306 0 0 0 -0.99735,0.29094 10.618038,8.4944306 0 0 0 -0.95602,0.37 10.618038,8.4944306 0 0 0 -0.90434,0.44339 10.618038,8.4944306 0 0 0 -0.84491,0.51366 10.618038,8.4944306 0 0 0 -0.77721,0.57981 10.618038,8.4944306 0 0 0 -0.6997,0.63666 10.618038,8.4944306 0 0 0 -0.61805,0.69039 10.618038,8.4944306 0 0 0 -0.25993,0.34262 10.618038,8.4944306 0 0 0 -0.48421,0.75654 10.618038,8.4944306 0 0 0 -0.38706,0.79013 10.618038,8.4944306 0 0 0 -0.28783,0.81701 10.618038,8.4944306 0 0 0 -0.18345,0.83664 10.618038,8.4944306 0 0 0 -0.0775,0.84698 10.618038,8.4944306 0 0 0 0.0284,0.84801 10.618038,8.4944306 0 0 0 0.13384,0.84284 10.618038,8.4944306 0 0 0 0.23823,0.82785 10.618038,8.4944306 0 0 0 0.34003,0.80409 10.618038,8.4944306 0 0 0 0.43874,0.77256 10.618038,8.4944306 0 0 0 0.24081,0.35295 10.618038,8.4944306 0 0 0 0.57619,0.71262 10.618038,8.4944306 0 0 0 0.66198,0.66301 10.618038,8.4944306 0 0 0 0.74155,0.60823 10.618038,8.4944306 0 0 0 0.81339,0.54519 10.618038,8.4944306 0 0 0 0.87798,0.47697 10.618038,8.4944306 0 0 0 0.93225,0.40566 10.618038,8.4944306 0 0 0 0.97875,0.32763 10.618038,8.4944306 0 0 0 1.01544,0.2496 10.618038,8.4944306 0 0 0 1.04076,0.16484 10.618038,8.4944306 0 0 0 1.05627,0.0832 10.618038,8.4944306 0 0 0 0.50023,0.009 h 106.18111 c 11.64183,1.02651 10.38865,4.8825 16.98863,5.30923 h 1.08055 l 1.70739,-6.3717 h -2.78742 a 2.1236076,2.1236077 0 0 1 -1.83969,-1.06247 2.1236076,2.1236077 0 0 1 0,-2.12286 2.1236076,2.1236077 0 0 1 1.83969,-1.06247 v 0.002 h 3.92482 l 1.70791,-6.37222 h -5.63273 a 2.1236076,2.1236077 0 0 1 -1.83917,-1.06143 2.1236076,2.1236077 0 0 1 0,-2.12338 2.1236076,2.1236077 0 0 1 1.83917,-1.06247 h 6.77064 l 1.70687,-6.369637 z M 27.73611,106.06621 c 0.62543,0 1.1803,0.12789 1.66449,0.38344 0.48422,0.24883 0.85705,0.57834 1.11932,0.98857 0.26228,0.4035 0.39687,0.8377 0.40359,1.30173 h -2.04742 c -0.0672,-0.31607 -0.20185,-0.56876 -0.40359,-0.75706 -0.19503,-0.19503 -0.4575,-0.29197 -0.78704,-0.29197 -0.4035,0 -0.73612,0.16449 -0.99838,0.49402 -0.25556,0.32953 -0.38344,0.86068 -0.38344,1.5937 0,0.80028 0.14078,1.34793 0.42323,1.64383 0.28918,0.28917 0.63623,0.43408 1.03973,0.43408 0.26228,0 0.4902,-0.0671 0.68523,-0.20154 0.19502,-0.14121 0.31982,-0.30263 0.37362,-0.4842 l 0.0904,-0.26252 h -1.27021 v -1.32137 l 3.3383,0.0202 v 3.85351 h -1.29088 v -0.80719 c -0.17485,0.18157 -0.34348,0.33319 -0.50487,0.45424 -0.15468,0.12105 -0.3625,0.22832 -0.62477,0.32246 -0.26228,0.0875 -0.57839,0.13126 -0.94826,0.13126 -0.68595,0 -1.29187,-0.1547 -1.81643,-0.46406 -0.51782,-0.31607 -0.92058,-0.75646 -1.20975,-1.32136 -0.28246,-0.5649 -0.42374,-1.21054 -0.42374,-1.93684 0,-0.74648 0.15109,-1.4055 0.45372,-1.97714 0.30262,-0.57163 0.72289,-1.01202 1.2609,-1.32136 0.54473,-0.31607 1.16355,-0.47439 1.85622,-0.47439 z m 40.79234,0 c 0.69941,0 1.314611,0.1547 1.845881,0.46405 0.531281,0.30935 0.941742,0.74974 1.230935,1.32137 0.295899,0.5649 0.443899,1.22393 0.443899,1.97714 0,0.74648 -0.144386,1.40243 -0.433565,1.96732 -0.289171,0.56491 -0.699664,1.0022 -1.230934,1.31155 -0.531289,0.30262 -1.150078,0.45372 -1.856216,0.45372 -0.712841,0 -1.337855,-0.1511 -1.875854,-0.45372 -0.53128,-0.30935 -0.941763,-0.74303 -1.230934,-1.30121 -0.289179,-0.56491 -0.433565,-1.22446 -0.433565,-1.97766 0,-0.75321 0.144386,-1.41224 0.433565,-1.97714 0.2959,-0.57163 0.709488,-1.01202 1.24075,-1.32137 0.538012,-0.30935 1.159918,-0.46405 1.866038,-0.46405 z m -61.43863,0.0103 c 0.57835,0 1.09919,0.10722 1.56322,0.32247 0.47075,0.20847 0.84461,0.49159 1.12034,0.84801 0.28245,0.3497 0.44643,0.72614 0.49351,1.12964 H 8.27993 c -0.0269,-0.27572 -0.13775,-0.47374 -0.33279,-0.59479 -0.18829,-0.12777 -0.46111,-0.19172 -0.81753,-0.19172 -0.3497,0 -0.60496,0.0567 -0.76636,0.17104 -0.15468,0.1144 -0.23202,0.24893 -0.23202,0.4036 0,0.17485 0.0572,0.31305 0.17156,0.41393 0.11427,0.0941 0.32266,0.16789 0.62529,0.22169 l 1.13998,0.1912 c 0.92805,0.1614 1.53346,0.46823 1.81591,0.91881 0.28917,0.44385 0.43356,0.93735 0.43356,1.48208 0,0.41022 -0.14078,0.78048 -0.42323,1.11001 -0.27573,0.32952 -0.65938,0.58841 -1.15031,0.77669 -0.48419,0.1883 -1.02516,0.28267 -1.62368,0.28267 -0.53801,0 -1.05265,-0.0846 -1.54357,-0.25269 -0.4842,-0.16813 -0.88798,-0.42339 -1.21078,-0.76636 -0.32281,-0.3497 -0.50432,-0.78339 -0.54467,-1.30122 h 2.03812 c 0.0539,0.25555 0.18735,0.45771 0.40256,0.60565 0.22191,0.14123 0.50504,0.21136 0.84801,0.21136 0.3497,0 0.63538,-0.05 0.85731,-0.1509 0.22865,-0.1076 0.34313,-0.27983 0.34313,-0.51521 0,-0.19503 -0.10111,-0.3322 -0.30282,-0.4129 -0.20175,-0.0875 -0.50756,-0.16529 -0.91778,-0.23254 l -1.13998,-0.1912 c -0.59181,-0.0941 -1.05953,-0.32673 -1.4025,-0.6966 -0.34298,-0.37661 -0.51418,-0.87062 -0.51418,-1.4826 0,-0.47075 0.13459,-0.87763 0.4036,-1.22059 0.27573,-0.34971 0.64547,-0.61528 1.10949,-0.79686 0.46404,-0.1883 0.97867,-0.28267 1.54357,-0.28267 z m 4.33307,0.0909 h 2.88561 c 0.54474,0 1.03206,0.0981 1.46245,0.29301 0.43713,0.19503 0.78056,0.48071 1.02939,0.85731 0.24882,0.36989 0.37311,0.81028 0.37311,1.32137 0,0.71958 -0.23515,1.28425 -0.7059,1.69447 -0.46404,0.41024 -1.10038,0.61546 -1.90738,0.61546 h -1.16996 v 2.51148 h -1.96732 z m 7.84965,0 h 2.00711 l 2.58228,7.2931 h -1.93632 l -0.48472,-1.41232 h -2.29961 l -0.49454,1.41232 h -1.95647 z m 13.0545,0 h 1.96732 v 2.76366 h 2.20969 v -2.76366 h 1.9668 v 7.2931 h -1.9668 v -2.9254 h -2.20969 v 2.9254 h -1.96732 z m 7.52616,0 h 5.38727 l -0.0103,1.62368 h -3.39979 v 1.21078 h 2.84478 v 1.58388 h -2.8546 v 1.24075 h 3.42976 v 1.63401 h -5.39708 z m 6.10557,0 h 6.12314 v 1.72496 h -2.08825 v 5.56814 h -1.9668 v -5.56814 h -2.06809 z m 6.95513,0 h 6.122623 v 1.72496 H 56.94879 v 5.56814 h -1.9668 v -5.56814 H 52.9139 Z m 6.977351,0 h 1.966804 v 7.2931 h -1.966804 z m 13.298414,0 h 2.885093 c 0.544732,0 1.03256,0.0981 1.462961,0.29301 0.43712,0.19503 0.779541,0.48071 1.028361,0.85731 0.24883,0.36989 0.373621,0.81028 0.373621,1.32137 0,0.71958 -0.235678,1.28425 -0.706417,1.69447 -0.464021,0.41024 -1.099343,0.61546 -1.906344,0.61546 h -1.169955 v 2.51148 h -1.96732 z m 6.757725,0 h 5.386753 l -0.0088,1.62368 H 81.92555 v 1.21078 h 2.84479 v 1.58388 h -2.855124 v 1.24075 h 3.429764 v 1.63401 h -5.396568 z m 6.639907,0 h 1.977138 l 2.84479,4.06539 v -4.06539 h 1.96732 v 7.2931 h -1.776119 l -3.046325,-4.34806 v 4.34806 h -1.966804 z m 8.176244,0 h 1.150318 c 0.773369,0 1.264298,0.004 1.472777,0.0103 1.271029,0.0471 2.215753,0.39 2.834454,1.02888 0.62543,0.63888 0.93792,1.49954 0.93792,2.58227 0,0.7263 -0.13768,1.36522 -0.41341,1.91668 -0.27572,0.55145 -0.69962,0.98151 -1.271235,1.29087 -0.564912,0.30935 -1.264153,0.46406 -2.098064,0.46406 h -2.61276 z m 8.834599,0 h 2.00711 l 2.58228,7.2931 h -1.93632 l -0.48472,-1.41232 h -2.29961 l -0.49454,1.41232 h -1.95647 z m 4.46175,0 h 6.12314 v 1.72496 h -2.08773 v 5.56814 h -1.96732 v -5.56814 h -2.06809 z m 7.96954,0 h 2.00762 l 2.58228,7.2931 h -1.93632 l -0.48421,-1.41232 h -2.2996 l -0.49454,1.41232 h -1.95751 z m 35.81176,0.45889 v 6.37325 h 1.05834 v -6.37325 z m 5.30562,0 v 6.37325 a 4.2472152,3.1854116 0 0 0 0.20051,-0.005 4.2472152,3.1854116 0 0 0 0.42271,-0.031 4.2472152,3.1854116 0 0 0 0.41548,-0.062 4.2472152,3.1854116 0 0 0 0.40617,-0.0935 4.2472152,3.1854116 0 0 0 0.39171,-0.12247 4.2472152,3.1854116 0 0 0 0.37362,-0.15193 4.2472152,3.1854116 0 0 0 0.35088,-0.17828 4.2472152,3.1854116 0 0 0 0.32609,-0.20619 4.2472152,3.1854116 0 0 0 0.29558,-0.22686 4.2472152,3.1854116 0 0 0 0.2651,-0.24908 4.2472152,3.1854116 0 0 0 0.22996,-0.26768 4.2472152,3.1854116 0 0 0 0.0966,-0.13178 4.2472152,3.1854116 0 0 0 0.1757,-0.2899 4.2472152,3.1854116 0 0 0 0.13591,-0.30179 4.2472152,3.1854116 0 0 0 0.0961,-0.31006 4.2472152,3.1854116 0 0 0 0.0527,-0.31626 4.2472152,3.1854116 0 0 0 0.0134,-0.31781 4.2472152,3.1854116 0 0 0 -0.0326,-0.31729 4.2472152,3.1854116 0 0 0 -0.0729,-0.3142 4.2472152,3.1854116 0 0 0 -0.11472,-0.30592 4.2472152,3.1854116 0 0 0 -0.15451,-0.29662 4.2472152,3.1854116 0 0 0 -0.19431,-0.28319 4.2472152,3.1854116 0 0 0 -0.10438,-0.12816 4.2472152,3.1854116 0 0 0 -0.2465,-0.2589 4.2472152,3.1854116 0 0 0 -0.28009,-0.23978 4.2472152,3.1854116 0 0 0 -0.31057,-0.21704 4.2472152,3.1854116 0 0 0 -0.33848,-0.19327 4.2472152,3.1854116 0 0 0 -0.36174,-0.16536 4.2472152,3.1854116 0 0 0 -0.38137,-0.13953 4.2472152,3.1854116 0 0 0 -0.39998,-0.10852 4.2472152,3.1854116 0 0 0 -0.41186,-0.0791 4.2472152,3.1854116 0 0 0 -0.41909,-0.047 4.2472152,3.1854116 0 0 0 -0.42478,-0.0176 z m -13.32993,5.2e-4 -1.70791,6.37273 h 5.48494 v -6.37273 z m -130.44682,0.99322 v 1.86604 h 1.12965 c 0.24211,0 0.44733,-0.0974 0.61546,-0.29249 0.16813,-0.19503 0.25218,-0.41367 0.25218,-0.65578 0,-0.24882 -0.0908,-0.46387 -0.27233,-0.64544 -0.17485,-0.18157 -0.37338,-0.27233 -0.59531,-0.27233 z m 61.766771,0 v 1.86604 h 1.129647 c 0.242101,0 0.447341,-0.0974 0.615466,-0.29249 0.168132,-0.19503 0.252182,-0.41367 0.252182,-0.65578 0,-0.24882 -0.09077,-0.46387 -0.272336,-0.64544 -0.17485,-0.18157 -0.373382,-0.27233 -0.595312,-0.27233 z m -6.608381,0.0202 c -0.4304,0 -0.772811,0.17842 -1.028361,0.53485 -0.24883,0.3497 -0.373105,0.91077 -0.373105,1.68414 0,0.74649 0.124275,1.28793 0.373105,1.62419 0.248819,0.33625 0.59124,0.50436 1.028361,0.50436 0.430411,0 0.770239,-0.16811 1.019058,-0.50436 0.248841,-0.33626 0.373105,-0.8777 0.373105,-1.62419 0,-0.77337 -0.124264,-1.33444 -0.373105,-1.68414 -0.248819,-0.35643 -0.588647,-0.53485 -1.019058,-0.53485 z m 28.202413,0.0708 v 4.20594 h 0.705898 c 0.269012,0 0.531492,-0.0732 0.787032,-0.22117 0.255561,-0.14796 0.467493,-0.38413 0.635622,-0.70694 0.168119,-0.32278 0.25218,-0.73275 0.25218,-1.23041 0,-0.65906 -0.151099,-1.16287 -0.453718,-1.51257 -0.302641,-0.35642 -0.710005,-0.53485 -1.221116,-0.53485 z m -76.450113,0.33279 -0.72605,2.33009 h 1.4428 z m 84.3256,0 -0.72605,2.33009 h 1.4428 z m 12.43232,0 -0.72657,2.33009 h 1.4428 z m 23.9329,9.20151 -1.70739,6.3717 h 8.32973 v -6.3717 z m 10.86962,0 v 6.3717 h 1.05834 v -6.3717 z m 5.30562,0 v 6.3717 a 4.2472152,3.1854116 0 0 0 0.20051,-0.005 4.2472152,3.1854116 0 0 0 0.42219,-0.0305 4.2472152,3.1854116 0 0 0 0.416,-0.0631 4.2472152,3.1854116 0 0 0 0.40566,-0.093 4.2472152,3.1854116 0 0 0 0.39222,-0.12299 4.2472152,3.1854116 0 0 0 0.37311,-0.15089 4.2472152,3.1854116 0 0 0 0.35088,-0.17932 4.2472152,3.1854116 0 0 0 0.3266,-0.20516 4.2472152,3.1854116 0 0 0 0.29558,-0.22737 4.2472152,3.1854116 0 0 0 0.2651,-0.24857 4.2472152,3.1854116 0 0 0 0.22996,-0.2682 4.2472152,3.1854116 0 0 0 0.0966,-0.13177 4.2472152,3.1854116 0 0 0 0.1757,-0.28939 4.2472152,3.1854116 0 0 0 0.13591,-0.30179 4.2472152,3.1854116 0 0 0 0.0956,-0.31058 4.2472152,3.1854116 0 0 0 0.0527,-0.31625 4.2472152,3.1854116 0 0 0 0.0134,-0.31833 4.2472152,3.1854116 0 0 0 -0.032,-0.31678 4.2472152,3.1854116 0 0 0 -0.0734,-0.31419 4.2472152,3.1854116 0 0 0 -0.11421,-0.30593 4.2472152,3.1854116 0 0 0 -0.15503,-0.2961 4.2472152,3.1854116 0 0 0 -0.1943,-0.28319 4.2472152,3.1854116 0 0 0 -0.10387,-0.12867 4.2472152,3.1854116 0 0 0 -0.24702,-0.2589 4.2472152,3.1854116 0 0 0 -0.28008,-0.23926 4.2472152,3.1854116 0 0 0 -0.31006,-0.21704 4.2472152,3.1854116 0 0 0 -0.33848,-0.19328 4.2472152,3.1854116 0 0 0 -0.36174,-0.16588 4.2472152,3.1854116 0 0 0 -0.38188,-0.13952 4.2472152,3.1854116 0 0 0 -0.39998,-0.10852 4.2472152,3.1854116 0 0 0 -0.41135,-0.0791 4.2472152,3.1854116 0 0 0 -0.41909,-0.047 4.2472152,3.1854116 0 0 0 -0.42478,-0.0165 z"
         id="path1292" />
      <g
         style="fill:#ff0000;fill-opacity:1"
         transform="translate(-118.91327)"
         id="g1400">
        <path
           inkscape:connector-curvature="0"
           style="opacity:1;fill:#ff0000;fill-opacity:1;stroke:none;stroke-width:1.21696842;stroke-linecap:round;stroke-linejoin:round;stroke-miterlimit:4;stroke-dasharray:none;stroke-opacity:1"
           d="m 1034.6406,-158.25781 a 8.6115027,8.082031 0 0 0 -4.1035,1.08203 8.6115027,8.082031 0 0 0 -4.3086,6.99805 V 3.3828125 a 8.6115027,8.082031 0 0 0 4.3086,6.9941405 8.6115027,8.082031 0 0 0 8.6113,0 8.6115027,8.082031 0 0 0 4.3047,-6.9941405 V -150.17773 a 8.6115027,8.082031 0 0 0 -4.3047,-6.99805 8.6115027,8.082031 0 0 0 -4.5078,-1.08203 z m 0.1543,3.96875 c 1.2021,0 2.2302,0.17316 3.086,0.51953 0.8557,0.35656 1.5087,0.86168 1.957,1.51367 0.4482,0.66218 0.6719,1.45227 0.6719,2.36914 0,0.90668 -0.2237,1.6859 -0.6719,2.33789 -0.4483,0.66218 -1.1013,1.16535 -1.957,1.51172 -0.8558,0.35656 -1.8839,0.53516 -3.086,0.53516 -1.8031,0 -3.1939,-0.38243 -4.1719,-1.14649 -0.9678,-0.76405 -1.4511,-1.8426 -1.4511,-3.23828 0,-1.40586 0.4833,-2.4918 1.4511,-3.25586 0.978,-0.76405 2.3688,-1.14648 4.1719,-1.14648 z m -0.016,2.87304 c -0.8863,0 -1.5844,0.0416 -2.0938,0.12305 -0.5093,0.0917 -0.8809,0.24505 -1.1152,0.45899 -0.2343,0.22412 -0.3515,0.53433 -0.3515,0.93164 0,0.40749 0.1172,0.7177 0.3515,0.93164 0.2343,0.22412 0.6004,0.37748 1.0996,0.45898 0.5094,0.0917 1.2129,0.13672 2.1094,0.13672 0.9169,0 1.6402,-0.045 2.1699,-0.13672 0.5298,-0.0917 0.9176,-0.25049 1.1621,-0.47461 0.2445,-0.21393 0.3672,-0.5187 0.3672,-0.91601 0,-0.38713 -0.1281,-0.69385 -0.3828,-0.91797 -0.2445,-0.21394 -0.6324,-0.36535 -1.1621,-0.45703 -0.5298,-0.0917 -1.2476,-0.13868 -2.1543,-0.13868 z m 2.5684,6.85352 h 1.3906 c 0,0.8863 0.137,1.55914 0.4121,2.01758 0.2852,0.46862 0.682,0.73923 1.1914,0.81054 v 1.69532 h -11.0488 v -2.61328 h 8.0547 z m 0,6.41797 h 1.3906 c 0,0.8863 0.137,1.55719 0.4121,2.01562 0.2852,0.46862 0.682,0.73924 1.1914,0.81055 v 1.69727 h -11.0488 v -2.61329 h 8.0547 z m -2.5528,6.56836 c 1.2021,0 2.2302,0.17316 3.086,0.51953 0.8557,0.35656 1.5087,0.86168 1.957,1.51367 0.4482,0.66218 0.6719,1.45228 0.6719,2.36914 0,0.90668 -0.2237,1.6859 -0.6719,2.33789 -0.4483,0.66218 -1.1013,1.16535 -1.957,1.51172 -0.8558,0.35656 -1.8839,0.53516 -3.086,0.53516 -1.8031,0 -3.1939,-0.38243 -4.1719,-1.14649 -0.9678,-0.76405 -1.4511,-1.8426 -1.4511,-3.23828 0,-1.40586 0.4833,-2.4918 1.4511,-3.25586 0.978,-0.76405 2.3688,-1.14648 4.1719,-1.14648 z m -0.016,2.87305 c -0.8863,0 -1.5844,0.0415 -2.0938,0.12304 -0.5093,0.0917 -0.8809,0.24505 -1.1152,0.45899 -0.2343,0.22412 -0.3515,0.53433 -0.3515,0.93164 0,0.40749 0.1172,0.7177 0.3515,0.93164 0.2343,0.22412 0.6004,0.37748 1.0996,0.45898 0.5094,0.0917 1.2129,0.13672 2.1094,0.13672 0.9169,0 1.6402,-0.045 2.1699,-0.13672 0.5298,-0.0917 0.9176,-0.25048 1.1621,-0.47461 0.2445,-0.21393 0.3672,-0.5187 0.3672,-0.91601 0,-0.38712 -0.1281,-0.69385 -0.3828,-0.91797 -0.2445,-0.21394 -0.6324,-0.36535 -1.1621,-0.45703 -0.5298,-0.0917 -1.2476,-0.13867 -2.1543,-0.13867 z m 0.016,6.97656 c 1.2021,0 2.2302,0.17316 3.086,0.51953 0.8557,0.35656 1.5087,0.86168 1.957,1.51367 0.4482,0.66218 0.6719,1.45032 0.6719,2.36719 0,0.90668 -0.2237,1.68785 -0.6719,2.33984 -0.4483,0.66218 -1.1013,1.16535 -1.957,1.51172 -0.8558,0.35656 -1.8839,0.53516 -3.086,0.53516 -1.8031,0 -3.1939,-0.38243 -4.1719,-1.14649 -0.9678,-0.76405 -1.4511,-1.84456 -1.4511,-3.24023 0,-1.40586 0.4833,-2.48985 1.4511,-3.25391 0.978,-0.76405 2.3688,-1.14648 4.1719,-1.14648 z m -0.016,2.87304 c -0.8863,0 -1.5844,0.0416 -2.0938,0.12305 -0.5093,0.0917 -0.8809,0.2431 -1.1152,0.45703 -0.2343,0.22413 -0.3515,0.53629 -0.3515,0.9336 0,0.40749 0.1172,0.7177 0.3515,0.93164 0.2343,0.22412 0.6004,0.37748 1.0996,0.45898 0.5094,0.0917 1.2129,0.13672 2.1094,0.13672 0.9169,0 1.6402,-0.045 2.1699,-0.13672 0.5298,-0.0917 0.9176,-0.25049 1.1621,-0.47461 0.2445,-0.21393 0.3672,-0.5187 0.3672,-0.91601 0,-0.38713 -0.1281,-0.69385 -0.3828,-0.91797 -0.2445,-0.21394 -0.6324,-0.3673 -1.1621,-0.45899 -0.5298,-0.0917 -1.2476,-0.13672 -2.1543,-0.13672 z m 0.016,6.97657 c 1.2021,0 2.2302,0.17316 3.086,0.51953 0.8557,0.35656 1.5087,0.85972 1.957,1.51172 0.4482,0.66218 0.6719,1.45227 0.6719,2.36914 0,0.90668 -0.2237,1.68589 -0.6719,2.33789 -0.4483,0.66218 -1.1013,1.1673 -1.957,1.51367 -0.8558,0.35656 -1.8839,0.53516 -3.086,0.53516 -1.8031,0 -3.1939,-0.38243 -4.1719,-1.14649 -0.9678,-0.76405 -1.4511,-1.84456 -1.4511,-3.24023 0,-1.40586 0.4833,-2.48985 1.4511,-3.25391 0.978,-0.76405 2.3688,-1.14648 4.1719,-1.14648 z m -0.016,2.87304 c -0.8863,0 -1.5844,0.0396 -2.0938,0.1211 -0.5093,0.0917 -0.8809,0.24505 -1.1152,0.45898 -0.2343,0.22412 -0.3515,0.53433 -0.3515,0.93164 0,0.4075 0.1172,0.71966 0.3515,0.9336 0.2343,0.22412 0.6004,0.37553 1.0996,0.45703 0.5094,0.0917 1.2129,0.13867 2.1094,0.13867 0.9169,0 1.6402,-0.047 2.1699,-0.13867 0.5298,-0.0917 0.9176,-0.24854 1.1621,-0.47266 0.2445,-0.21393 0.3672,-0.52066 0.3672,-0.91797 0,-0.38712 -0.1281,-0.69189 -0.3828,-0.91601 -0.2445,-0.21394 -0.6324,-0.3673 -1.1621,-0.45899 -0.5298,-0.0917 -1.2476,-0.13672 -2.1543,-0.13672 z m 2.5684,6.85352 h 1.3906 c 0,0.8863 0.137,1.55719 0.4121,2.01562 0.2852,0.468625 0.682,0.739239 1.1914,0.810551 v 1.697266 h -11.0488 v -2.613277 h 8.0547 z m 0,6.416015 h 1.3906 c 0,0.886304 0.137,1.559145 0.4121,2.017578 0.2852,0.468621 0.682,0.739235 1.1914,0.810547 v 1.695312 h -11.0488 v -2.613281 h 8.0547 z m -2.5528,6.570313 c 1.2021,0 2.2302,0.173159 3.086,0.519531 0.8557,0.356559 1.5087,0.859725 1.957,1.511719 0.4482,0.662181 0.6719,1.452274 0.6719,2.36914 0,0.906679 -0.2237,1.685897 -0.6719,2.337891 -0.4483,0.662181 -1.1013,1.1673 -1.957,1.513672 -0.8558,0.356559 -1.8839,0.535156 -3.086,0.535156 -1.8031,0 -3.1939,-0.382429 -4.1719,-1.146485 -0.9678,-0.764055 -1.4511,-1.844559 -1.4511,-3.240234 0,-1.405862 0.4833,-2.489851 1.4511,-3.253906 0.978,-0.764056 2.3688,-1.146484 4.1719,-1.146484 z m -0.016,2.873046 c -0.8863,0 -1.5844,0.0396 -2.0938,0.121094 -0.5093,0.09169 -0.8809,0.245049 -1.1152,0.458984 -0.2343,0.224123 -0.3515,0.534332 -0.3515,0.931641 0,0.407496 0.1172,0.719658 0.3515,0.933594 0.2343,0.224123 0.6004,0.375532 1.0996,0.457031 0.5094,0.09169 1.2129,0.138672 2.1094,0.138672 0.9169,0 1.6402,-0.04699 2.1699,-0.138672 0.5298,-0.09169 0.9176,-0.248533 1.1621,-0.472656 0.2445,-0.213936 0.3672,-0.52066 0.3672,-0.917969 0,-0.387121 -0.1281,-0.691893 -0.3828,-0.916015 -0.2445,-0.213936 -0.6324,-0.367298 -1.1621,-0.458985 -0.5298,-0.09169 -1.2476,-0.136719 -2.1543,-0.136719 z m 2.5684,6.853516 h 1.3906 c 0,0.886304 0.137,1.557192 0.4121,2.015625 0.2852,0.468621 0.682,0.739235 1.1914,0.810547 v 1.697266 h -11.0488 v -2.613282 h 8.0547 z m -2.5528,6.568359 c 1.2021,0 2.2302,0.17316 3.086,0.519532 0.8557,0.356559 1.5087,0.861678 1.957,1.513671 0.4482,0.662182 0.6719,1.452275 0.6719,2.369141 0,0.906679 -0.2237,1.685897 -0.6719,2.337891 -0.4483,0.662181 -1.1013,1.165347 -1.957,1.511718 -0.8558,0.35656 -1.8839,0.535157 -3.086,0.535157 -1.8031,0 -3.1939,-0.382429 -4.1719,-1.146485 -0.9678,-0.764055 -1.4511,-1.842606 -1.4511,-3.238281 0,-1.405862 0.4833,-2.491804 1.4511,-3.255859 0.978,-0.764056 2.3688,-1.146485 4.1719,-1.146485 z m -0.016,2.873047 c -0.8863,0 -1.5844,0.04155 -2.0938,0.123047 -0.5093,0.09169 -0.8809,0.245049 -1.1152,0.458985 -0.2343,0.224122 -0.3515,0.534331 -0.3515,0.93164 0,0.407496 0.1172,0.717705 0.3515,0.931641 0.2343,0.224123 0.6004,0.377485 1.0996,0.458984 0.5094,0.09169 1.2129,0.136719 2.1094,0.136719 0.9169,0 1.6402,-0.04503 2.1699,-0.136719 0.5298,-0.09169 0.9176,-0.250486 1.1621,-0.474609 0.2445,-0.213936 0.3672,-0.518707 0.3672,-0.916016 0,-0.387121 -0.1281,-0.693846 -0.3828,-0.917969 -0.2445,-0.213935 -0.6324,-0.365344 -1.1621,-0.457031 -0.5298,-0.09169 -1.2476,-0.138672 -2.1543,-0.138672 z m 0.016,6.976563 c 1.2021,0 2.2302,0.173159 3.086,0.519531 0.8557,0.356559 1.5087,0.861678 1.957,1.513672 0.4482,0.662181 0.6719,1.450321 0.6719,2.367187 0,0.906679 -0.2237,1.685897 -0.6719,2.337891 -0.4483,0.662181 -1.1013,1.1673 -1.957,1.513672 -0.8558,0.356559 -1.8839,0.535156 -3.086,0.535156 -1.8031,0 -3.1939,-0.382429 -4.1719,-1.146484 -0.9678,-0.764056 -1.4511,-1.84456 -1.4511,-3.240235 0,-1.405862 0.4833,-2.48985 1.4511,-3.253906 0.978,-0.764055 2.3688,-1.146484 4.1719,-1.146484 z m -0.016,2.873047 c -0.8863,0 -1.5844,0.04155 -2.0938,0.123046 -0.5093,0.09169 -0.8809,0.243096 -1.1152,0.457032 -0.2343,0.224123 -0.3515,0.536285 -0.3515,0.933594 0,0.407496 0.1172,0.717705 0.3515,0.93164 0.2343,0.224123 0.6004,0.377485 1.0996,0.458984 0.5094,0.09169 1.2129,0.136719 2.1094,0.136719 0.9169,0 1.6402,-0.04503 2.1699,-0.136719 0.5298,-0.09169 0.9176,-0.250486 1.1621,-0.474609 0.2445,-0.213935 0.3672,-0.518707 0.3672,-0.916015 0,-0.387122 -0.1281,-0.693846 -0.3828,-0.917969 -0.2445,-0.213936 -0.6324,-0.367298 -1.1621,-0.458985 -0.5298,-0.09169 -1.2476,-0.136718 -2.1543,-0.136718 z m 2.5684,6.853515 h 1.3906 c 0,0.886305 0.137,1.559145 0.4121,2.017578 0.2852,0.468621 0.682,0.737282 1.1914,0.808594 v 1.697266 h -11.0488 v -2.613281 h 8.0547 z m 0,6.416016 h 1.3906 c 0,0.886304 0.137,1.559145 0.4121,2.017578 0.2852,0.468621 0.682,0.739235 1.1914,0.810547 v 1.695312 h -11.0488 v -2.613281 h 8.0547 z m -2.5528,6.570312 c 1.2021,0 2.2302,0.17316 3.086,0.519532 0.8557,0.356559 1.5087,0.861678 1.957,1.513671 0.4482,0.662182 0.6719,1.450321 0.6719,2.367188 0,0.906679 -0.2237,1.685897 -0.6719,2.337891 -0.4483,0.662181 -1.1013,1.1673 -1.957,1.513671 -0.8558,0.35656 -1.8839,0.535157 -3.086,0.535157 -1.8031,0 -3.1939,-0.382429 -4.1719,-1.146485 -0.9678,-0.764055 -1.4511,-1.844559 -1.4511,-3.240234 0,-1.405862 0.4833,-2.489851 1.4511,-3.253906 0.978,-0.764056 2.3688,-1.146485 4.1719,-1.146485 z m -0.016,2.873047 c -0.8863,0 -1.5844,0.04155 -2.0938,0.123047 -0.5093,0.09169 -0.8809,0.243096 -1.1152,0.457031 -0.2343,0.224123 -0.3515,0.534332 -0.3515,0.931641 0,0.407496 0.1172,0.719658 0.3515,0.933594 0.2343,0.224123 0.6004,0.375532 1.0996,0.457031 0.5094,0.09169 1.2129,0.138672 2.1094,0.138672 0.9169,0 1.6402,-0.04698 2.1699,-0.138672 0.5298,-0.09169 0.9176,-0.248533 1.1621,-0.472656 0.2445,-0.213936 0.3672,-0.52066 0.3672,-0.917969 0,-0.387121 -0.1281,-0.691893 -0.3828,-0.916016 -0.2445,-0.213935 -0.6324,-0.367297 -1.1621,-0.458984 -0.5298,-0.09169 -1.2476,-0.136719 -2.1543,-0.136719 z m 2.5684,6.853516 h 1.3906 c 0,0.886304 0.137,1.559145 0.4121,2.017578 0.2852,0.468621 0.682,0.737282 1.1914,0.808594 v 1.697265 h -11.0488 v -2.613281 h 8.0547 z m 0,6.416016 h 1.3906 c 0,0.886304 0.137,1.559144 0.4121,2.017578 0.2852,0.46862 0.682,0.739235 1.1914,0.810546 v 1.695313 h -11.0488 v -2.613281 h 8.0547 z m -2.5528,6.570312 c 1.2021,0 2.2302,0.173159 3.086,0.519531 0.8557,0.356559 1.5087,0.861678 1.957,1.513672 0.4482,0.662181 0.6719,1.450321 0.6719,2.367188 0,0.906679 -0.2237,1.685896 -0.6719,2.33789 -0.4483,0.662182 -1.1013,1.1673003 -1.957,1.5136721 -0.8558,0.3565592 -1.8839,0.5351563 -3.086,0.5351563 -1.8031,0 -3.1939,-0.382429 -4.1719,-1.1464844 -0.9678,-0.764055 -1.4511,-1.84456 -1.4511,-3.240234 0,-1.405862 0.4833,-2.489851 1.4511,-3.253907 0.978,-0.764055 2.3688,-1.146484 4.1719,-1.146484 z m -0.016,2.873047 c -0.8863,0 -1.5844,0.03959 -2.0938,0.121094 -0.5093,0.09169 -0.8809,0.245048 -1.1152,0.458984 -0.2343,0.224123 -0.3515,0.534332 -0.3515,0.931641 0,0.407496 0.1172,0.719658 0.3515,0.933593 0.2343,0.224123 0.6004,0.375532 1.0996,0.457032 0.5094,0.09169 1.2129,0.138671 2.1094,0.138671 0.9169,0 1.6402,-0.04698 2.1699,-0.138671 0.5298,-0.09169 0.9176,-0.248534 1.1621,-0.472657 0.2445,-0.213935 0.3672,-0.52066 0.3672,-0.917968 0,-0.387122 -0.1281,-0.691893 -0.3828,-0.916016 -0.2445,-0.213936 -0.6324,-0.367298 -1.1621,-0.458984 -0.5298,-0.09169 -1.2476,-0.136719 -2.1543,-0.136719 z m 2.5684,6.8535155 h 1.3906 c 0,0.8863043 0.137,1.5591449 0.4121,2.0175781 0.2852,0.4686207 0.682,0.7372819 1.1914,0.8085938 V -3.34375 h -11.0488 v -2.6132812 h 8.0547 z m -2.5528,6.5683594 c 1.2021,0 2.2302,0.1731594 3.086,0.51953122 0.8557,0.3565592 1.5087,0.86167792 1.957,1.51367188 0.4482,0.6621814 0.6719,1.4522741 0.6719,2.3691406 0,0.9066791 -0.2237,1.6858967 -0.6719,2.3378906 -0.4483,0.6621814 -1.1013,1.165347 -1.957,1.5117188 -0.8558,0.3565592 -1.8839,0.5351562 -3.086,0.5351562 -1.8031,0 -3.1939,-0.3824289 -4.1719,-1.1464843 -0.9678,-0.7640554 -1.4511,-1.8426067 -1.4511,-3.2382813 0,-1.4058619 0.4833,-2.49180393 1.4511,-3.25585935 0.978,-0.76405542 2.3688,-1.14648435 4.1719,-1.14648435 z m -0.016,2.8730469 c -0.8863,0 -1.5844,0.041548 -2.0938,0.1230468 -0.5093,0.091687 -0.8809,0.2450489 -1.1152,0.4589844 -0.2343,0.2241229 -0.3515,0.5343318 -0.3515,0.9316406 0,0.4074962 0.1172,0.7177051 0.3515,0.9316406 0.2343,0.224123 0.6004,0.3774852 1.0996,0.4589844 0.5094,0.091687 1.2129,0.1367188 2.1094,0.1367188 0.9169,0 1.6402,-0.045032 2.1699,-0.1367188 0.5298,-0.091687 0.9176,-0.2504864 1.1621,-0.4746094 0.2445,-0.2139355 0.3672,-0.5187068 0.3672,-0.9160156 0,-0.3871214 -0.1281,-0.6938458 -0.3828,-0.9179687 -0.2445,-0.2139355 -0.6324,-0.3653446 -1.1621,-0.4570313 -0.5298,-0.091687 -1.2476,-0.1386719 -2.1543,-0.1386718 z"
           transform="matrix(0.26458333,0,0,0.26458333,0,135.60415)"
           id="path1355" />
        <path
           inkscape:connector-curvature="0"
           style="opacity:1;fill:#ff0000;fill-opacity:1;stroke:none;stroke-width:1.21696842;stroke-linecap:round;stroke-linejoin:round;stroke-miterlimit:4;stroke-dasharray:none;stroke-opacity:1"
           d="m 1014.5879,-158.25781 a 8.6115027,8.082031 0 0 0 -4.1035,1.08203 8.6115027,8.082031 0 0 0 -4.3086,6.99609 V -45.835938 3.3808594 107.72461 a 8.6115027,8.082031 0 0 0 4.3086,6.99414 8.6115027,8.082031 0 0 0 8.6113,0 8.6115027,8.082031 0 0 0 4.3047,-6.99414 V 3.3808594 -45.835938 -150.17969 a 8.6115027,8.082031 0 0 0 -4.3047,-6.99609 8.6115027,8.082031 0 0 0 -4.5078,-1.08203 z m 0.1543,4.05859 c 1.2021,0 2.2302,0.17316 3.0859,0.51953 0.8558,0.35656 1.5088,0.86168 1.9571,1.51367 0.4482,0.66219 0.6718,1.45228 0.6718,2.36914 0,0.90668 -0.2236,1.6859 -0.6718,2.3379 -0.4483,0.66218 -1.1013,1.16534 -1.9571,1.51171 -0.8557,0.35656 -1.8838,0.53516 -3.0859,0.53516 -1.8032,0 -3.1939,-0.38243 -4.1719,-1.14648 -0.9678,-0.76406 -1.4512,-1.84261 -1.4512,-3.23829 0,-1.40586 0.4834,-2.4918 1.4512,-3.25585 0.978,-0.76406 2.3687,-1.14649 4.1719,-1.14649 z m -0.016,2.87305 c -0.8863,0 -1.5844,0.0416 -2.0938,0.12305 -0.5094,0.0917 -0.8809,0.24504 -1.1152,0.45898 -0.2343,0.22412 -0.3516,0.53433 -0.3516,0.93164 0,0.4075 0.1173,0.71771 0.3516,0.93164 0.2343,0.22412 0.6004,0.37749 1.0996,0.45898 0.5094,0.0917 1.2129,0.13672 2.1094,0.13672 0.9168,0 1.6401,-0.045 2.1699,-0.13672 0.5297,-0.0917 0.9176,-0.25048 1.1621,-0.4746 0.2445,-0.21394 0.3672,-0.51871 0.3672,-0.91602 0,-0.38712 -0.1281,-0.69385 -0.3828,-0.91797 -0.2445,-0.21393 -0.6324,-0.36534 -1.1621,-0.45703 -0.5298,-0.0917 -1.2477,-0.13867 -2.1543,-0.13867 z m 2.5683,6.85351 h 1.3906 c 0,0.88631 0.1371,1.55915 0.4122,2.01758 0.2852,0.46862 0.682,0.73924 1.1914,0.81055 v 1.69531 h -11.0489 v -2.61328 h 8.0547 z m 0,6.41797 h 1.3906 c 0,0.88631 0.1371,1.55719 0.4122,2.01563 0.2852,0.46862 0.682,0.73923 1.1914,0.81054 v 1.69727 h -11.0489 v -2.61328 h 8.0547 z m -2.5527,6.56836 c 1.2021,0 2.2302,0.17316 3.0859,0.51953 0.8558,0.35656 1.5088,0.86168 1.9571,1.51368 0.4482,0.66218 0.6718,1.45227 0.6718,2.36914 0,0.90667 -0.2236,1.68589 -0.6718,2.33789 -0.4483,0.66218 -1.1013,1.16534 -1.9571,1.51171 -0.8557,0.35656 -1.8838,0.53516 -3.0859,0.53516 -1.8032,0 -3.1939,-0.38243 -4.1719,-1.14648 -0.9678,-0.76406 -1.4512,-1.84261 -1.4512,-3.23828 0,-1.40587 0.4834,-2.49181 1.4512,-3.25586 0.978,-0.76406 2.3687,-1.14649 4.1719,-1.14649 z m -0.016,2.87305 c -0.8863,0 -1.5844,0.0416 -2.0938,0.12305 -0.5094,0.0917 -0.8809,0.24504 -1.1152,0.45898 -0.2343,0.22412 -0.3516,0.53433 -0.3516,0.93164 0,0.4075 0.1173,0.71771 0.3516,0.93164 0.2343,0.22412 0.6004,0.37749 1.0996,0.45899 0.5094,0.0917 1.2129,0.13671 2.1094,0.13671 0.9168,0 1.6401,-0.045 2.1699,-0.13671 0.5297,-0.0917 0.9176,-0.25049 1.1621,-0.47461 0.2445,-0.21394 0.3672,-0.51871 0.3672,-0.91602 0,-0.38712 -0.1281,-0.69385 -0.3828,-0.91797 -0.2445,-0.21393 -0.6324,-0.36534 -1.1621,-0.45703 -0.5298,-0.0917 -1.2477,-0.13867 -2.1543,-0.13867 z m 0.016,6.97656 c 1.2021,0 2.2302,0.17316 3.0859,0.51953 0.8558,0.35656 1.5088,0.86168 1.9571,1.51367 0.4482,0.66219 0.6718,1.45033 0.6718,2.36719 0,0.90668 -0.2236,1.6859 -0.6718,2.33789 -0.4483,0.66218 -1.1013,1.1673 -1.9571,1.51367 -0.8557,0.35656 -1.8838,0.53516 -3.0859,0.53516 -1.8032,0 -3.1939,-0.38243 -4.1719,-1.14648 -0.9678,-0.76406 -1.4512,-1.84456 -1.4512,-3.24024 0,-1.40586 0.4834,-2.48985 1.4512,-3.2539 0.978,-0.76406 2.3687,-1.14649 4.1719,-1.14649 z m -0.016,2.87305 c -0.8863,0 -1.5844,0.0416 -2.0938,0.12305 -0.5094,0.0917 -0.8809,0.24309 -1.1152,0.45703 -0.2343,0.22412 -0.3516,0.53628 -0.3516,0.93359 0,0.4075 0.1173,0.71771 0.3516,0.93164 0.2343,0.22412 0.6004,0.37749 1.0996,0.45898 0.5094,0.0917 1.2129,0.13672 2.1094,0.13672 0.9168,0 1.6401,-0.045 2.1699,-0.13672 0.5297,-0.0917 0.9176,-0.25048 1.1621,-0.4746 0.2445,-0.21394 0.3672,-0.51871 0.3672,-0.91602 0,-0.38712 -0.1281,-0.69385 -0.3828,-0.91797 -0.2445,-0.21393 -0.6324,-0.3673 -1.1621,-0.45898 -0.5298,-0.0917 -1.2477,-0.13672 -2.1543,-0.13672 z m 0.016,6.97656 c 1.2021,0 2.2302,0.17316 3.0859,0.51953 0.8558,0.35656 1.5088,0.85973 1.9571,1.51172 0.4482,0.66218 0.6718,1.45227 0.6718,2.36914 0,0.90668 -0.2236,1.6859 -0.6718,2.33789 -0.4483,0.66218 -1.1013,1.1673 -1.9571,1.51367 -0.8557,0.35656 -1.8838,0.53516 -3.0859,0.53516 -1.8032,0 -3.1939,-0.38243 -4.1719,-1.14648 -0.9678,-0.76406 -1.4512,-1.84456 -1.4512,-3.24024 0,-1.40586 0.4834,-2.48985 1.4512,-3.2539 0.978,-0.76406 2.3687,-1.14649 4.1719,-1.14649 z m -0.016,2.87305 c -0.8863,0 -1.5844,0.0396 -2.0938,0.12109 -0.5094,0.0917 -0.8809,0.24505 -1.1152,0.45899 -0.2343,0.22412 -0.3516,0.53433 -0.3516,0.93164 0,0.40749 0.1173,0.71965 0.3516,0.93359 0.2343,0.22412 0.6004,0.37553 1.0996,0.45703 0.5094,0.0917 1.2129,0.13867 2.1094,0.13867 0.9168,0 1.6401,-0.047 2.1699,-0.13867 0.5297,-0.0917 0.9176,-0.24853 1.1621,-0.47266 0.2445,-0.21393 0.3672,-0.52065 0.3672,-0.91796 0,-0.38713 -0.1281,-0.6919 -0.3828,-0.91602 -0.2445,-0.21393 -0.6324,-0.3673 -1.1621,-0.45898 -0.5298,-0.0917 -1.2477,-0.13672 -2.1543,-0.13672 z m 2.5683,6.85351 h 1.3906 c 0,0.88631 0.1371,1.55719 0.4122,2.01563 0.2852,0.468619 0.682,0.739233 1.1914,0.810545 v 1.697266 h -11.0489 v -2.613281 h 8.0547 z m 0,6.416019 h 1.3906 c 0,0.886304 0.1371,1.559145 0.4122,2.017578 0.2852,0.468621 0.682,0.739235 1.1914,0.810547 v 1.695312 h -11.0489 v -2.613281 h 8.0547 z m -2.5527,6.570312 c 1.2021,0 2.2302,0.17316 3.0859,0.519531 0.8558,0.35656 1.5088,0.859725 1.9571,1.511719 0.4482,0.662182 0.6718,1.452274 0.6718,2.369141 0,0.906679 -0.2236,1.685897 -0.6718,2.33789 -0.4483,0.662182 -1.1013,1.167301 -1.9571,1.513672 -0.8557,0.35656 -1.8838,0.535157 -3.0859,0.535157 -1.8032,0 -3.1939,-0.382429 -4.1719,-1.146485 -0.9678,-0.764055 -1.4512,-1.84456 -1.4512,-3.240234 0,-1.405862 0.4834,-2.489851 1.4512,-3.253906 0.978,-0.764056 2.3687,-1.146485 4.1719,-1.146485 z m -0.016,2.873047 c -0.8863,0 -1.5844,0.0396 -2.0938,0.121094 -0.5094,0.09169 -0.8809,0.245049 -1.1152,0.458984 -0.2343,0.224123 -0.3516,0.534332 -0.3516,0.931641 0,0.407496 0.1173,0.719658 0.3516,0.933594 0.2343,0.224123 0.6004,0.375532 1.0996,0.457031 0.5094,0.09169 1.2129,0.138672 2.1094,0.138672 0.9168,0 1.6401,-0.04698 2.1699,-0.138672 0.5297,-0.09169 0.9176,-0.248533 1.1621,-0.472656 0.2445,-0.213936 0.3672,-0.52066 0.3672,-0.917969 0,-0.387122 -0.1281,-0.691893 -0.3828,-0.916016 -0.2445,-0.213935 -0.6324,-0.367297 -1.1621,-0.458984 -0.5298,-0.09169 -1.2477,-0.136719 -2.1543,-0.136719 z m 2.5683,6.853516 h 1.3906 c 0,0.886304 0.1371,1.557191 0.4122,2.015625 0.2852,0.46862 0.682,0.739235 1.1914,0.810547 v 1.695312 H 1009.239 V -77.4375 h 8.0547 z m -2.5527,6.568359 c 1.2021,0 2.2302,0.17316 3.0859,0.519531 0.8558,0.35656 1.5088,0.861678 1.9571,1.513672 0.4482,0.662182 0.6718,1.452274 0.6718,2.369141 0,0.906679 -0.2236,1.685897 -0.6718,2.337891 -0.4483,0.662181 -1.1013,1.165346 -1.9571,1.511718 -0.8557,0.356559 -1.8838,0.535156 -3.0859,0.535156 -1.8032,0 -3.1939,-0.382428 -4.1719,-1.146484 -0.9678,-0.764055 -1.4512,-1.842607 -1.4512,-3.238281 0,-1.405862 0.4834,-2.491804 1.4512,-3.255859 0.978,-0.764056 2.3687,-1.146485 4.1719,-1.146485 z m -0.016,2.873047 c -0.8863,0 -1.5844,0.04155 -2.0938,0.123047 -0.5094,0.09169 -0.8809,0.243096 -1.1152,0.457031 -0.2343,0.224123 -0.3516,0.536285 -0.3516,0.933594 0,0.407496 0.1173,0.717705 0.3516,0.93164 0.2343,0.224123 0.6004,0.377486 1.0996,0.458985 0.5094,0.09169 1.2129,0.136719 2.1094,0.136719 0.9168,0 1.6401,-0.04503 2.1699,-0.136719 0.5297,-0.09169 0.9176,-0.250487 1.1621,-0.474609 0.2445,-0.213936 0.3672,-0.518707 0.3672,-0.916016 0,-0.387122 -0.1281,-0.693846 -0.3828,-0.917969 -0.2445,-0.213935 -0.6324,-0.365344 -1.1621,-0.457031 -0.5298,-0.09169 -1.2477,-0.138672 -2.1543,-0.138672 z m 0.016,6.976562 c 1.2021,0 2.2302,0.17316 3.0859,0.519532 0.8558,0.356559 1.5088,0.861678 1.9571,1.513672 0.4482,0.662181 0.6718,1.450321 0.6718,2.367187 0,0.906679 -0.2236,1.685897 -0.6718,2.337891 -0.4483,0.662181 -1.1013,1.1673 -1.9571,1.513672 -0.8557,0.356559 -1.8838,0.535156 -3.0859,0.535156 -1.8032,0 -3.1939,-0.382429 -4.1719,-1.146484 -0.9678,-0.764056 -1.4512,-1.84456 -1.4512,-3.240235 0,-1.405862 0.4834,-2.489851 1.4512,-3.253906 0.978,-0.764056 2.3687,-1.146484 4.1719,-1.146485 z m -0.016,2.873047 c -0.8863,0 -1.5844,0.04155 -2.0938,0.123047 -0.5094,0.09169 -0.8809,0.243096 -1.1152,0.457032 -0.2343,0.224122 -0.3516,0.536284 -0.3516,0.933593 0,0.407496 0.1173,0.717705 0.3516,0.931641 0.2343,0.224123 0.6004,0.375532 1.0996,0.457031 0.5094,0.09169 1.2129,0.138672 2.1094,0.138672 0.9168,0 1.6401,-0.04698 2.1699,-0.138672 0.5297,-0.09169 0.9176,-0.248533 1.1621,-0.472656 0.2445,-0.213936 0.3672,-0.518707 0.3672,-0.916016 0,-0.387121 -0.1281,-0.693846 -0.3828,-0.917969 -0.2445,-0.213935 -0.6324,-0.367297 -1.1621,-0.458984 -0.5298,-0.09169 -1.2477,-0.136719 -2.1543,-0.136719 z m 2.5683,6.853516 h 1.3906 c 0,0.886304 0.1371,1.559145 0.4122,2.017578 0.2852,0.468621 0.682,0.737282 1.1914,0.808594 v 1.697265 h -11.0489 v -2.613281 h 8.0547 z m 0,6.416016 h 1.3906 c 0,0.886304 0.1371,1.559144 0.4122,2.017578 0.2852,0.46862 0.682,0.739235 1.1914,0.810547 v 1.695312 h -11.0489 v -2.613281 h 8.0547 z m -2.5527,6.570312 c 1.2021,0 2.2302,0.17316 3.0859,0.519531 0.8558,0.35656 1.5088,0.861678 1.9571,1.513672 0.4482,0.662182 0.6718,1.450321 0.6718,2.367188 0,0.906679 -0.2236,1.685896 -0.6718,2.33789 -0.4483,0.662182 -1.1013,1.1673 -1.9571,1.513672 -0.8557,0.356559 -1.8838,0.535156 -3.0859,0.535156 -1.8032,0 -3.1939,-0.382428 -4.1719,-1.146484 -0.9678,-0.764055 -1.4512,-1.84456 -1.4512,-3.240234 0,-1.405862 0.4834,-2.489851 1.4512,-3.253906 0.978,-0.764056 2.3687,-1.146485 4.1719,-1.146485 z m -0.016,2.873047 c -0.8863,0 -1.5844,0.03959 -2.0938,0.121094 -0.5094,0.09169 -0.8809,0.245049 -1.1152,0.458984 -0.2343,0.224123 -0.3516,0.534332 -0.3516,0.931641 0,0.407496 0.1173,0.719658 0.3516,0.933593 0.2343,0.224123 0.6004,0.375533 1.0996,0.457032 0.5094,0.09169 1.2129,0.138672 2.1094,0.138672 0.9168,0 1.6401,-0.04699 2.1699,-0.138672 0.5297,-0.09169 0.9176,-0.248534 1.1621,-0.472656 0.2445,-0.213936 0.3672,-0.52066 0.3672,-0.917969 0,-0.387122 -0.1281,-0.691893 -0.3828,-0.916016 -0.2445,-0.213935 -0.6324,-0.367298 -1.1621,-0.458984 -0.5298,-0.09169 -1.2477,-0.136719 -2.1543,-0.136719 z m 2.5683,6.853516 h 1.3906 c 0,0.886304 0.1371,1.559144 0.4122,2.017578 0.2852,0.46862 0.682,0.737282 1.1914,0.808594 v 1.697265 h -11.0489 v -2.613281 h 8.0547 z m 0,6.416015 h 1.3906 c 0,0.886305 0.1371,1.559145 0.4122,2.017578 0.2852,0.468621 0.682,0.739235 1.1914,0.810547 v 1.695313 h -11.0489 v -2.613281 h 8.0547 z m -2.5527,6.570313 c 1.2021,0 2.2302,0.173159 3.0859,0.519531 0.8558,0.356559 1.5088,0.859725 1.9571,1.511719 0.4482,0.662181 0.6718,1.452274 0.6718,2.36914 0,0.906679 -0.2236,1.685897 -0.6718,2.337891 -0.4483,0.662181 -1.1013,1.1673001 -1.9571,1.5136719 -0.8557,0.3565592 -1.8838,0.5351562 -3.0859,0.5351562 -1.8032,0 -3.1939,-0.3824289 -4.1719,-1.1464843 -0.9678,-0.7640558 -1.4512,-1.8445598 -1.4512,-3.2402348 0,-1.405862 0.4834,-2.48985 1.4512,-3.253906 0.978,-0.764055 2.3687,-1.146484 4.1719,-1.146484 z m -0.016,2.873047 c -0.8863,0 -1.5844,0.03959 -2.0938,0.121093 -0.5094,0.09169 -0.8809,0.245049 -1.1152,0.458985 -0.2343,0.224123 -0.3516,0.534332 -0.3516,0.93164 0,0.407497 0.1173,0.719659 0.3516,0.933594 0.2343,0.224123 0.6004,0.375532 1.0996,0.457031 0.5094,0.09169 1.2129,0.138672 2.1094,0.138672 0.9168,0 1.6401,-0.04699 2.1699,-0.138672 0.5297,-0.09169 0.9176,-0.248533 1.1621,-0.472656 0.2445,-0.213935 0.3672,-0.52066 0.3672,-0.917969 0,-0.387121 -0.1281,-0.691892 -0.3828,-0.916015 -0.2445,-0.213936 -0.6324,-0.367298 -1.1621,-0.458985 -0.5298,-0.09169 -1.2477,-0.136718 -2.1543,-0.136718 z m 2.5683,6.8535152 h 1.3906 c 0,0.8863043 0.1371,1.5571918 0.4122,2.015625 0.2852,0.4686207 0.682,0.7392351 1.1914,0.8105469 v 1.6972657 h -11.0489 v -2.6132813 h 8.0547 z m -2.5527,6.5683594 c 1.2021,0 2.2302,0.1731595 3.0859,0.51953128 0.8558,0.35655919 1.5088,0.86167791 1.9571,1.51367187 0.4482,0.66218135 0.6718,1.45227415 0.6718,2.36914065 0,0.9066791 -0.2236,1.6858966 -0.6718,2.3378906 -0.4483,0.6621814 -1.1013,1.165347 -1.9571,1.5117188 -0.8557,0.3565591 -1.8838,0.5351562 -3.0859,0.5351562 -1.8032,0 -3.1939,-0.382429 -4.1719,-1.1464844 -0.9678,-0.7640554 -1.4512,-1.8426067 -1.4512,-3.2382812 0,-1.405862 0.4834,-2.49180398 1.4512,-3.2558594 0.978,-0.76405542 2.3687,-1.1464844 4.1719,-1.1464844 z m -0.016,2.8730469 c -0.8863,0 -1.5844,0.041548 -2.0938,0.1230469 -0.5094,0.091687 -0.8809,0.2450488 -1.1152,0.4589844 -0.2343,0.2241229 -0.3516,0.5343318 -0.3516,0.9316406 0,0.4074962 0.1173,0.7177051 0.3516,0.9316406 0.2343,0.2241229 0.6004,0.3774851 1.0996,0.4589844 0.5094,0.091687 1.2129,0.1367187 2.1094,0.1367187 0.9168,0 1.6401,-0.045032 2.1699,-0.1367187 0.5297,-0.091687 0.9176,-0.2504865 1.1621,-0.4746094 0.2445,-0.2139355 0.3672,-0.5187068 0.3672,-0.9160156 0,-0.3871214 -0.1281,-0.6938459 -0.3828,-0.9179688 -0.2445,-0.2139355 -0.6324,-0.3653446 -1.1621,-0.4570312 -0.5298,-0.091687 -1.2477,-0.1386719 -2.1543,-0.1386719 z m 2.5683,6.8535156 h 1.3906 c 0,0.8863043 0.1371,1.5591449 0.4122,2.0175779 0.2852,0.468621 0.682,0.739235 1.1914,0.810547 v 1.695313 h -11.0489 v -2.613282 h 8.0547 z m 0,6.4179689 h 1.3906 c 0,0.886304 0.1371,1.557192 0.4122,2.015625 0.2852,0.468621 0.682,0.739235 1.1914,0.810547 v 1.697265 h -11.0489 v -2.613281 h 8.0547 z m 0,6.416015 h 1.3906 c 0,0.886305 0.1371,1.559145 0.4122,2.017579 0.2852,0.46862 0.682,0.737282 1.1914,0.808593 V 25.875 h -11.0489 v -2.613281 h 8.0547 z m -2.5527,6.570313 c 1.2021,0 2.2302,0.173159 3.0859,0.519531 0.8558,0.356559 1.5088,0.859725 1.9571,1.511719 0.4482,0.662181 0.6718,1.452274 0.6718,2.369141 0,0.906679 -0.2236,1.685896 -0.6718,2.33789 -0.4483,0.662182 -1.1013,1.1673 -1.9571,1.513672 -0.8557,0.356559 -1.8838,0.533203 -3.0859,0.533203 -1.8032,0 -3.1939,-0.380476 -4.1719,-1.144531 -0.9678,-0.764055 -1.4512,-1.84456 -1.4512,-3.240234 0,-1.405862 0.4834,-2.489851 1.4512,-3.253907 0.978,-0.764055 2.3687,-1.146484 4.1719,-1.146484 z m -0.016,2.873047 c -0.8863,0 -1.5844,0.03959 -2.0938,0.121094 -0.5094,0.09169 -0.8809,0.245048 -1.1152,0.458984 -0.2343,0.224123 -0.3516,0.534332 -0.3516,0.931641 0,0.407496 0.1173,0.717705 0.3516,0.93164 0.2343,0.224123 0.6004,0.377485 1.0996,0.458985 0.5094,0.09169 1.2129,0.138672 2.1094,0.138672 0.9168,0 1.6401,-0.04699 2.1699,-0.138672 0.5297,-0.09169 0.9176,-0.248534 1.1621,-0.472657 0.2445,-0.213935 0.3672,-0.52066 0.3672,-0.917968 0,-0.387122 -0.1281,-0.691893 -0.3828,-0.916016 -0.2445,-0.213936 -0.6324,-0.367298 -1.1621,-0.458984 -0.5298,-0.09169 -1.2477,-0.136719 -2.1543,-0.136719 z m 0.016,6.976562 c 1.2021,0 2.2302,0.17316 3.0859,0.519532 0.8558,0.356559 1.5088,0.859724 1.9571,1.511718 0.4482,0.662182 0.6718,1.452274 0.6718,2.369141 0,0.906679 -0.2236,1.685897 -0.6718,2.337891 -0.4483,0.662181 -1.1013,1.165347 -1.9571,1.511718 -0.8557,0.35656 -1.8838,0.535157 -3.0859,0.535157 -1.8032,0 -3.1939,-0.382429 -4.1719,-1.146485 -0.9678,-0.764055 -1.4512,-1.842606 -1.4512,-3.238281 0,-1.405862 0.4834,-2.491804 1.4512,-3.255859 0.978,-0.764056 2.3687,-1.144532 4.1719,-1.144532 z m -0.016,2.871094 c -0.8863,0 -1.5844,0.04155 -2.0938,0.123047 -0.5094,0.09169 -0.8809,0.245049 -1.1152,0.458984 -0.2343,0.224123 -0.3516,0.534332 -0.3516,0.931641 0,0.407496 0.1173,0.717705 0.3516,0.931641 0.2343,0.224123 0.6004,0.377485 1.0996,0.458984 0.5094,0.09169 1.2129,0.136719 2.1094,0.136719 0.9168,0 1.6401,-0.04503 2.1699,-0.136719 0.5297,-0.09169 0.9176,-0.250486 1.1621,-0.474609 0.2445,-0.213936 0.3672,-0.518707 0.3672,-0.916016 0,-0.387121 -0.1281,-0.691893 -0.3828,-0.916016 -0.2445,-0.213935 -0.6324,-0.367297 -1.1621,-0.458984 -0.5298,-0.09169 -1.2477,-0.138672 -2.1543,-0.138672 z m 2.5683,6.853516 h 1.3906 c 0,0.886304 0.1371,1.559145 0.4122,2.017578 0.2852,0.468621 0.682,0.739235 1.1914,0.810547 v 1.695312 H 1009.237 V 49.40625 h 8.0547 z m -2.5527,6.570312 c 1.2021,0 2.2302,0.17316 3.0859,0.519532 0.8558,0.356559 1.5088,0.861677 1.9571,1.513671 0.4482,0.662182 0.6718,1.450321 0.6718,2.367188 0,0.906679 -0.2236,1.685897 -0.6718,2.337891 -0.4483,0.662181 -1.1013,1.1673 -1.9571,1.513671 -0.8557,0.35656 -1.8838,0.535157 -3.0859,0.535157 -1.8032,0 -3.1939,-0.382429 -4.1719,-1.146485 -0.9678,-0.764055 -1.4512,-1.84456 -1.4512,-3.240234 0,-1.405862 0.4834,-2.489851 1.4512,-3.253906 0.978,-0.764056 2.3687,-1.146485 4.1719,-1.146485 z m -0.016,2.873047 c -0.8863,0 -1.5844,0.03959 -2.0938,0.121094 -0.5094,0.09169 -0.8809,0.245049 -1.1152,0.458984 -0.2343,0.224123 -0.3516,0.534332 -0.3516,0.931641 0,0.407496 0.1173,0.719658 0.3516,0.933594 0.2343,0.224123 0.6004,0.375532 1.0996,0.457031 0.5094,0.09169 1.2129,0.138672 2.1094,0.138672 0.9168,0 1.6401,-0.04698 2.1699,-0.138672 0.5297,-0.09169 0.9176,-0.248533 1.1621,-0.472656 0.2445,-0.213936 0.3672,-0.52066 0.3672,-0.917969 0,-0.387122 -0.1281,-0.691893 -0.3828,-0.916016 -0.2445,-0.213935 -0.6324,-0.367297 -1.1621,-0.458984 -0.5298,-0.09169 -1.2477,-0.136719 -2.1543,-0.136719 z m 2.5683,6.853516 h 1.3906 c 0,0.886304 0.1371,1.559145 0.4122,2.017578 0.2852,0.468621 0.682,0.737282 1.1914,0.808594 v 1.697265 h -11.0489 v -2.613281 h 8.0547 z m -2.5527,6.568359 c 1.2021,0 2.2302,0.17316 3.0859,0.519531 0.8558,0.35656 1.5088,0.861678 1.9571,1.513672 0.4482,0.662182 0.6718,1.452274 0.6718,2.369141 0,0.906679 -0.2236,1.685897 -0.6718,2.33789 -0.4483,0.662182 -1.1013,1.165347 -1.9571,1.511719 -0.8557,0.356559 -1.8838,0.535157 -3.0859,0.535157 -1.8032,0 -3.1939,-0.382429 -4.1719,-1.146485 -0.9678,-0.764055 -1.4512,-1.842607 -1.4512,-3.238281 0,-1.405862 0.4834,-2.491804 1.4512,-3.25586 0.978,-0.764055 2.3687,-1.146484 4.1719,-1.146484 z m -0.016,2.873047 c -0.8863,0 -1.5844,0.04155 -2.0938,0.123047 -0.5094,0.09169 -0.8809,0.245049 -1.1152,0.458984 -0.2343,0.224123 -0.3516,0.534332 -0.3516,0.931641 0,0.407496 0.1173,0.717705 0.3516,0.931641 0.2343,0.224122 0.6004,0.377485 1.0996,0.458984 0.5094,0.09169 1.2129,0.136719 2.1094,0.136719 0.9168,0 1.6401,-0.04503 2.1699,-0.136719 0.5297,-0.09169 0.9176,-0.250487 1.1621,-0.47461 0.2445,-0.213935 0.3672,-0.518706 0.3672,-0.916015 0,-0.387122 -0.1281,-0.691893 -0.3828,-0.916016 -0.2445,-0.213935 -0.6324,-0.367297 -1.1621,-0.458984 -0.5298,-0.09169 -1.2477,-0.138672 -2.1543,-0.138672 z m 2.5683,6.853516 h 1.3906 c 0,0.886304 0.1371,1.559144 0.4122,2.017578 0.2852,0.46862 0.682,0.739235 1.1914,0.810547 v 1.695312 h -11.0489 v -2.613281 h 8.0547 z m -2.5527,6.570312 c 1.2021,0 2.2302,0.17316 3.0859,0.519531 0.8558,0.35656 1.5088,0.861678 1.9571,1.513672 0.4482,0.662182 0.6718,1.450321 0.6718,2.367188 0,0.906679 -0.2236,1.685896 -0.6718,2.33789 -0.4483,0.662182 -1.1013,1.1673 -1.9571,1.513672 -0.8557,0.356559 -1.8838,0.535156 -3.0859,0.535156 -1.8032,0 -3.1939,-0.382428 -4.1719,-1.146484 -0.9678,-0.764055 -1.4512,-1.84456 -1.4512,-3.240234 0,-1.405862 0.4834,-2.489851 1.4512,-3.253906 0.978,-0.764056 2.3687,-1.146485 4.1719,-1.146485 z m -0.016,2.873047 c -0.8863,0 -1.5844,0.0396 -2.0938,0.121094 -0.5094,0.09169 -0.8809,0.245049 -1.1152,0.458984 -0.2343,0.224123 -0.3516,0.534332 -0.3516,0.931641 0,0.407496 0.1173,0.719658 0.3516,0.933593 0.2343,0.224123 0.6004,0.375533 1.0996,0.457032 0.5094,0.09169 1.2129,0.138672 2.1094,0.138672 0.9168,0 1.6401,-0.04699 2.1699,-0.138672 0.5297,-0.09169 0.9176,-0.248534 1.1621,-0.472656 0.2445,-0.213936 0.3672,-0.52066 0.3672,-0.917969 0,-0.387122 -0.1281,-0.691893 -0.3828,-0.916016 -0.2445,-0.213935 -0.6324,-0.367298 -1.1621,-0.458984 -0.5298,-0.09169 -1.2477,-0.136719 -2.1543,-0.136719 z m 2.5683,6.853516 h 1.3906 c 0,0.886304 0.1371,1.559144 0.4122,2.017578 0.2852,0.46862 0.682,0.737282 1.1914,0.808594 v 1.697262 h -11.0489 v -2.613278 h 8.0547 z m -2.5527,6.568354 c 1.2021,0 2.2302,0.17316 3.0859,0.51954 0.8558,0.35656 1.5088,0.86167 1.9571,1.51367 0.4482,0.66218 0.6718,1.45227 0.6718,2.36914 0,0.90668 -0.2236,1.6859 -0.6718,2.33789 -0.4483,0.66218 -1.1013,1.16535 -1.9571,1.51172 -0.8557,0.35656 -1.8838,0.53515 -3.0859,0.53515 -1.8032,0 -3.1939,-0.38242 -4.1719,-1.14648 -0.9678,-0.76406 -1.4512,-1.84261 -1.4512,-3.23828 0,-1.40586 0.4834,-2.49181 1.4512,-3.25586 0.978,-0.76406 2.3687,-1.14649 4.1719,-1.14649 z m -0.016,2.87305 c -0.8863,0 -1.5844,0.0416 -2.0938,0.12305 -0.5094,0.0917 -0.8809,0.24505 -1.1152,0.45898 -0.2343,0.22413 -0.3516,0.53433 -0.3516,0.93164 0,0.4075 0.1173,0.71771 0.3516,0.93164 0.2343,0.22413 0.6004,0.37749 1.0996,0.45899 0.5094,0.0917 1.2129,0.13672 2.1094,0.13672 0.9168,0 1.6401,-0.045 2.1699,-0.13672 0.5297,-0.0917 0.9176,-0.25049 1.1621,-0.47461 0.2445,-0.21394 0.3672,-0.51871 0.3672,-0.91602 0,-0.38712 -0.1281,-0.69384 -0.3828,-0.91796 -0.2445,-0.21394 -0.6324,-0.36535 -1.1621,-0.45704 -0.5298,-0.0917 -1.2477,-0.13867 -2.1543,-0.13867 z"
           transform="matrix(0.26458333,0,0,0.26458333,0,135.60415)"
           id="path1357" />
        <path
           inkscape:connector-curvature="0"
           style="opacity:1;fill:#ff0000;fill-opacity:1;stroke:none;stroke-width:1.21696842;stroke-linecap:round;stroke-linejoin:round;stroke-miterlimit:4;stroke-dasharray:none;stroke-opacity:1"
           d="m 994.30469,-158.25195 a 8.6115027,8.082031 15 0 0 -1.6875,0.23633 8.6115027,8.082031 15 0 0 -5.97266,5.64257 L 946.90039,-4.0449219 a 8.6115027,8.082031 15 0 0 2.35156,7.8730469 8.6115027,8.082031 15 0 0 8.31641,2.2285156 8.6115027,8.082031 15 0 0 5.96875,-5.64453122 L 1003.2812,-147.91406 a 8.6115027,8.082031 15 0 0 -2.3457,-7.87305 A 8.6115027,8.082031 15 0 0 996.86133,-158 v 0.002 a 8.6115027,8.082031 15 0 0 -2.55664,-0.2539 z m -0.60742,3.78515 c 0.72103,-0.005 1.5178,0.10845 2.38867,0.3418 1.16115,0.31113 2.11072,0.74473 2.84765,1.30078 0.7343,0.56589 1.23381,1.22296 1.49801,1.96875 0.2616,0.75563 0.2725,1.57531 0.035,2.46094 -0.2347,0.87578 -0.65219,1.57022 -1.25391,2.08398 -0.60436,0.52361 -1.36502,0.84199 -2.28125,0.95508 -0.91887,0.12293 -1.95799,0.0299 -3.11914,-0.28125 -1.74173,-0.46669 -2.98746,-1.19636 -3.73438,-2.1875 -0.73707,-0.98851 -0.92372,-2.15579 -0.5625,-3.5039 0.36387,-1.35796 1.11157,-2.282 2.24415,-2.76954 0.57121,-0.24245 1.21646,-0.36459 1.9375,-0.36914 z m -0.42383,2.68946 c -0.51575,-0.0433 -0.91362,0.008 -1.19532,0.15429 -0.28433,0.15585 -0.4792,0.42678 -0.58203,0.81055 -0.10546,0.39361 -0.0713,0.72294 0.0996,0.99023 0.16832,0.27713 0.48228,0.5206 0.94336,0.72852 0.46829,0.2204 1.13601,0.44571 2.00196,0.67773 0.88562,0.23731 1.59543,0.38115 2.13086,0.42969 0.53542,0.0486 0.94996,-0.005 1.24414,-0.1582 0.29153,-0.14337 0.48896,-0.40725 0.59179,-0.79102 0.1002,-0.37393 0.0571,-0.70197 -0.13086,-0.98437 -0.18079,-0.26993 -0.51594,-0.51652 -1.0039,-0.74219 -0.48797,-0.22567 -1.16914,-0.45674 -2.04493,-0.69141 -0.8561,-0.22939 -1.54158,-0.37071 -2.05468,-0.42382 z m -5.51367,7.46875 7.77929,2.08398 0.49414,-1.84375 1.34375,0.35938 c -0.22939,0.8561 -0.27008,1.54068 -0.12304,2.05468 0.15424,0.52648 0.46785,0.89108 0.9414,1.0918 l -0.43945,1.63867 -10.67188,-2.85937 z m -1.66016,6.19921 7.7793,2.08399 0.49414,-1.8457 1.34375,0.36132 c -0.2294,0.85611 -0.27204,1.54069 -0.125,2.05469 0.15424,0.52648 0.46785,0.88913 0.9414,1.08985 l -0.4375,1.63867 -10.67187,-2.85938 z m 1.7207,5.58008 c 0.72104,-0.005 1.51586,0.11041 2.38672,0.34375 1.16115,0.31113 2.11072,0.74473 2.84766,1.30078 0.7343,0.5659 1.23382,1.22101 1.49804,1.9668 0.26159,0.75563 0.27246,1.57727 0.0352,2.46289 -0.23467,0.87579 -0.65218,1.57022 -1.25391,2.08399 -0.60435,0.5236 -1.36501,0.84199 -2.28125,0.95507 -0.91886,0.12293 -1.95798,0.0299 -3.11914,-0.28125 -1.74173,-0.46669 -2.9855,-1.19635 -3.73242,-2.1875 -0.73707,-0.9885 -0.92568,-2.15774 -0.56445,-3.50585 0.36386,-1.35796 1.11156,-2.28005 2.24414,-2.76758 0.57121,-0.24245 1.21842,-0.36655 1.93945,-0.3711 z m -0.42578,2.69141 c -0.51574,-0.0433 -0.91361,0.008 -1.19531,0.1543 -0.28433,0.15584 -0.47725,0.42482 -0.58008,0.80859 -0.10547,0.39361 -0.0733,0.7249 0.0977,0.99219 0.16832,0.27713 0.48228,0.51864 0.94336,0.72656 0.46828,0.2204 1.136,0.44766 2.00195,0.67969 0.88562,0.2373 1.59543,0.37919 2.13086,0.42773 0.53542,0.0485 0.94997,-0.003 1.24414,-0.15625 0.29154,-0.14336 0.48897,-0.40724 0.5918,-0.79101 0.10019,-0.37393 0.0571,-0.70198 -0.13086,-0.98438 -0.1808,-0.26993 -0.51595,-0.51847 -1.00391,-0.74414 -0.48796,-0.22567 -1.16914,-0.45479 -2.04492,-0.68945 -0.85611,-0.22939 -1.54158,-0.37072 -2.05469,-0.42383 z m -2.125,6.82227 c 0.72104,-0.005 1.51781,0.1104 2.38867,0.34374 1.16116,0.31113 2.11072,0.74473 2.84766,1.30079 0.7343,0.56589 1.23382,1.221 1.49805,1.96679 0.26158,0.75564 0.27246,1.57727 0.0351,2.46289 -0.23466,0.87579 -0.65218,1.57022 -1.2539,2.08399 -0.60436,0.5236 -1.36502,0.84199 -2.28125,0.95508 -0.91887,0.12292 -1.95799,0.0299 -3.11914,-0.28125 -1.74173,-0.4667 -2.98746,-1.19636 -3.73438,-2.1875 -0.73707,-0.98851 -0.92373,-2.15775 -0.5625,-3.50586 0.36386,-1.35796 1.11156,-2.28005 2.24414,-2.76758 0.57121,-0.24245 1.21646,-0.36654 1.9375,-0.37109 z m -0.42383,2.6914 c -0.51574,-0.0433 -0.91361,0.008 -1.19531,0.1543 -0.28433,0.15584 -0.4792,0.42482 -0.58203,0.80859 -0.10547,0.39361 -0.0713,0.7249 0.0996,0.99219 0.16832,0.27713 0.48228,0.51864 0.94336,0.72656 0.46828,0.2204 1.13601,0.44766 2.00195,0.67969 0.88563,0.2373 1.59544,0.37919 2.13086,0.42773 0.53543,0.0486 0.94997,-0.003 1.24414,-0.15625 0.29154,-0.14336 0.48897,-0.40724 0.5918,-0.79101 0.10019,-0.37393 0.0571,-0.70197 -0.13086,-0.98438 -0.1808,-0.26992 -0.51594,-0.51847 -1.00391,-0.74414 -0.48796,-0.22567 -1.16913,-0.45478 -2.04492,-0.68945 -0.8561,-0.22939 -1.54158,-0.37072 -2.05469,-0.42383 z m -2.125,6.82227 c 0.72104,-0.005 1.51781,0.1104 2.38868,0.34375 1.16115,0.31113 2.11072,0.74473 2.84765,1.30078 0.7343,0.56589 1.23187,1.221 1.49609,1.9668 0.26159,0.75563 0.27442,1.57726 0.0371,2.46289 -0.23466,0.87578 -0.65218,1.57022 -1.2539,2.08398 -0.60436,0.5236 -1.36502,0.84199 -2.28125,0.95508 -0.91887,0.12293 -1.95994,0.0279 -3.1211,-0.28321 -1.74172,-0.46669 -2.9855,-1.1944 -3.73242,-2.18554 -0.73707,-0.98851 -0.92372,-2.15774 -0.5625,-3.50586 0.36387,-1.35796 1.11156,-2.28004 2.24414,-2.76758 0.57121,-0.24245 1.21647,-0.36654 1.9375,-0.37109 z m -0.42382,2.6914 c -0.51575,-0.0433 -0.91362,0.008 -1.19532,0.1543 -0.28433,0.15584 -0.4792,0.42482 -0.58203,0.80859 -0.10547,0.39361 -0.0714,0.7249 0.0996,0.99219 0.16832,0.27713 0.48228,0.51864 0.94336,0.72656 0.46828,0.2204 1.13601,0.44766 2.00195,0.67969 0.88563,0.2373 1.59544,0.37919 2.13086,0.42774 0.53543,0.0485 0.94997,-0.003 1.24414,-0.15625 0.29154,-0.14337 0.48897,-0.40725 0.5918,-0.79102 0.10019,-0.37393 0.0571,-0.70197 -0.13086,-0.98437 -0.1808,-0.26993 -0.51594,-0.51848 -1.00391,-0.74415 -0.48796,-0.22567 -1.16913,-0.45478 -2.04492,-0.68945 -0.8561,-0.22939 -1.54158,-0.37071 -2.05468,-0.42383 z m -5.51368,7.46875 7.7793,2.08399 0.49414,-1.84571 1.34375,0.36133 c -0.22939,0.85611 -0.27008,1.54069 -0.12305,2.05469 0.15424,0.52648 0.46785,0.889127 0.94141,1.089844 l -0.43945,1.638672 -10.67188,-2.859376 z m -1.66015,6.197269 7.77929,2.083984 0.49414,-1.84375 1.3418,0.359375 c -0.22939,0.856104 -0.27008,1.540684 -0.12305,2.054688 0.15424,0.52648 0.46785,0.89108 0.94141,1.091796 l -0.4375,1.638672 -10.67187,-2.859375 z m 1.71875,5.582031 c 0.72103,-0.0046 1.5178,0.110403 2.38867,0.34375 1.16115,0.31113 2.11072,0.744729 2.84765,1.300781 0.7343,0.565892 1.23383,1.221005 1.49805,1.966797 0.26159,0.755633 0.27246,1.577266 0.0352,2.462891 -0.23467,0.875785 -0.65219,1.570221 -1.25391,2.083984 -0.60436,0.523604 -1.36502,0.841991 -2.28125,0.955078 -0.91887,0.122928 -1.95799,0.02793 -3.11914,-0.283203 -1.74173,-0.466695 -2.98746,-1.194403 -3.73437,-2.185547 -0.73708,-0.988507 -0.92373,-2.157741 -0.5625,-3.505859 0.36386,-1.357959 1.11156,-2.280043 2.24414,-2.767578 0.57121,-0.242449 1.21646,-0.366543 1.9375,-0.371094 z m -0.42383,2.689453 c -0.51575,-0.04327 -0.91362,0.0083 -1.19531,0.154297 -0.28434,0.155842 -0.4792,0.426776 -0.58204,0.810547 -0.10546,0.393611 -0.0713,0.722944 0.0996,0.990234 0.16832,0.27713 0.48228,0.520596 0.94336,0.728516 0.46829,0.220397 1.13601,0.445705 2.00196,0.677734 0.88562,0.237303 1.59543,0.381142 2.13086,0.429688 0.53542,0.04855 0.94996,-0.005 1.24414,-0.158203 0.29153,-0.143366 0.48896,-0.405292 0.59179,-0.789063 0.1002,-0.37393 0.0571,-0.701971 -0.13086,-0.984375 -0.18079,-0.269926 -0.51594,-0.51847 -1.0039,-0.74414 -0.48797,-0.225671 -1.16914,-0.456741 -2.04492,-0.691407 -0.85611,-0.229392 -1.54158,-0.370715 -2.05469,-0.423828 z m -5.51367,7.46875 7.77929,2.085938 0.49414,-1.845703 1.34375,0.359374 c -0.22939,0.856105 -0.27008,1.540685 -0.12304,2.054688 0.15424,0.52648 0.46785,0.89108 0.9414,1.091797 l -0.43945,1.638672 -10.67187,-2.859375 z m 1.7207,5.582031 c 0.72104,-0.0045 1.51781,0.110403 2.38867,0.34375 1.16115,0.31113 2.10877,0.74473 2.84571,1.300782 0.73429,0.565892 1.23382,1.221004 1.49804,1.966796 0.26159,0.755633 0.27441,1.577266 0.0371,2.462891 -0.23466,0.875785 -0.65218,1.570221 -1.25391,2.083985 -0.60435,0.523603 -1.36501,0.841991 -2.28124,0.955078 -0.91887,0.122927 -1.95995,0.02793 -3.1211,-0.283204 -1.74173,-0.466694 -2.98551,-1.194403 -3.73242,-2.185546 -0.73707,-0.988507 -0.92568,-2.157742 -0.56445,-3.50586 0.36386,-1.357958 1.11351,-2.280043 2.24609,-2.767578 0.57121,-0.242449 1.21646,-0.366543 1.9375,-0.371094 z m -0.42383,2.691407 c -0.51574,-0.04327 -0.91557,0.0083 -1.19726,0.154297 -0.28434,0.155842 -0.47725,0.424822 -0.58008,0.808593 -0.10547,0.393611 -0.0733,0.724898 0.0977,0.992188 0.16832,0.27713 0.48424,0.518642 0.94532,0.726562 0.46828,0.220397 1.13405,0.447659 2,0.679688 0.88562,0.237302 1.59738,0.379189 2.13281,0.427734 0.53542,0.04855 0.94997,-0.003 1.24414,-0.15625 0.29154,-0.143365 0.48897,-0.407245 0.5918,-0.791015 0.10019,-0.373931 0.0552,-0.701972 -0.13282,-0.984376 -0.18079,-0.269926 -0.51398,-0.51847 -1.00195,-0.74414 -0.48796,-0.225671 -1.17109,-0.454787 -2.04687,-0.689453 -0.85611,-0.229393 -1.53963,-0.370716 -2.05274,-0.423828 z m -2.125,6.822265 c 0.72104,-0.0046 1.51586,0.110403 2.38672,0.34375 1.16115,0.31113 2.11072,0.74473 2.84766,1.300782 0.7343,0.565892 1.23382,1.221004 1.49804,1.966796 0.26159,0.755633 0.27442,1.577266 0.0371,2.462891 -0.23466,0.875785 -0.65414,1.570221 -1.25586,2.083984 -0.60435,0.523604 -1.36306,0.841991 -2.27929,0.955079 -0.91887,0.122927 -1.95994,0.02793 -3.1211,-0.283204 -1.74173,-0.466695 -2.9855,-1.194403 -3.73242,-2.185546 -0.73707,-0.988507 -0.92568,-2.157742 -0.56445,-3.50586 0.36386,-1.357958 1.11156,-2.280043 2.24414,-2.767578 0.57121,-0.242449 1.21841,-0.366543 1.93945,-0.371094 z m -0.42383,2.691406 c -0.51574,-0.04327 -0.91556,0.0063 -1.19726,0.152344 -0.28434,0.155842 -0.47725,0.426776 -0.58008,0.810547 -0.10547,0.393611 -0.0733,0.722945 0.0977,0.990235 0.16832,0.27713 0.48423,0.520595 0.94531,0.728515 0.46828,0.220397 1.13405,0.445705 2,0.677735 0.88562,0.237302 1.59739,0.381141 2.13281,0.429687 0.53543,0.04855 0.94997,-0.003 1.24414,-0.15625 0.29154,-0.143365 0.48897,-0.407245 0.5918,-0.791016 0.10019,-0.37393 0.0552,-0.701971 -0.13281,-0.984375 -0.1808,-0.269926 -0.51399,-0.51847 -1.00196,-0.74414 -0.48796,-0.225671 -1.17109,-0.454788 -2.04687,-0.689453 -0.85611,-0.229393 -1.53963,-0.370716 -2.05274,-0.423829 z m -5.51367,7.46875 7.7793,2.083985 0.49414,-1.845703 1.3418,0.359375 c -0.2294,0.856104 -0.27009,1.542637 -0.12305,2.05664 0.15424,0.526481 0.46785,0.889127 0.94141,1.089844 l -0.43946,1.638672 -10.66992,-2.859375 z m -1.66211,6.197266 7.7793,2.083984 0.49414,-1.84375 1.34375,0.359376 c -0.22939,0.856104 -0.27008,1.540684 -0.12305,2.054687 0.15424,0.52648 0.46785,0.89108 0.94141,1.091797 l -0.43945,1.636719 -10.67188,-2.859375 z m 1.72071,5.582031 c 0.72103,-0.0046 1.5178,0.10845 2.38867,0.341797 1.16115,0.31113 2.10876,0.74473 2.8457,1.300782 0.7343,0.565892 1.23382,1.222957 1.49805,1.96875 0.26158,0.755632 0.27441,1.575312 0.0371,2.460937 -0.23467,0.875785 -0.65219,1.572174 -1.25391,2.085937 -0.60436,0.523604 -1.36502,0.840038 -2.28125,0.953126 -0.91887,0.122927 -1.95994,0.02988 -3.12109,-0.28125 -1.74173,-0.466695 -2.98551,-1.196357 -3.73243,-2.1875 -0.73707,-0.988507 -0.92568,-2.155789 -0.56445,-3.503907 0.36387,-1.357958 1.11352,-2.281996 2.2461,-2.769531 0.57121,-0.242449 1.21646,-0.36459 1.9375,-0.369141 z m -0.42383,2.689453 c -0.51575,-0.04327 -0.91557,0.0083 -1.19727,0.154297 -0.28433,0.155843 -0.47725,0.426776 -0.58008,0.810547 -0.10546,0.393611 -0.0733,0.722945 0.0977,0.990235 0.16832,0.27713 0.48423,0.520595 0.94531,0.728515 0.46829,0.220397 1.13406,0.445706 2,0.677735 0.88563,0.237302 1.59739,0.381142 2.13282,0.429687 0.53542,0.04855 0.94996,-0.005 1.24414,-0.158203 0.29153,-0.143365 0.48896,-0.407245 0.59179,-0.791016 0.1002,-0.37393 0.0552,-0.701971 -0.13281,-0.984375 -0.1808,-0.269926 -0.51399,-0.516517 -1.00195,-0.742187 -0.48797,-0.225671 -1.17109,-0.456741 -2.04688,-0.691406 -0.8561,-0.229393 -1.53963,-0.370716 -2.05273,-0.423829 z m -5.51367,7.46875 7.77929,2.083985 0.49414,-1.84375 1.34375,0.359375 c -0.22939,0.856104 -0.27203,1.540684 -0.125,2.054687 0.15424,0.526481 0.46785,0.891081 0.94141,1.091797 l -0.4375,1.638672 -10.67188,-2.859375 z m -1.66016,6.199219 7.77734,2.083985 0.4961,-1.845704 1.34179,0.361329 c -0.22939,0.856104 -0.27008,1.540684 -0.12304,2.054687 0.15424,0.52648 0.46785,0.889127 0.9414,1.089844 l -0.43945,1.638672 -10.67187,-2.859375 z m 1.71875,5.580078 c 0.72104,-0.0046 1.51781,0.110403 2.38867,0.34375 1.16115,0.31113 2.11072,0.74473 2.84766,1.300782 0.7343,0.565892 1.23187,1.222957 1.49609,1.96875 0.26159,0.755632 0.27441,1.575312 0.0371,2.460937 -0.23467,0.875785 -0.65218,1.570221 -1.25391,2.083984 -0.60435,0.523604 -1.36501,0.841992 -2.28125,0.955079 -0.91886,0.122927 -1.95798,0.02988 -3.11914,-0.28125 -1.74173,-0.466695 -2.98746,-1.196357 -3.73437,-2.1875 -0.73708,-0.988507 -0.92373,-2.157742 -0.5625,-3.50586 0.36386,-1.357958 1.11156,-2.280043 2.24414,-2.767578 0.57121,-0.242449 1.21646,-0.366543 1.9375,-0.371094 z m -0.42383,2.691407 c -0.51574,-0.04327 -0.91361,0.0083 -1.19531,0.154296 -0.28433,0.155843 -0.4792,0.424823 -0.58203,0.808594 -0.10547,0.393611 -0.0714,0.724898 0.0996,0.992188 0.16832,0.27713 0.48228,0.518642 0.94336,0.726562 0.46828,0.220397 1.136,0.447659 2.00195,0.679688 0.88562,0.237302 1.59543,0.379189 2.13086,0.427734 0.53542,0.04855 0.94997,-0.003 1.24414,-0.15625 0.29154,-0.143365 0.48897,-0.407245 0.5918,-0.791016 0.10019,-0.37393 0.0571,-0.701971 -0.13086,-0.984374 -0.1808,-0.269927 -0.51595,-0.518471 -1.00391,-0.744141 -0.48796,-0.225671 -1.16914,-0.454787 -2.04492,-0.689453 -0.85611,-0.229393 -1.54158,-0.370716 -2.05469,-0.423828 z m -5.51367,7.46875 7.7793,2.083984 0.49414,-1.845703 1.34375,0.361328 c -0.2294,0.856104 -0.27009,1.540684 -0.12305,2.0546875 0.15424,0.5264802 0.46785,0.8891271 0.94141,1.0898437 l -0.43946,1.6386719 -10.67187,-2.859375 z m 1.7207,5.5820309 c 0.72104,-0.00455 1.51586,0.1084494 2.38672,0.3417969 1.16115,0.3111299 2.11072,0.7447294 2.84766,1.3007812 0.7343,0.5658921 1.23382,1.2229576 1.49804,1.96875 0.26159,0.7556326 0.27442,1.5753125 0.0371,2.4609375 -0.23466,0.87578475 -0.65413,1.57022114 -1.25586,2.0839844 -0.60435,0.5236035 -1.36306,0.841991 -2.27929,0.9550781 -0.91887,0.1229274 -1.95994,0.02988 -3.1211,-0.28125 -1.74173,-0.4666949 -2.9855,-1.19635646 -3.73242,-2.1875 -0.73707,-0.9885068 -0.92568,-2.1557881 -0.56445,-3.5039062 0.36386,-1.3579584 1.11156,-2.2819964 2.24414,-2.7695313 0.57121,-0.2424491 1.21842,-0.3645898 1.93945,-0.3691406 z M 953.67773,-4 c -0.51574,-0.043272 -0.91556,0.00829 -1.19726,0.1542969 -0.28433,0.1558421 -0.47725,0.4248229 -0.58008,0.8085937 -0.10547,0.3936112 -0.0733,0.7248977 0.0977,0.9921875 0.16832,0.2771301 0.48423,0.5205954 0.94531,0.7285157 0.46828,0.2203972 1.13405,0.4457052 2,0.67773432 0.88562,0.23730252 1.59739,0.38114189 2.13281,0.4296875 0.53543,0.0485456 0.94997,-0.004998 1.24414,-0.15820312 0.29154,-0.14336517 0.48897,-0.40724478 0.5918,-0.7910156 0.10019,-0.3739306 0.0552,-0.7019715 -0.13281,-0.984375 -0.1808,-0.2699265 -0.51399,-0.5165169 -1.00196,-0.7421875 -0.48796,-0.2256706 -1.17109,-0.4567405 -2.04687,-0.6914063 C 954.87436,-3.8055643 954.19084,-3.9468875 953.67773,-4 Z"
           transform="matrix(0.26458333,0,0,0.26458333,0,135.60415)"
           id="path1361" />
      </g>
    </g>
    <text
       xml:space="preserve"
       style="font-style:normal;font-variant:normal;font-weight:800;font-stretch:normal;font-size:4.62256098px;line-height:125%;font-family:'Public Sans';-inkscape-font-specification:'Public Sans Ultra-Bold';letter-spacing:0px;word-spacing:0px;fill:#b3b3b3;fill-opacity:1;stroke:none;stroke-width:0.3852134px;stroke-linecap:butt;stroke-linejoin:miter;stroke-opacity:1"
       x="-12.331091"
       y="152.32921"
       id="text889"><tspan
         sodipodi:role="line"
         id="tspan887"
         x="-12.331091"
         y="152.32921"
         style="font-style:normal;font-variant:normal;font-weight:800;font-stretch:normal;font-family:'Public Sans';-inkscape-font-specification:'Public Sans Ultra-Bold';fill:#b3b3b3;stroke-width:0.3852134px">DATI APERTI IN ITALIA DAL 2010</tspan></text>
  </g>
</svg>
