<?xml version="1.0" encoding="UTF-8" standalone="no"?>
<!-- Created with Inkscape (http://www.inkscape.org/) -->

<svg
   xmlns:dc="http://purl.org/dc/elements/1.1/"
   xmlns:cc="http://creativecommons.org/ns#"
   xmlns:rdf="http://www.w3.org/1999/02/22-rdf-syntax-ns#"
   xmlns:svg="http://www.w3.org/2000/svg"
   xmlns="http://www.w3.org/2000/svg"
   xmlns:sodipodi="http://sodipodi.sourceforge.net/DTD/sodipodi-0.dtd"
   xmlns:inkscape="http://www.inkscape.org/namespaces/inkscape"
   width="610"
   height="610"
   id="svg2"
   version="1.1"
   inkscape:version="0.92.2 5c3e80d, 2017-08-06"
   sodipodi:docname="Spaghetti_open_data_logo2019__floppy.svg"
   inkscape:export-filename="/Users/lucacorsato/Documents/lavori/spaghetti open data 2019/png/Spaghetti_open_data_logo2019__floppy.png"
   inkscape:export-xdpi="300"
   inkscape:export-ydpi="300">
  <defs
     id="defs4">
    <linearGradient
       id="linearGradient3874">
      <stop
         style="stop-color:#0f0f0f;stop-opacity:1;"
         offset="0"
         id="stop3876" />
      <stop
         style="stop-color:#4b4b4b;stop-opacity:1;"
         offset="1"
         id="stop3878" />
    </linearGradient>
  </defs>
  <sodipodi:namedview
     id="base"
     pagecolor="#ffffff"
     bordercolor="#666666"
     borderopacity="1.0"
     inkscape:pageopacity="0.0"
     inkscape:pageshadow="2"
     inkscape:zoom="0.5"
     inkscape:cx="726.19958"
     inkscape:cy="163.24123"
     inkscape:document-units="mm"
     inkscape:current-layer="layer1"
     showgrid="false"
     inkscape:window-width="1920"
     inkscape:window-height="1097"
     inkscape:window-x="0"
     inkscape:window-y="1"
     inkscape:window-maximized="1"
     units="cm"
     inkscape:snap-bbox="true"
     inkscape:bbox-paths="true"
     inkscape:bbox-nodes="true"
     inkscape:snap-bbox-edge-midpoints="true"
     inkscape:snap-bbox-midpoints="true"
     inkscape:object-paths="true"
     inkscape:snap-intersection-paths="true"
     inkscape:snap-smooth-nodes="true"
     inkscape:snap-midpoints="true"
     inkscape:snap-object-midpoints="true"
     inkscape:snap-center="true"
     inkscape:snap-text-baseline="true"
     inkscape:snap-page="true"
     inkscape:snap-global="false" />
  <metadata
     id="metadata7">
    <rdf:RDF>
      <cc:Work
         rdf:about="">
        <dc:format>image/svg+xml</dc:format>
        <dc:type
           rdf:resource="http://purl.org/dc/dcmitype/StillImage" />
        <dc:title />
      </cc:Work>
    </rdf:RDF>
  </metadata>
  <g
     inkscape:label="Layer 1"
     inkscape:groupmode="layer"
     id="layer1"
     transform="translate(0,-442.36087)">
    <path
       style="fill:#4b4b4b;fill-opacity:1;stroke:none;stroke-width:1.30420244"
       d="M 304.97962,442.36087 C 136.53358,442.36087 3.5e-5,578.89442 3.5e-5,747.34046 c 0,168.44604 136.533555,305.02044 304.979585,305.02044 168.44604,0 305.02034,-136.5744 305.02034,-305.02044 0,-168.44604 -136.5743,-304.97959 -305.02034,-304.97959 z m 0,239.15812 c 36.36903,0 65.86222,29.45244 65.86222,65.82147 0,36.36903 -29.49319,65.86222 -65.86222,65.86222 -36.36903,0 -65.86221,-29.49319 -65.86221,-65.86222 0,-36.36903 29.49318,-65.82147 65.86221,-65.82147 z"
       id="path3861"
       inkscape:connector-curvature="0" />
    <path
       style="fill:#1a1a1a;fill-opacity:1;fill-rule:evenodd;stroke:none;stroke-width:1.2944026"
       d="M 6.8828125 0 L 0.005859375 6.8769531 L 0.005859375 603.12305 L 4.578125 603.12305 L 4.578125 610 L 233.92969 610 C 233.92969 606.2005 237.00709 603.12305 240.80664 603.12305 C 244.60619 603.12305 247.68164 606.2005 247.68164 610 L 352.4082 610 L 362.31836 610 C 362.31836 606.2005 365.4348 603.12305 369.23438 603.12305 C 373.03393 603.12305 376.11133 606.2005 376.11133 610 L 389.86523 610 L 419.7168 610 L 605.42188 610 L 605.42188 603.12305 L 609.99414 603.12305 L 609.99414 169.7207 L 591.66992 169.7207 L 591.66992 142.17578 L 609.99414 142.17578 L 609.99414 6.8769531 L 603.11719 0 L 6.8828125 0 z M 225.15234 133.27148 C 225.84034 133.27148 226.43173 133.44683 226.92773 133.79883 C 227.43173 134.14283 227.81608 134.65222 228.08008 135.32422 C 228.35208 135.99622 228.48828 136.80777 228.48828 137.75977 C 228.48828 139.18377 228.19533 140.27887 227.61133 141.04688 C 227.02733 141.80687 226.20834 142.1875 225.15234 142.1875 C 224.09634 142.1875 223.27169 141.80687 222.67969 141.04688 C 222.09569 140.28688 221.80469 139.19548 221.80469 137.77148 C 221.80469 136.81948 221.93522 136.00794 222.19922 135.33594 C 222.47122 134.65594 222.85928 134.14283 223.36328 133.79883 C 223.86728 133.44683 224.46434 133.27148 225.15234 133.27148 z M 217.66211 133.2832 C 218.28611 133.2832 218.83269 133.39142 219.30469 133.60742 C 219.77669 133.82342 220.14244 134.12753 220.39844 134.51953 C 220.65444 134.91153 220.78125 135.37239 220.78125 135.90039 C 220.78125 136.47639 220.66559 136.94841 220.43359 137.31641 C 220.20959 137.67641 219.93719 137.95625 219.61719 138.15625 C 219.29719 138.35625 218.88114 138.56702 218.36914 138.79102 C 217.96914 138.95902 217.65387 139.11205 217.42188 139.24805 C 217.18987 139.37605 216.99398 139.54395 216.83398 139.75195 C 216.68198 139.95995 216.60175 140.21553 216.59375 140.51953 L 216.59375 140.60352 L 220.86523 140.60352 L 220.86523 142.08008 L 214.39844 142.08008 L 214.39844 140.77148 C 214.39844 140.23548 214.52153 139.7803 214.76953 139.4043 C 215.02553 139.0203 215.32964 138.71247 215.68164 138.48047 C 216.04164 138.24047 216.50994 137.9755 217.08594 137.6875 C 217.51794 137.4635 217.85375 137.27877 218.09375 137.13477 C 218.34175 136.98277 218.54508 136.80742 218.70508 136.60742 C 218.86508 136.39942 218.94531 136.16811 218.94531 135.91211 C 218.94531 135.54411 218.8185 135.25487 218.5625 135.04688 C 218.3065 134.83888 217.98928 134.73633 217.61328 134.73633 C 217.22928 134.73633 216.88603 134.83888 216.58203 135.04688 C 216.28603 135.24687 216.06585 135.56781 215.92188 136.00781 L 214.30078 135.90039 C 214.40478 135.10039 214.74059 134.46419 215.30859 133.99219 C 215.88459 133.52019 216.67011 133.2832 217.66211 133.2832 z M 237.58398 133.2832 C 238.20798 133.2832 238.75456 133.39142 239.22656 133.60742 C 239.69856 133.82342 240.06431 134.12753 240.32031 134.51953 C 240.57631 134.91153 240.70313 135.37239 240.70312 135.90039 C 240.70313 136.47639 240.58747 136.94841 240.35547 137.31641 C 240.13147 137.67641 239.85906 137.95625 239.53906 138.15625 C 239.21906 138.35625 238.80302 138.56702 238.29102 138.79102 C 237.89102 138.95902 237.57575 139.11205 237.34375 139.24805 C 237.11175 139.37605 236.91586 139.54395 236.75586 139.75195 C 236.60386 139.95995 236.52363 140.21553 236.51562 140.51953 L 236.51562 140.60352 L 240.78711 140.60352 L 240.78711 142.08008 L 234.32031 142.08008 L 234.32031 140.77148 C 234.32031 140.23548 234.44341 139.7803 234.69141 139.4043 C 234.94741 139.0203 235.25152 138.71247 235.60352 138.48047 C 235.96352 138.24047 236.43181 137.9755 237.00781 137.6875 C 237.43981 137.4635 237.77562 137.27877 238.01562 137.13477 C 238.26363 136.98277 238.46695 136.80742 238.62695 136.60742 C 238.78695 136.39942 238.86719 136.16811 238.86719 135.91211 C 238.86719 135.54411 238.74038 135.25487 238.48438 135.04688 C 238.22837 134.83888 237.91116 134.73633 237.53516 134.73633 C 237.15116 134.73633 236.80791 134.83888 236.50391 135.04688 C 236.20791 135.24687 235.98775 135.56781 235.84375 136.00781 L 234.22266 135.90039 C 234.32666 135.10039 234.66247 134.46419 235.23047 133.99219 C 235.80647 133.52019 236.59198 133.2832 237.58398 133.2832 z M 56.910156 133.4043 C 58.142156 133.4043 59.005953 133.40802 59.501953 133.41602 C 61.037953 133.44802 62.168484 133.83608 62.896484 134.58008 C 63.632484 135.32408 64.001953 136.36322 64.001953 137.69922 C 64.001953 139.08322 63.621328 140.15973 62.861328 140.92773 C 62.101328 141.69573 60.961406 142.08008 59.441406 142.08008 L 56.910156 142.08008 L 56.910156 133.4043 z M 67.314453 133.4043 L 69.162109 133.4043 L 72.257812 142.08008 L 70.517578 142.08008 L 69.810547 140.06445 L 66.689453 140.06445 L 65.958984 142.08008 L 64.207031 142.08008 L 67.314453 133.4043 z M 72.289062 133.4043 L 79.236328 133.4043 L 79.236328 134.96289 L 76.669922 134.96289 L 76.669922 142.08008 L 74.917969 142.08008 L 74.917969 134.96289 L 72.289062 134.96289 L 72.289062 133.4043 z M 80.394531 133.4043 L 82.146484 133.4043 L 82.146484 142.08008 L 80.394531 142.08008 L 80.394531 133.4043 z M 89.205078 133.4043 L 91.052734 133.4043 L 94.148438 142.08008 L 92.408203 142.08008 L 91.701172 140.06445 L 88.580078 140.06445 L 87.849609 142.08008 L 86.097656 142.08008 L 89.205078 133.4043 z M 95.417969 133.4043 L 98.609375 133.4043 C 99.249375 133.4043 99.816497 133.51623 100.3125 133.74023 C 100.8165 133.95623 101.21395 134.27894 101.50195 134.71094 C 101.78995 135.13494 101.93359 135.64805 101.93359 136.24805 C 101.93359 137.10405 101.65375 137.77567 101.09375 138.26367 C 100.53375 138.74367 99.781893 138.98438 98.837891 138.98438 L 97.181641 138.98438 L 97.181641 142.08008 L 95.417969 142.08008 L 95.417969 133.4043 z M 103.26953 133.4043 L 109.23242 133.4043 L 109.2207 134.87891 L 105.0332 134.87891 L 105.0332 136.98047 L 108.66797 136.98047 L 108.66797 138.43164 L 105.02148 138.43164 L 105.02148 140.58008 L 109.29297 140.5918 L 109.29297 142.08008 L 103.26953 142.08008 L 103.26953 133.4043 z M 110.98047 133.4043 L 114.64062 133.4043 C 115.64062 133.4043 116.38681 133.63561 116.88281 134.09961 C 117.37881 134.56361 117.62695 135.19609 117.62695 135.99609 C 117.62695 136.62809 117.48703 137.13553 117.20703 137.51953 C 116.93503 137.90353 116.56752 138.21136 116.10352 138.44336 L 117.71094 142.08008 L 115.90039 142.08008 L 114.48438 138.73242 L 112.73242 138.73242 L 112.73242 142.08008 L 110.98047 142.08008 L 110.98047 133.4043 z M 118.46094 133.4043 L 125.4082 133.4043 L 125.4082 134.96289 L 122.8418 134.96289 L 122.8418 142.08008 L 121.08984 142.08008 L 121.08984 134.96289 L 118.46094 134.96289 L 118.46094 133.4043 z M 126.56641 133.4043 L 128.31836 133.4043 L 128.31836 142.08008 L 126.56641 142.08008 L 126.56641 133.4043 z M 132.94141 133.4043 L 134.69336 133.4043 L 134.69336 142.08008 L 132.94141 142.08008 L 132.94141 133.4043 z M 136.62109 133.4043 L 138.35938 133.4043 L 142.30859 139.15234 L 142.30859 133.4043 L 144.07227 133.4043 L 144.07227 142.08008 L 142.48828 142.08008 L 138.37305 136.11523 L 138.37305 142.08008 L 136.62109 142.08008 L 136.62109 133.4043 z M 148.49805 133.4043 L 150.25 133.4043 L 150.25 142.08008 L 148.49805 142.08008 L 148.49805 133.4043 z M 151.22656 133.4043 L 158.17383 133.4043 L 158.17383 134.96289 L 155.60742 134.96289 L 155.60742 142.08008 L 153.85547 142.08008 L 153.85547 134.96289 L 151.22656 134.96289 L 151.22656 133.4043 z M 160.66602 133.4043 L 162.51367 133.4043 L 165.60938 142.08008 L 163.86914 142.08008 L 163.16211 140.06445 L 160.04102 140.06445 L 159.31055 142.08008 L 157.55859 142.08008 L 160.66602 133.4043 z M 166.87891 133.4043 L 168.64258 133.4043 L 168.64258 140.60352 L 172.41016 140.60352 L 172.41016 142.08008 L 166.87891 142.08008 L 166.87891 133.4043 z M 173.72266 133.4043 L 175.47461 133.4043 L 175.47461 142.08008 L 173.72266 142.08008 L 173.72266 133.4043 z M 179.83789 133.4043 L 181.68555 133.4043 L 184.78125 142.08008 L 183.04102 142.08008 L 182.33398 140.06445 L 179.21289 140.06445 L 178.48242 142.08008 L 176.73047 142.08008 L 179.83789 133.4043 z M 188.74609 133.4043 C 189.97809 133.4043 190.84189 133.40802 191.33789 133.41602 C 192.87389 133.44802 194.00442 133.83608 194.73242 134.58008 C 195.46842 135.32408 195.83789 136.36322 195.83789 137.69922 C 195.83789 139.08322 195.45727 140.15973 194.69727 140.92773 C 193.93727 141.69573 192.79734 142.08008 191.27734 142.08008 L 188.74609 142.08008 L 188.74609 133.4043 z M 199.15039 133.4043 L 200.99805 133.4043 L 204.09375 142.08008 L 202.35352 142.08008 L 201.64648 140.06445 L 198.52539 140.06445 L 197.79492 142.08008 L 196.04297 142.08008 L 199.15039 133.4043 z M 205.36328 133.4043 L 207.12695 133.4043 L 207.12695 140.60352 L 210.89453 140.60352 L 210.89453 142.08008 L 205.36328 142.08008 L 205.36328 133.4043 z M 231.46094 133.4043 L 232.625 133.4043 L 232.625 142.08008 L 230.84961 142.08008 L 230.84961 135.55078 L 229.30078 135.55078 L 229.30078 134.5918 C 230.02078 134.5918 230.54877 134.49102 230.88477 134.29102 C 231.22877 134.09102 231.42094 133.7963 231.46094 133.4043 z M 225.14062 134.66406 C 224.63662 134.66406 224.27655 134.90281 224.06055 135.38281 C 223.84455 135.86281 223.73633 136.65948 223.73633 137.77148 C 223.73633 138.49948 223.77919 139.08344 223.86719 139.52344 C 223.96319 139.95544 224.1125 140.2707 224.3125 140.4707 C 224.5205 140.6707 224.80034 140.77148 225.15234 140.77148 C 225.50434 140.77148 225.78047 140.6707 225.98047 140.4707 C 226.18847 140.2707 226.33583 139.95544 226.42383 139.52344 C 226.51183 139.09144 226.55664 138.50748 226.55664 137.77148 C 226.55664 137.01948 226.50811 136.4187 226.41211 135.9707 C 226.32411 135.5147 226.17675 135.18261 225.96875 134.97461 C 225.76075 134.76661 225.48462 134.66406 225.14062 134.66406 z M 112.73242 134.73633 L 112.73242 137.38672 L 114.32812 137.38672 C 114.79212 137.38672 115.15964 137.26363 115.43164 137.01562 C 115.71164 136.76763 115.85156 136.44297 115.85156 136.04297 C 115.85156 135.64297 115.71908 135.3277 115.45508 135.0957 C 115.19908 134.8557 114.86698 134.73633 114.45898 134.73633 L 112.73242 134.73633 z M 97.169922 134.74805 L 97.169922 137.62695 L 98.789062 137.62695 C 99.221063 137.62695 99.577422 137.48703 99.857422 137.20703 C 100.14542 136.92703 100.28906 136.57634 100.28906 136.15234 C 100.28906 135.72834 100.14542 135.38686 99.857422 135.13086 C 99.569422 134.87486 99.205625 134.74805 98.765625 134.74805 L 97.169922 134.74805 z M 58.673828 134.82031 L 58.673828 140.66406 L 59.476562 140.66406 C 60.284563 140.66406 60.933875 140.42708 61.421875 139.95508 C 61.917875 139.47508 62.166016 138.7195 62.166016 137.6875 C 62.166016 136.7035 61.93275 135.97963 61.46875 135.51562 C 61.01275 135.05163 60.357953 134.82031 59.501953 134.82031 L 58.673828 134.82031 z M 190.50977 134.82031 L 190.50977 140.66406 L 191.3125 140.66406 C 192.1205 140.66406 192.76981 140.42708 193.25781 139.95508 C 193.75381 139.47508 194.00195 138.7195 194.00195 137.6875 C 194.00195 136.7035 193.76869 135.97963 193.30469 135.51562 C 192.84869 135.05163 192.19389 134.82031 191.33789 134.82031 L 190.50977 134.82031 z M 68.238281 135.0957 L 67.074219 138.53906 L 69.390625 138.53906 L 68.238281 135.0957 z M 90.128906 135.0957 L 88.964844 138.53906 L 91.28125 138.53906 L 90.128906 135.0957 z M 161.58984 135.0957 L 160.42578 138.53906 L 162.74219 138.53906 L 161.58984 135.0957 z M 180.76172 135.0957 L 179.59766 138.53906 L 181.91406 138.53906 L 180.76172 135.0957 z M 200.07422 135.0957 L 198.91016 138.53906 L 201.22656 138.53906 L 200.07422 135.0957 z M 305 213.2832 C 355.6607 213.2832 396.74023 254.32207 396.74023 304.98047 C 396.74023 355.63888 355.6607 396.7168 305 396.7168 C 254.3393 396.7168 213.25977 355.63888 213.25977 304.98047 C 213.25977 254.32207 254.3393 213.2832 305 213.2832 z M 417.37109 325.64844 C 424.97019 325.64844 431.12305 331.80163 431.12305 339.40039 C 431.12305 346.99914 424.97019 353.1543 417.37109 353.1543 C 409.77199 353.1543 403.61719 346.99914 403.61719 339.40039 C 403.61719 331.80163 409.77199 325.64844 417.37109 325.64844 z M 305 435.70898 C 321.51586 435.70898 334.8125 449.00442 334.8125 465.51953 L 334.8125 566.39648 C 334.8125 582.91158 321.51586 596.20703 305 596.20703 C 288.48413 596.20703 275.1875 582.91158 275.1875 566.39648 L 275.1875 465.51953 C 275.1875 449.00442 288.48413 435.70898 305 435.70898 z "
       transform="translate(0,442.36087)"
       id="rect2985" />
    <g
       id="g1318"
       transform="translate(1841.9101,587.52904)" />
    <g
       id="g1320"
       transform="translate(1841.9101,587.52904)" />
    <g
       id="g1322"
       transform="translate(1841.9101,587.52904)" />
    <g
       id="g1324"
       transform="translate(1841.9101,587.52904)" />
    <g
       id="g1326"
       transform="translate(1841.9101,587.52904)" />
    <g
       id="g1328"
       transform="translate(1841.9101,587.52904)" />
    <g
       id="g1330"
       transform="translate(1841.9101,587.52904)" />
    <g
       id="g1332"
       transform="translate(1841.9101,587.52904)" />
    <g
       id="g1334"
       transform="translate(1841.9101,587.52904)" />
    <g
       id="g1336"
       transform="translate(1841.9101,587.52904)" />
    <g
       id="g1338"
       transform="translate(1841.9101,587.52904)" />
    <g
       id="g1340"
       transform="translate(1841.9101,587.52904)" />
    <g
       id="g1342"
       transform="translate(1841.9101,587.52904)" />
    <g
       id="g1344"
       transform="translate(1841.9101,587.52904)" />
    <g
       id="g1346"
       transform="translate(1841.9101,587.52904)" />
    <g
       transform="matrix(3.2280861,0,0,3.2280861,-514.302,-91.75981)"
       id="g1495"
       style="fill:#ffffff">
      <path
         id="path1485"
         d="m 330.2536,182.01845 -23.35997,6.2e-4 c -6.59998,0.42671 -5.34709,4.28272 -16.98892,5.30921 H 183.72389 a 10.618039,8.4944308 0 0 0 -1.06004,0.043 10.618039,8.4944308 0 0 0 -1.04914,0.12585 10.618039,8.4944308 0 0 0 -1.02796,0.21055 10.618039,8.4944308 0 0 0 -0.9977,0.29103 10.618039,8.4944308 0 0 0 -0.95597,0.36968 10.618039,8.4944308 0 0 0 -0.90393,0.4435 10.618039,8.4944308 0 0 0 -0.84524,0.51367 10.618039,8.4944308 0 0 0 -0.77687,0.57963 10.618039,8.4944308 0 0 0 -0.70003,0.6371 10.618039,8.4944308 0 0 0 -0.61774,0.69036 10.618039,8.4944308 0 0 0 -0.26017,0.34245 10.618039,8.4944308 0 0 0 -0.48403,0.7563 10.618039,8.4944308 0 0 0 -0.38723,0.79018 10.618039,8.4944308 0 0 0 -0.288,0.81741 10.618039,8.4944308 0 0 0 -0.18332,0.83617 10.618039,8.4944308 0 0 0 -0.0774,0.84705 10.618039,8.4944308 0 0 0 0.0285,0.84827 10.618039,8.4944308 0 0 0 0.13372,0.84281 10.618039,8.4944308 0 0 0 0.23838,0.82771 10.618039,8.4944308 0 0 0 0.34003,0.80409 10.618039,8.4944308 0 0 0 0.43866,0.77263 10.618039,8.4944308 0 0 0 0.2408,0.35275 10.618039,8.4944308 0 0 0 0.576,0.71273 10.618039,8.4944308 0 0 0 0.66191,0.66312 10.618039,8.4944308 0 0 0 0.74178,0.60807 10.618039,8.4944308 0 0 0 0.81317,0.54514 10.618039,8.4944308 0 0 0 0.87792,0.47738 10.618039,8.4944308 0 0 0 0.93236,0.40537 10.618039,8.4944308 0 0 0 0.97896,0.32794 10.618039,8.4944308 0 0 0 1.01526,0.24928 10.618039,8.4944308 0 0 0 1.04066,0.16516 10.618039,8.4944308 0 0 0 1.0564,0.0829 10.618039,8.4944308 0 0 0 0.50037,0.009 h 106.18082 c 11.64183,1.02651 10.38894,4.8825 16.98892,5.30923 h 23.35938 a 4.2472151,3.1854116 0 0 0 0.20086,-0.005 4.2472151,3.1854116 0 0 0 0.42232,-0.0302 4.2472151,3.1854116 0 0 0 0.41567,-0.0629 4.2472151,3.1854116 0 0 0 0.40598,-0.0932 4.2472151,3.1854116 0 0 0 0.39206,-0.12282 4.2472151,3.1854116 0 0 0 0.37331,-0.15126 4.2472151,3.1854116 0 0 0 0.35093,-0.1791 4.2472151,3.1854116 0 0 0 0.32611,-0.2051 4.2472151,3.1854116 0 0 0 0.29586,-0.22749 4.2472151,3.1854116 0 0 0 0.26502,-0.24869 4.2472151,3.1854116 0 0 0 0.2299,-0.26802 4.2472151,3.1854116 0 0 0 0.0968,-0.13191 4.2472151,3.1854116 0 0 0 0.17546,-0.2892 4.2472151,3.1854116 0 0 0 0.13613,-0.30191 4.2472151,3.1854116 0 0 0 0.0957,-0.31039 4.2472151,3.1854116 0 0 0 0.0527,-0.31643 4.2472151,3.1854116 0 0 0 0.0134,-0.31826 4.2472151,3.1854116 0 0 0 -0.0321,-0.31703 4.2472151,3.1854116 0 0 0 -0.0732,-0.31402 4.2472151,3.1854116 0 0 0 -0.11438,-0.30616 4.2472151,3.1854116 0 0 0 -0.15489,-0.29585 4.2472151,3.1854116 0 0 0 -0.19422,-0.28316 4.2472151,3.1854116 0 0 0 -0.10409,-0.12888 4.2472151,3.1854116 0 0 0 -0.24685,-0.25896 4.2472151,3.1854116 0 0 0 -0.28013,-0.23899 4.2472151,3.1854116 0 0 0 -0.31039,-0.21721 4.2472151,3.1854116 0 0 0 -0.33821,-0.193 4.2472151,3.1854116 0 0 0 -0.36182,-0.16579 4.2472151,3.1854116 0 0 0 -0.38177,-0.13976 4.2472151,3.1854116 0 0 0 -0.39995,-0.1083 4.2472151,3.1854116 0 0 0 -0.41141,-0.0793 4.2472151,3.1854116 0 0 0 -0.4193,-0.0472 4.2472151,3.1854116 0 0 0 -0.42474,-0.0163 h -23.35997 a 2.1236077,2.1236078 0 0 1 -1.83933,-1.06245 2.1236077,2.1236078 0 0 1 0,-2.12308 2.1236077,2.1236078 0 0 1 1.83933,-1.06245 v 0.002 h 23.35936 a 4.2472151,3.1854116 0 0 0 0.20088,-0.005 4.2472151,3.1854116 0 0 0 0.42232,-0.0308 4.2472151,3.1854116 0 0 0 0.41566,-0.0623 4.2472151,3.1854116 0 0 0 0.40599,-0.0932 4.2472151,3.1854116 0 0 0 0.39206,-0.12282 4.2472151,3.1854116 0 0 0 0.37331,-0.15187 4.2472151,3.1854116 0 0 0 0.35091,-0.17848 4.2472151,3.1854116 0 0 0 0.32613,-0.20573 4.2472151,3.1854116 0 0 0 0.29586,-0.22688 4.2472151,3.1854116 0 0 0 0.26501,-0.24928 4.2472151,3.1854116 0 0 0 0.22991,-0.26743 4.2472151,3.1854116 0 0 0 0.0968,-0.13189 4.2472151,3.1854116 0 0 0 0.17547,-0.28981 4.2472151,3.1854116 0 0 0 0.13613,-0.30192 4.2472151,3.1854116 0 0 0 0.0957,-0.31039 4.2472151,3.1854116 0 0 0 0.0527,-0.31583 4.2472151,3.1854116 0 0 0 0.0134,-0.31825 4.2472151,3.1854116 0 0 0 -0.0321,-0.31704 4.2472151,3.1854116 0 0 0 -0.0732,-0.31401 4.2472151,3.1854116 0 0 0 -0.11439,-0.30616 4.2472151,3.1854116 0 0 0 -0.1549,-0.29647 4.2472151,3.1854116 0 0 0 -0.19422,-0.28316 4.2472151,3.1854116 0 0 0 -0.10409,-0.12826 4.2472151,3.1854116 0 0 0 -0.24685,-0.25897 4.2472151,3.1854116 0 0 0 -0.28013,-0.23958 4.2472151,3.1854116 0 0 0 -0.31039,-0.21721 4.2472151,3.1854116 0 0 0 -0.33822,-0.19301 4.2472151,3.1854116 0 0 0 -0.36181,-0.16578 4.2472151,3.1854116 0 0 0 -0.38179,-0.13916 4.2472151,3.1854116 0 0 0 -0.39993,-0.10889 4.2472151,3.1854116 0 0 0 -0.41142,-0.0787 4.2472151,3.1854116 0 0 0 -0.4193,-0.0472 4.2472151,3.1854116 0 0 0 -0.42473,-0.0176 l -23.35999,0.001 a 2.1236077,2.1236078 0 0 1 -1.83931,-1.06124 2.1236077,2.1236078 0 0 1 0,-2.1237 2.1236077,2.1236078 0 0 1 1.83931,-1.06244 h 23.35938 a 4.2472151,3.1854116 0 0 0 0.20087,-0.005 4.2472151,3.1854116 0 0 0 0.42233,-0.0309 4.2472151,3.1854116 0 0 0 0.41565,-0.0623 4.2472151,3.1854116 0 0 0 0.40598,-0.0932 4.2472151,3.1854116 0 0 0 0.39208,-0.12342 4.2472151,3.1854116 0 0 0 0.3733,-0.15127 4.2472151,3.1854116 0 0 0 0.35092,-0.17909 4.2472151,3.1854116 0 0 0 0.32612,-0.20511 4.2472151,3.1854116 0 0 0 0.29587,-0.22689 4.2472151,3.1854116 0 0 0 0.2644,-0.24927 4.2472151,3.1854116 0 0 0 0.23052,-0.26743 4.2472151,3.1854116 0 0 0 0.0968,-0.1319 4.2472151,3.1854116 0 0 0 0.17546,-0.28982 4.2472151,3.1854116 0 0 0 0.13614,-0.30191 4.2472151,3.1854116 0 0 0 0.0955,-0.31038 4.2472151,3.1854116 0 0 0 0.0527,-0.31584 4.2472151,3.1854116 0 0 0 0.0133,-0.31824 4.2472151,3.1854116 0 0 0 -0.0321,-0.31765 4.2472151,3.1854116 0 0 0 -0.0732,-0.31342 4.2472151,3.1854116 0 0 0 -0.11439,-0.30614 4.2472151,3.1854116 0 0 0 -0.15489,-0.29648 4.2472151,3.1854116 0 0 0 -0.19422,-0.28315 4.2472151,3.1854116 0 0 0 -0.10408,-0.12828 4.2472151,3.1854116 0 0 0 -0.24686,-0.25895 4.2472151,3.1854116 0 0 0 -0.28013,-0.23959 4.2472151,3.1854116 0 0 0 -0.31039,-0.21722 4.2472151,3.1854116 0 0 0 -0.33821,-0.19301 4.2472151,3.1854116 0 0 0 -0.36182,-0.16577 4.2472151,3.1854116 0 0 0 -0.38178,-0.13916 4.2472151,3.1854116 0 0 0 -0.39993,-0.10888 4.2472151,3.1854116 0 0 0 -0.41143,-0.0787 4.2472151,3.1854116 0 0 0 -0.4193,-0.0472 4.2472151,3.1854116 0 0 0 -0.42474,-0.017 z m -129.41072,10.05636 c 0.62543,0 1.18027,0.12804 1.66446,0.38359 0.48421,0.24883 0.85706,0.57841 1.11933,0.98864 0.26228,0.4035 0.39684,0.83741 0.40356,1.30144 h -2.04745 c -0.0672,-0.31607 -0.20182,-0.56861 -0.40356,-0.75691 -0.19503,-0.19503 -0.45763,-0.29223 -0.78716,-0.29223 -0.4035,0 -0.73605,0.16478 -0.99831,0.49431 -0.25556,0.32953 -0.3836,0.86065 -0.3836,1.59368 0,0.80028 0.14107,1.34799 0.42352,1.64389 0.28918,0.28917 0.63596,0.43382 1.03946,0.43382 0.26228,0 0.49049,-0.067 0.68552,-0.20148 0.19502,-0.14122 0.3195,-0.30246 0.3733,-0.48403 l 0.0907,-0.26259 h -1.27058 v -1.3214 l 3.33861,0.0199 v 3.8535 h -1.29115 v -0.80712 c -0.17485,0.18157 -0.34321,0.33333 -0.5046,0.45438 -0.15468,0.12105 -0.36274,0.22834 -0.62501,0.32248 -0.26228,0.0875 -0.57823,0.1313 -0.9481,0.1313 -0.68595,0 -1.29177,-0.15471 -1.81633,-0.46407 -0.51782,-0.31607 -0.9209,-0.7565 -1.21007,-1.3214 -0.28246,-0.5649 -0.42354,-1.21043 -0.42354,-1.93673 0,-0.74648 0.15116,-1.40564 0.45379,-1.97728 0.30262,-0.57163 0.72289,-1.01206 1.2609,-1.3214 0.54473,-0.31607 1.16358,-0.47436 1.85625,-0.47436 z m 40.79238,0 c 0.69941,0 1.31471,0.15471 1.84598,0.46406 0.53128,0.30935 0.94147,0.74978 1.23066,1.32141 0.2959,0.5649 0.44409,1.22406 0.44409,1.97727 0,0.74648 -0.14463,1.40208 -0.43381,1.96698 -0.28917,0.56491 -0.69937,1.00238 -1.23064,1.31173 -0.53129,0.30262 -1.15014,0.45378 -1.85628,0.45378 -0.71284,0 -1.33822,-0.15116 -1.87622,-0.45378 -0.53128,-0.30935 -0.94148,-0.74326 -1.23065,-1.30144 -0.28918,-0.56491 -0.43381,-1.22407 -0.43381,-1.97727 0,-0.75321 0.14463,-1.41237 0.43381,-1.97727 0.2959,-0.57163 0.70966,-1.01206 1.24093,-1.32141 0.53801,-0.30935 1.15982,-0.46406 1.86594,-0.46406 z m -61.43875,0.0105 c 0.57835,0 1.09939,0.10725 1.56342,0.32249 0.47075,0.20847 0.8442,0.49123 1.11993,0.84765 0.28245,0.34971 0.44663,0.72611 0.49371,1.12961 h -1.98696 c -0.0269,-0.27572 -0.13773,-0.4737 -0.33277,-0.59475 -0.18829,-0.12777 -0.46098,-0.19179 -0.8174,-0.19179 -0.3497,0 -0.60518,0.0569 -0.76658,0.17122 -0.15468,0.11439 -0.23174,0.24889 -0.23174,0.40356 0,0.17485 0.0569,0.31297 0.17123,0.41385 0.11427,0.0941 0.32298,0.16825 0.62561,0.22205 l 1.1399,0.19119 c 0.92805,0.1614 1.53327,0.46787 1.81572,0.91845 0.28917,0.44385 0.43382,0.93762 0.43382,1.48235 0,0.41022 -0.14109,0.78012 -0.42354,1.10965 -0.27573,0.32952 -0.65925,0.58857 -1.15018,0.77686 -0.48419,0.1883 -1.0254,0.28255 -1.62392,0.28255 -0.53801,0 -1.05254,-0.0842 -1.54346,-0.2523 -0.4842,-0.16813 -0.88788,-0.4236 -1.21068,-0.76658 -0.32281,-0.3497 -0.50419,-0.78361 -0.54454,-1.30144 h 2.03777 c 0.0539,0.25555 0.18776,0.4577 0.40297,0.60564 0.22191,0.14123 0.50468,0.21177 0.84765,0.21177 0.3497,0 0.63542,-0.0504 0.85735,-0.15126 0.22865,-0.1076 0.34305,-0.27951 0.34305,-0.51489 0,-0.19503 -0.10081,-0.33254 -0.30252,-0.41324 -0.20175,-0.0875 -0.50762,-0.16509 -0.91784,-0.23234 l -1.13989,-0.19119 c -0.59181,-0.0941 -1.05952,-0.32653 -1.40249,-0.6964 -0.34298,-0.37661 -0.51428,-0.87098 -0.51428,-1.48296 0,-0.47075 0.13455,-0.87739 0.40356,-1.22036 0.27573,-0.3497 0.64561,-0.61526 1.10963,-0.79684 0.46404,-0.1883 0.97857,-0.28255 1.54347,-0.28255 z m 4.33329,0.0907 h 2.88543 c 0.54474,0 1.03199,0.0979 1.46238,0.29284 0.43713,0.19503 0.78035,0.48074 1.02918,0.85734 0.24882,0.36989 0.3733,0.81032 0.3733,1.32141 0,0.71958 -0.23532,1.28449 -0.70607,1.69471 -0.46404,0.41024 -1.10009,0.61533 -1.90709,0.61533 h -1.17014 v 2.51152 h -1.96699 z m 7.84918,0 h 2.00752 l 2.58231,7.29315 h -1.93673 l -0.48464,-1.41216 h -2.29975 l -0.49433,1.41216 h -1.95669 z m 13.05494,0 h 1.96698 v 2.76382 h 2.20962 v -2.76381 h 1.96698 v 7.29314 h -1.96698 v -2.92536 h -2.20962 v 2.92536 h -1.96698 z m 7.52609,0 h 5.38727 l -0.0105,1.62393 h -3.39972 v 1.21069 h 2.8449 v 1.58398 h -2.85459 v 1.24034 h 3.42937 v 1.63421 h -5.39696 z m 6.10546,0 h 6.123 v 1.72497 h -2.088 v 5.56818 h -1.96698 v -5.56818 h -2.06802 z m 6.95493,0 h 6.123 v 1.72497 h -2.08799 v 5.56818 h -1.96698 v -5.56818 h -2.06803 z m 6.97731,0 h 1.967 v 7.29315 h -1.967 z m 13.29878,0 h 2.88483 c 0.54473,0 1.03259,0.0979 1.46299,0.29284 0.43712,0.19503 0.77974,0.48074 1.02856,0.85734 0.24883,0.36989 0.37331,0.81032 0.37331,1.32141 0,0.71958 -0.23534,1.28449 -0.70608,1.69471 -0.46402,0.41024 -1.09947,0.61533 -1.90647,0.61533 h -1.17016 v 2.51152 h -1.96698 z m 6.7577,0 h 5.38666 l -0.009,1.62393 h -3.39972 v 1.21069 h 2.8449 v 1.58398 h -2.85518 v 1.24034 h 3.42996 v 1.63421 h -5.39695 z m 6.6397,0 h 1.97727 l 2.8449,4.06526 v -4.06525 h 1.96698 v 7.29314 h -1.77579 l -3.04637,-4.34782 v 4.34782 h -1.96699 z m 8.17651,0 h 1.15018 c 0.77337,0 1.26418,0.004 1.47266,0.0105 1.27103,0.0471 2.21591,0.38968 2.83461,1.02856 0.62542,0.63888 0.93781,1.49958 0.93781,2.58231 0,0.7263 -0.13751,1.36531 -0.41324,1.91677 -0.27572,0.55145 -0.69956,0.98179 -1.27118,1.29115 -0.56491,0.30935 -1.26437,0.46407 -2.09828,0.46407 h -2.61256 z m 8.83416,0 h 2.00752 l 2.58232,7.29315 h -1.93673 l -0.48464,-1.41216 h -2.29976 l -0.49432,1.41216 h -1.95669 z m 4.46218,0 h 6.123 v 1.72497 h -2.088 v 5.56818 h -1.96699 v -5.56818 h -2.06801 z m 7.96957,0 h 2.00753 l 2.58231,7.29315 h -1.93674 l -0.48403,-1.41216 h -2.29976 l -0.49432,1.41216 h -1.9573 z m -102.6595,1.45271 v 1.86594 h 1.12961 c 0.24211,0 0.4472,-0.0972 0.61533,-0.29224 0.16813,-0.19502 0.2523,-0.41375 0.2523,-0.65586 0,-0.24882 -0.0907,-0.46401 -0.27226,-0.64558 -0.17485,-0.18157 -0.37344,-0.27226 -0.59537,-0.27226 z m 61.7667,0 v 1.86594 h 1.12961 c 0.2421,0 0.4472,-0.0972 0.61533,-0.29224 0.16813,-0.19502 0.2523,-0.41375 0.2523,-0.65586 0,-0.24882 -0.0907,-0.46401 -0.27227,-0.64558 -0.17485,-0.18157 -0.37343,-0.27226 -0.59536,-0.27226 z m -6.60825,0.02 c -0.4304,0 -0.77301,0.17843 -1.02856,0.53486 -0.24883,0.3497 -0.37331,0.91105 -0.37331,1.68442 0,0.74649 0.12448,1.28768 0.37331,1.62394 0.24882,0.33625 0.59144,0.5046 1.02856,0.5046 0.43041,0 0.77007,-0.16835 1.01889,-0.5046 0.24884,-0.33626 0.37332,-0.87745 0.37332,-1.62394 0,-0.77337 -0.12448,-1.33472 -0.37332,-1.68442 -0.24882,-0.35643 -0.58848,-0.53486 -1.01889,-0.53486 z m 28.20212,0.0708 v 4.20624 h 0.70608 c 0.26901,0 0.53161,-0.0735 0.78715,-0.22145 0.25556,-0.14796 0.46717,-0.38388 0.6353,-0.70669 0.16812,-0.32279 0.2523,-0.73299 0.2523,-1.23065 0,-0.65906 -0.15115,-1.1629 -0.45377,-1.5126 -0.30264,-0.35642 -0.70987,-0.53485 -1.22098,-0.53485 z m -76.4498,0.33277 -0.72604,2.33001 h 1.4424 z m 84.32558,0 -0.72605,2.33001 h 1.44242 z m 12.43235,0 -0.72664,2.33001 h 1.44242 z"
         style="opacity:1;fill:#ffffff;fill-opacity:1;stroke:none;stroke-width:0.82389629;stroke-linecap:round;stroke-linejoin:round;stroke-miterlimit:4;stroke-dasharray:none;stroke-opacity:1"
         inkscape:connector-curvature="0" />
      <g
         id="g1493"
         transform="translate(173.1064,-27.910694)"
         style="fill:#ffffff;fill-opacity:1">
        <path
           inkscape:connector-curvature="0"
           style="opacity:1;fill:#ffffff;fill-opacity:1;stroke:none;stroke-width:0.32198957;stroke-linecap:round;stroke-linejoin:round;stroke-miterlimit:4;stroke-dasharray:none;stroke-opacity:1"
           d="m 154.83544,207.65147 a 2.2784601,2.1383707 0 0 0 -1.08562,0.2862 2.2784601,2.1383707 0 0 0 -1.13995,1.85143 v 40.62945 a 2.2784601,2.1383707 0 0 0 1.13995,1.85092 2.2784601,2.1383707 0 0 0 2.27823,0 2.2784601,2.1383707 0 0 0 1.13882,-1.85092 V 209.7891 a 2.2784601,2.1383707 0 0 0 -1.13882,-1.85143 2.2784601,2.1383707 0 0 0 -1.19261,-0.2862 z"
           id="path1487" />
        <path
           inkscape:connector-curvature="0"
           id="path1489"
           d="m 149.52985,207.65147 a 2.2784601,2.1383707 0 0 0 -1.08574,0.28628 2.2784601,2.1383707 0 0 0 -1.13999,1.85105 v 27.60762 13.02194 27.60762 a 2.2784601,2.1383707 0 0 0 1.13999,1.85053 2.2784601,2.1383707 0 0 0 2.27843,0 2.2784601,2.1383707 0 0 0 1.13892,-1.85053 V 250.41836 237.39642 209.7888 a 2.2784601,2.1383707 0 0 0 -1.13892,-1.85105 2.2784601,2.1383707 0 0 0 -1.19269,-0.28628 z"
           style="opacity:1;fill:#ffffff;fill-opacity:1;stroke:none;stroke-width:0.32198957;stroke-linecap:round;stroke-linejoin:round;stroke-miterlimit:4;stroke-dasharray:none;stroke-opacity:1" />
        <path
           id="path1491"
           d="m 144.8396,207.72022 a 2.2784601,2.1383707 15 0 0 -1.1227,-0.005 2.2784601,2.1383707 15 0 0 -1.5803,1.4933 l -10.51567,39.24504 a 2.2784601,2.1383707 15 0 0 0.62205,2.08289 2.2784601,2.1383707 15 0 0 2.2006,0.58965 2.2784601,2.1383707 15 0 0 1.57907,-1.4931 l 10.51568,-39.24504 a 2.2784601,2.1383707 15 0 0 -0.62083,-2.08309 2.2784601,2.1383707 15 0 0 -1.0779,-0.58512 z"
           style="opacity:1;fill:#ffffff;fill-opacity:1;stroke:none;stroke-width:0.32198957;stroke-linecap:round;stroke-linejoin:round;stroke-miterlimit:4;stroke-dasharray:none;stroke-opacity:1"
           inkscape:connector-curvature="0" />
      </g>
    </g>
  </g>
</svg>
