<?xml version="1.0" encoding="iso-8859-1"?>
<!-- Generator: Adobe Illustrator 19.0.0, SVG Export Plug-In . SVG Version: 6.00 Build 0)  -->
<svg version="1.1" id="Layer_1" xmlns="http://www.w3.org/2000/svg" xmlns:xlink="http://www.w3.org/1999/xlink" x="0px" y="0px"
	 viewBox="0 0 512 512" style="enable-background:new 0 0 512 512;" xml:space="preserve">
<g>
	<g>
		<path d="M503.172,292.984c-4.879,0-8.828,3.953-8.828,8.828c0,15.405-81.862,44.138-238.345,44.138
			c-10.901,0-21.349-0.169-31.522-0.433c1.765-5.931,3.95-12.529,6.22-19.334c0.765-2.294,1.541-4.628,2.319-6.987
			c7.864,0.175,15.565,0.271,22.983,0.271c102.905,0,256-16.457,256-61.793c0-15.871-17.138-28.715-52.379-39.263
			c-4.69-1.427-9.595,1.259-10.991,5.927c-1.397,4.668,1.259,9.59,5.922,10.987c31.474,9.418,39.793,18.737,39.793,22.349
			c0,15.405-81.862,44.138-238.345,44.138c-5.993,0-11.668-0.119-17.444-0.199c8.718-29.44,13.948-59.92-2.797-76.663
			c-9.259-9.263-17.974-9.341-23.672-7.763c-21.75,6.026-33.198,47.707-35.267,56c-1.19,4.729,1.69,9.517,6.414,10.703
			c4.716,1.173,9.517-1.685,10.707-6.414c4.181-16.651,14.448-40.948,22.862-43.276c1.707-0.457,3.871,0.629,6.474,3.233
			c10.92,10.924,4.81,38.324-3.048,63.796c-133.05-3.965-202.573-29.376-202.573-43.555c0-4.25,10.517-15.004,50.31-25.272
			c4.715-1.22,7.56-6.03,6.345-10.754c-1.224-4.72-6.035-7.535-10.759-6.341C20.785,226.341,0,240.199,0,257.673
			c0,39.555,116.534,57.123,214.601,60.961c-0.218,0.652-0.44,1.323-0.653,1.966c-2.931,8.798-5.662,16.995-7.659,24.277
			c-123.972-5.256-188.634-29.389-188.634-43.066c0-4.875-3.948-8.828-8.828-8.828S0,296.936,0,301.811
			c0,38.028,107.711,55.731,203.172,60.452c-0.015,0.416-0.138,0.94-0.138,1.342c0,29.798,19.414,49.552,20.241,50.379
			c1.724,1.724,3.983,2.586,6.241,2.586c2.259,0,4.517-0.862,6.241-2.586c3.448-3.448,3.448-9.034,0-12.483
			c-0.146-0.151-15.069-15.332-15.069-37.897c0-0.184,0.039-0.425,0.043-0.617c12.173,0.409,24.028,0.617,35.267,0.617
			c102.905,0,256-16.457,256-61.793C512,296.936,508.052,292.984,503.172,292.984z"/>
	</g>
</g>
<g>
	<g>
		<path d="M149.138,165.449c-2.181-4.362-7.483-6.125-11.845-3.948c-0.784,0.392-78.069,40.155-39.258,117.776
			c1.552,3.095,4.664,4.884,7.905,4.879c1.328,0,2.672-0.298,3.94-0.931c4.362-2.181,6.129-7.483,3.948-11.845
			c-30.853-61.711,28.828-92.802,31.379-94.095C149.552,175.096,151.31,169.803,149.138,165.449z"/>
	</g>
</g>
<g>
	<g>
		<path d="M167.543,185.259c-1-4.776-5.707-7.858-10.44-6.849c-2.086,0.431-50.974,11.612-33.345,98.672
			c0.853,4.185,4.535,7.073,8.647,7.073c0.578,0,1.172-0.056,1.759-0.177c4.784-0.966,7.871-5.625,6.905-10.405
			c-13.888-68.556,18.06-77.487,19.733-77.901C165.509,194.63,168.526,189.996,167.543,185.259z"/>
	</g>
</g>
<g>
	<g>
		<path d="M202.56,193.014c-1.586-4.612-6.578-7.069-11.224-5.483c-0.586,0.203-58.948,21.108-40.983,90.026
			c1.035,3.97,4.621,6.604,8.534,6.604c0.741-0.004,1.491-0.095,2.233-0.289c4.724-1.233,7.552-6.052,6.319-10.772
			c-13.75-52.72,27.733-68.194,29.664-68.879C201.698,202.626,204.138,197.613,202.56,193.014z"/>
	</g>
</g>
<g>
	<g>
		<path d="M134.552,134.35c-24.103-6.026-42.879-3.271-55.81,8.203c-21.078,18.677-17.06,52.97-16.879,54.422
			c0.56,4.465,4.353,7.724,8.741,7.724c0.362,0,0.724-0.022,1.086-0.069c4.836-0.59,8.276-4.991,7.69-9.823
			c-0.026-0.267-3.009-26.625,11.112-39.082c8.31-7.336,21.681-8.78,39.785-4.246c4.698,1.19,9.517-1.698,10.698-6.423
			C142.164,140.324,139.285,135.531,134.552,134.35z"/>
	</g>
</g>
<g>
	<g>
		<path d="M369.207,164.397c-30.491-44.345-65.276-67.53-103.397-68.909c-63.957-2.159-111.784,57.039-113.81,59.569
			c-3.043,3.802-2.422,9.349,1.379,12.396c3.819,3.065,9.371,2.436,12.405-1.362c0.44-0.552,44.793-55.125,99.466-52.957
			c32.207,1.198,62.285,21.81,89.405,61.263c1.716,2.491,4.474,3.828,7.284,3.828c1.724,0,3.466-0.504,4.991-1.552
			C370.948,173.91,371.966,168.415,369.207,164.397z"/>
	</g>
</g>
<g>
	<g>
		<path d="M342.586,173.031c-22.604-31.078-48.664-47.595-77.457-49.095c-48.104-2.384-84.759,37.841-86.31,39.556
			c-3.258,3.625-2.965,9.207,0.655,12.466c3.638,3.276,9.207,2.974,12.466-0.655c0.319-0.358,32.698-35.836,72.267-33.733
			c23.215,1.207,44.784,15.289,64.103,41.849c1.724,2.375,4.414,3.634,7.147,3.634c1.802,0,3.612-0.547,5.181-1.69
			C344.586,182.496,345.457,176.975,342.586,173.031z"/>
	</g>
</g>
<g>
	<g>
		<path d="M298.371,172.928c-24.896-33.211-70.681-15.858-91.405-2.047c-4.052,2.703-5.147,8.172-2.448,12.228
			c2.69,4.047,8.155,5.155,12.233,2.47c0.448-0.319,46.362-30.258,67.5-2.056c1.733,2.31,4.379,3.53,7.069,3.53
			c1.845,0,3.698-0.573,5.284-1.767C300.509,182.363,301.302,176.828,298.371,172.928z"/>
	</g>
</g>
<g>
	<g>
		<path d="M385.828,180.811c-3.448-3.448-9.034-3.448-12.483,0c-32.284,32.28-107.759,32.724-108.517,32.724
			c-4.879,0.004-8.828,3.957-8.828,8.832c0.009,4.875,3.957,8.823,8.828,8.823c3.397,0,83.535-0.431,121-37.897
			C389.276,189.846,389.276,184.259,385.828,180.811z"/>
	</g>
</g>
<g>
	<g>
		<path d="M411.198,179.867c-3.957-2.819-9.474-1.909-12.31,2.056c-40.922,57.289-133.138,58.095-134.069,58.095
			c-4.871,0.009-8.819,3.961-8.819,8.836c0.009,4.871,3.957,8.819,8.828,8.819c4.147,0,102.181-0.746,148.422-65.491
			C416.086,188.216,415.164,182.703,411.198,179.867z"/>
	</g>
</g>
<g>
	<g>
		<path d="M445.759,188.216c-4.241-2.422-9.629-0.957-12.043,3.284c-32.707,57.237-168.612,74.897-169.983,75.069
			c-4.836,0.608-8.267,5.017-7.664,9.853c0.56,4.465,4.362,7.733,8.75,7.733c0.362,0,0.733-0.022,1.103-0.069
			c5.948-0.742,146.052-18.948,183.121-83.828C451.465,196.027,449.991,190.634,445.759,188.216z"/>
	</g>
</g>
<g>
</g>
<g>
</g>
<g>
</g>
<g>
</g>
<g>
</g>
<g>
</g>
<g>
</g>
<g>
</g>
<g>
</g>
<g>
</g>
<g>
</g>
<g>
</g>
<g>
</g>
<g>
</g>
<g>
</g>
</svg>
